<svg width="70" height="48" viewBox="0 0 70 48" fill="none" xmlns="http://www.w3.org/2000/svg">
<rect x="0.5" y="0.5" width="69" height="47" rx="5.5" fill="#1F72CD" stroke="#D9D9D9"/>
<path d="M20.1104 18.7041V17H27.9346L29.6504 20.7412L31.3271 17H50.8525L52.8311 19.209L54.9561 17H64.0312L57.4619 24.2871L64.0312 31.5117L54.8135 31.4932L52.7695 29.2422L50.5869 31.4932H32.6387V29.6924L31.8691 31.4932H27.4053L26.6367 29.7295V31.4932H18.0059L17.0342 29.1826H14.8125L13.8408 31.4932H6L12.5498 17H19.2393L20.1104 18.7041ZM9.47363 29.4561H12.2676L13.2539 27.127H18.5947L19.584 29.458H24.7979V21.3086L28.5146 29.458H30.7812L34.4775 21.3086L34.498 29.458H37.0322V19.0576H32.8672L29.7744 26.1045L26.4189 19.0576H22.2324V28.8857L17.8887 19.0576H14.0664C14.0664 19.0576 9.48517 29.4299 9.47363 29.4561ZM39.3516 29.4521H49.499L52.7695 26.0068L55.9219 29.4521H59.2168L54.4277 24.2852L59.2168 19.0576H56.0645L52.8105 22.4629L49.6582 19.0576H39.3516V29.4521ZM51.1338 24.2461L48.2041 27.2988H41.8965V25.2256H47.5195V23.1104H41.8965V21.21H48.3281L51.1338 24.2461ZM17.6836 24.9717H14.166L15.9258 20.8174L17.6836 24.9717Z" fill="white"/>
</svg>
