<svg width="70" height="48" viewBox="0 0 70 48" fill="none" xmlns="http://www.w3.org/2000/svg">
<rect x="0.5" y="0.5" width="69" height="47" rx="5.5" fill="white" stroke="#D9D9D9"/>
<path d="M15.5469 30.8125C15.9417 30.8125 16.3004 30.842 16.623 30.9004C16.9451 30.959 17.2216 31.0549 17.4521 31.1885C17.6829 31.322 17.8632 31.5 17.9912 31.7227C18.119 31.9454 18.1826 32.2236 18.1826 32.5576V32.708C18.1826 32.9808 18.1213 33.2262 17.999 33.4434C17.8766 33.6604 17.7038 33.8242 17.4814 33.9355C17.7037 34.0468 17.8832 34.2086 18.0195 34.4199C18.1557 34.6315 18.2246 34.8825 18.2246 35.1719V35.2969C18.2246 35.6644 18.1545 35.9696 18.0156 36.2119C17.8765 36.454 17.6886 36.6462 17.4521 36.7881C17.2158 36.93 16.9376 37.0295 16.6182 37.085C16.2984 37.1406 15.958 37.168 15.5967 37.168C15.4576 37.168 15.3155 37.1655 15.1709 37.1602C15.0264 37.1544 14.8862 37.147 14.75 37.1387C14.6137 37.1303 14.4869 37.1205 14.3701 37.1094C14.2535 37.0981 14.1536 37.084 14.0703 37.0674C13.9036 37.0395 13.7853 36.9903 13.7158 36.918C13.6462 36.8457 13.6114 36.7146 13.6113 36.5254V31.4473C13.6113 31.2581 13.6452 31.1272 13.7119 31.0547C13.7786 30.9825 13.8926 30.9324 14.0537 30.9043C14.1259 30.8934 14.219 30.8823 14.333 30.8711C14.4467 30.86 14.5718 30.8501 14.708 30.8418C14.8442 30.8335 14.9851 30.8268 15.1299 30.8213C15.2742 30.8157 15.4136 30.8125 15.5469 30.8125ZM20.8438 32.2402C21.144 32.2402 21.4155 32.2729 21.6572 32.3369C21.899 32.4011 22.1028 32.5015 22.2695 32.6377C22.4363 32.7742 22.5666 32.949 22.6582 33.1631C22.75 33.3774 22.7959 33.6382 22.7959 33.9443V36.9258C22.7959 36.9704 22.7785 37.0097 22.7451 37.043C22.7118 37.0762 22.673 37.0927 22.6289 37.0928H21.6943C21.65 37.0928 21.6115 37.0762 21.5781 37.043C21.5447 37.0097 21.5273 36.9704 21.5273 36.9258V36.792C21.366 36.9088 21.1952 37.0006 21.0146 37.0674C20.834 37.1341 20.6184 37.168 20.3682 37.168C20.1847 37.168 20.0075 37.144 19.8379 37.0967C19.6684 37.0495 19.5172 36.9704 19.3838 36.8594C19.2504 36.7479 19.143 36.5998 19.0625 36.416C18.982 36.2324 18.9414 36.0039 18.9414 35.7314V35.6562C18.9414 35.1664 19.1044 34.8084 19.4297 34.583C19.755 34.3576 20.2768 34.2451 20.9941 34.2451H21.4443V33.9443C21.4443 33.705 21.3885 33.5491 21.2773 33.4766C21.1661 33.4042 21.0129 33.3682 20.8184 33.3682C20.6849 33.3682 20.5501 33.3693 20.4141 33.3721C20.2779 33.375 20.1474 33.3794 20.0225 33.3848C19.8972 33.3907 19.7837 33.3969 19.6836 33.4053C19.5837 33.4136 19.5004 33.421 19.4336 33.4268H19.3926C19.3479 33.4268 19.3119 33.4149 19.2842 33.3926C19.2563 33.3706 19.2422 33.3321 19.2422 33.2764V32.5996C19.2422 32.5051 19.2948 32.4441 19.4004 32.416C19.5559 32.3772 19.7659 32.3377 20.0303 32.2988C20.2942 32.2598 20.5656 32.2402 20.8438 32.2402ZM30.7197 32.2402C30.97 32.2402 31.1886 32.2545 31.375 32.2822C31.5611 32.3103 31.7124 32.3385 31.8291 32.3662C31.8902 32.3829 31.935 32.4037 31.9629 32.4287C31.9905 32.4538 32.0048 32.4967 32.0049 32.5576V33.3018C32.0048 33.3459 31.9892 33.3802 31.959 33.4053C31.9284 33.4302 31.8908 33.4433 31.8467 33.4434H31.8291C31.6735 33.4269 31.5246 33.4125 31.3828 33.4014C31.241 33.3905 31.0503 33.3848 30.8115 33.3848C30.7171 33.3848 30.6283 33.4002 30.5449 33.4307C30.4616 33.4613 30.3892 33.514 30.3281 33.5889C30.2669 33.6641 30.2178 33.7644 30.1816 33.8896C30.1454 34.0148 30.1279 34.1697 30.1279 34.3535V35.0547C30.1279 35.2383 30.1455 35.3932 30.1816 35.5186C30.2178 35.6438 30.2668 35.7442 30.3281 35.8193C30.3892 35.8945 30.4615 35.947 30.5449 35.9775C30.6283 36.0082 30.717 36.0234 30.8115 36.0234C31.0504 36.0234 31.241 36.0179 31.3828 36.0068C31.5246 35.9957 31.6735 35.9825 31.8291 35.9658H31.8467C31.8908 35.9659 31.9284 35.9779 31.959 36.0029C31.9894 36.028 32.0048 36.0628 32.0049 36.1074V36.8506C32.0049 36.9118 31.9906 36.9555 31.9629 36.9805C31.935 37.0055 31.8901 37.0264 31.8291 37.043C31.7124 37.0709 31.561 37.0989 31.375 37.127C31.1886 37.1545 30.97 37.168 30.7197 37.168C30.1305 37.1679 29.6596 36.9869 29.3066 36.625C28.9535 36.2632 28.7764 35.7395 28.7764 35.0547V34.3535C28.7764 33.6687 28.9535 33.1449 29.3066 32.7832C29.6596 32.4214 30.1306 32.2403 30.7197 32.2402ZM34.5449 32.2402C34.8847 32.2402 35.1842 32.2927 35.4434 32.3955C35.7023 32.4985 35.9202 32.6427 36.0957 32.8291C36.2711 33.0156 36.4041 33.2427 36.4961 33.5098C36.5881 33.777 36.6348 34.0779 36.6348 34.4121V34.9971C36.6347 35.3309 36.588 35.6313 36.4961 35.8984C36.4042 36.1656 36.271 36.3925 36.0957 36.5791C35.9202 36.7657 35.7023 36.9107 35.4434 37.0137C35.1843 37.1165 34.8847 37.168 34.5449 37.168C34.2051 37.168 33.9056 37.1165 33.6465 37.0137C33.3874 36.9107 33.1685 36.7657 32.9902 36.5791C32.8119 36.3925 32.6767 36.1656 32.585 35.8984C32.4929 35.6313 32.4473 35.3308 32.4473 34.9971V34.4121C32.4473 34.0779 32.4928 33.777 32.585 33.5098C32.6768 33.2426 32.8119 33.0156 32.9902 32.8291C33.1684 32.6428 33.3874 32.4985 33.6465 32.3955C33.9056 32.2927 34.2051 32.2402 34.5449 32.2402ZM44.2266 31.2803C44.2705 31.2803 44.3064 31.2926 44.334 31.3174C44.3615 31.3425 44.3759 31.3776 44.376 31.4219V32.3076H45.0596C45.1039 32.3076 45.1433 32.3238 45.1768 32.3574C45.2101 32.391 45.2265 32.4309 45.2266 32.4756V33.1582C45.2265 33.203 45.2099 33.2419 45.1768 33.2754C45.1433 33.309 45.1039 33.3262 45.0596 33.3262H44.376V35.7568C44.376 35.9235 44.3892 36.0309 44.417 36.0781C44.4447 36.1254 44.5228 36.1494 44.6504 36.1494H45.0596C45.1763 36.1494 45.2344 36.1962 45.2344 36.29V36.9365C45.2343 37.0302 45.1817 37.0853 45.0762 37.1016C44.9484 37.1237 44.8374 37.1403 44.7432 37.1514C44.6486 37.1625 44.5391 37.168 44.417 37.168C44.1905 37.1679 43.9903 37.1502 43.8164 37.1143C43.6423 37.078 43.4969 37.0062 43.3809 36.9004C43.265 36.7946 43.176 36.6485 43.1152 36.4619C43.0547 36.2756 43.0244 36.0353 43.0244 35.7402V33.3184L42.3574 33.209C42.3128 33.1979 42.2725 33.1771 42.2363 33.1465C42.2002 33.116 42.1817 33.0787 42.1816 33.0342V32.4824C42.1817 32.4381 42.2002 32.3975 42.2363 32.3613C42.2724 32.3255 42.3129 32.3076 42.3574 32.3076H43.0244V31.6221C43.0245 31.5777 43.0412 31.5415 43.0742 31.5137C43.1071 31.4861 43.1462 31.4663 43.1904 31.4551L44.2012 31.2803H44.2266ZM47.7373 32.2402C48.0376 32.2402 48.309 32.2729 48.5508 32.3369C48.7926 32.4011 48.9973 32.5014 49.1641 32.6377C49.3306 32.7741 49.4602 32.9492 49.5518 33.1631C49.6437 33.3774 49.6895 33.6382 49.6895 33.9443V36.9258C49.6895 36.9703 49.6728 37.0097 49.6396 37.043C49.6062 37.0764 49.5668 37.0928 49.5225 37.0928H48.5879C48.5436 37.0927 48.5048 37.0762 48.4717 37.043C48.4382 37.0097 48.4209 36.9704 48.4209 36.9258V36.792C48.2594 36.9088 48.0888 37.0006 47.9082 37.0674C47.7274 37.1342 47.512 37.168 47.2617 37.168C47.0782 37.168 46.9019 37.144 46.7324 37.0967C46.5627 37.0495 46.4109 36.9705 46.2773 36.8594C46.144 36.7479 46.0364 36.5998 45.9561 36.416C45.8754 36.2324 45.835 36.0039 45.835 35.7314V35.6562C45.835 35.1664 45.998 34.8084 46.3232 34.583C46.6485 34.3576 47.1701 34.2451 47.8877 34.2451H48.3379V33.9443C48.3379 33.705 48.2821 33.5491 48.1709 33.4766C48.0597 33.4043 47.9066 33.3682 47.7119 33.3682C47.5786 33.3682 47.4437 33.3693 47.3076 33.3721C47.1713 33.375 47.0403 33.3794 46.915 33.3848C46.7903 33.3906 46.678 33.397 46.5781 33.4053C46.478 33.4136 46.394 33.421 46.3271 33.4268H46.2861C46.2417 33.4268 46.2056 33.4149 46.1777 33.3926C46.1499 33.3706 46.1358 33.3321 46.1357 33.2764V32.5996C46.1357 32.5052 46.1881 32.4441 46.2939 32.416C46.4495 32.3772 46.6596 32.3377 46.9238 32.2988C47.1878 32.2598 47.4589 32.2402 47.7373 32.2402ZM52.5088 32.2402C52.7589 32.2402 52.9768 32.2545 53.1631 32.2822C53.3493 32.3103 53.5014 32.3385 53.6182 32.3662C53.6793 32.3829 53.7239 32.4038 53.752 32.4287C53.7795 32.4539 53.7929 32.4969 53.793 32.5576V33.3018C53.7929 33.3461 53.7774 33.3802 53.7471 33.4053C53.7164 33.4302 53.6793 33.4434 53.6348 33.4434H53.6182C53.4625 33.4269 53.3137 33.4125 53.1719 33.4014C53.0302 33.3904 52.8396 33.3848 52.6006 33.3848C52.506 33.3848 52.417 33.4002 52.334 33.4307C52.2505 33.4613 52.1773 33.5138 52.1162 33.5889C52.0551 33.6641 52.0067 33.7644 51.9707 33.8896C51.9343 34.0148 51.916 34.1697 51.916 34.3535V35.0547C51.916 35.2383 51.9343 35.3932 51.9707 35.5186C52.0067 35.6437 52.0551 35.7443 52.1162 35.8193C52.1774 35.8946 52.2505 35.947 52.334 35.9775C52.4171 36.0082 52.5059 36.0234 52.6006 36.0234C52.8396 36.0234 53.0302 36.0179 53.1719 36.0068C53.3137 35.9957 53.4625 35.9825 53.6182 35.9658H53.6348C53.6792 35.9658 53.7165 35.9779 53.7471 36.0029C53.7775 36.028 53.7929 36.0628 53.793 36.1074V36.8506C53.793 36.9118 53.7798 36.9555 53.752 36.9805C53.7239 37.0056 53.6793 37.0263 53.6182 37.043C53.5014 37.0709 53.3493 37.0989 53.1631 37.127C52.9768 37.1545 52.7589 37.168 52.5088 37.168C51.919 37.168 51.4479 36.9871 51.0947 36.625C50.7416 36.2632 50.5654 35.7395 50.5654 35.0547V34.3535C50.5654 33.6687 50.7416 33.1449 51.0947 32.7832C51.4479 32.4212 51.9191 32.2402 52.5088 32.2402ZM56.3799 31.2803C56.4239 31.2803 56.46 31.2926 56.4873 31.3174C56.5152 31.3425 56.5293 31.3776 56.5293 31.4219V32.3076H57.2129C57.2571 32.3076 57.2967 32.3239 57.3301 32.3574C57.3633 32.391 57.3798 32.4309 57.3799 32.4756V33.1582C57.3798 33.2031 57.3631 33.2419 57.3301 33.2754C57.2966 33.309 57.2572 33.3262 57.2129 33.3262H56.5293V35.7568C56.5293 35.9237 56.5434 36.031 56.5713 36.0781C56.5991 36.1254 56.6768 36.1494 56.8047 36.1494H57.2129C57.3296 36.1494 57.3887 36.1962 57.3887 36.29V36.9365C57.3886 37.0302 57.3349 37.0853 57.2295 37.1016C57.1017 37.1237 56.9907 37.1403 56.8965 37.1514C56.8018 37.1625 56.6933 37.168 56.5713 37.168C56.3445 37.168 56.1438 37.1503 55.9697 37.1143C55.7955 37.078 55.6501 37.0062 55.5342 36.9004C55.4183 36.7946 55.3293 36.6484 55.2686 36.4619C55.208 36.2756 55.1778 36.0352 55.1777 35.7402V33.3184L54.5107 33.209C54.4661 33.1979 54.4258 33.1772 54.3896 33.1465C54.3535 33.116 54.335 33.0787 54.335 33.0342V32.4824C54.335 32.4381 54.3535 32.3975 54.3896 32.3613C54.4258 32.3254 54.4661 32.3076 54.5107 32.3076H55.1777V31.6221C55.1778 31.5777 55.1946 31.5415 55.2275 31.5137C55.2604 31.486 55.2995 31.4663 55.3438 31.4551L56.3555 31.2803H56.3799ZM26.4238 32.2402C26.724 32.2402 26.9704 32.2905 27.1621 32.3906C27.354 32.4907 27.5048 32.6261 27.6133 32.7959C27.7217 32.9658 27.7962 33.1667 27.8379 33.3975C27.8796 33.6284 27.9004 33.8754 27.9004 34.1367V36.918C27.9003 36.9622 27.8825 37.0022 27.8467 37.0381C27.8105 37.0743 27.7699 37.0928 27.7256 37.0928H26.7158C26.6714 37.0927 26.6327 37.0749 26.5996 37.0391C26.5662 37.003 26.5498 36.9625 26.5498 36.918V34.1436C26.5498 33.9991 26.541 33.8764 26.5244 33.7764C26.5078 33.6766 26.4771 33.596 26.4326 33.5352C26.3881 33.4738 26.3256 33.4303 26.2451 33.4053C26.1644 33.3801 26.0595 33.3682 25.9316 33.3682C25.8093 33.3682 25.6843 33.3933 25.5566 33.4434C25.4287 33.4933 25.2921 33.5571 25.1475 33.6348V36.918C25.1474 36.9625 25.1311 37.003 25.0977 37.0391C25.0645 37.0749 25.0257 37.0927 24.9814 37.0928H23.9717C23.9272 37.0928 23.8866 37.0743 23.8506 37.0381C23.8146 37.0022 23.797 36.9622 23.7969 36.918V32.4746C23.7969 32.4302 23.8132 32.3909 23.8467 32.3574C23.8799 32.324 23.9192 32.3076 23.9639 32.3076H24.8975C24.942 32.3076 24.9812 32.3248 25.0146 32.3584C25.0477 32.3919 25.0644 32.431 25.0645 32.4756V32.6777C25.2923 32.5152 25.5091 32.4014 25.7148 32.3369C25.9204 32.2724 26.157 32.2403 26.4238 32.2402ZM40.1211 32.2402C40.4212 32.2402 40.6675 32.2904 40.8594 32.3906C41.0511 32.4907 41.2011 32.6261 41.3096 32.7959C41.4182 32.9659 41.4934 33.1666 41.5352 33.3975C41.5765 33.6284 41.5977 33.8754 41.5977 34.1367V36.918C41.5975 36.9623 41.5789 37.0021 41.543 37.0381C41.5068 37.0743 41.4664 37.0928 41.4219 37.0928H40.4131C40.3686 37.0928 40.3293 37.0751 40.2959 37.0391C40.2625 37.003 40.2461 36.9625 40.2461 36.918V34.1436C40.2461 33.9992 40.2383 33.8764 40.2217 33.7764C40.2049 33.6766 40.1743 33.596 40.1299 33.5352C40.0854 33.4738 40.022 33.4302 39.9414 33.4053C39.8609 33.3802 39.7566 33.3682 39.6289 33.3682C39.5066 33.3682 39.3818 33.3933 39.2539 33.4434C39.1261 33.4933 38.9892 33.5571 38.8447 33.6348V36.918C38.8447 36.9625 38.8281 37.003 38.7949 37.0391C38.7615 37.0751 38.722 37.0928 38.6777 37.0928H37.6689C37.6243 37.0928 37.5841 37.0743 37.5479 37.0381C37.5118 37.0022 37.4933 36.9623 37.4932 36.918V32.4746C37.4932 32.4303 37.5098 32.3908 37.543 32.3574C37.5764 32.324 37.6157 32.3076 37.6602 32.3076H38.5947C38.639 32.3077 38.6779 32.3248 38.7109 32.3584C38.7444 32.392 38.7617 32.431 38.7617 32.4756V32.6777C38.9895 32.5152 39.2065 32.4014 39.4121 32.3369C39.6178 32.2725 39.8543 32.2402 40.1211 32.2402ZM20.9941 35.0469C20.8495 35.0469 20.7293 35.059 20.6348 35.084C20.5403 35.1091 20.4655 35.1472 20.4102 35.1973C20.3546 35.2471 20.3152 35.311 20.293 35.3887C20.2706 35.4667 20.2598 35.556 20.2598 35.6562V35.7314C20.2598 35.9094 20.3024 36.0241 20.3887 36.0742C20.4749 36.1243 20.6071 36.1494 20.7852 36.1494C20.913 36.1494 21.0343 36.1311 21.1484 36.0947C21.2619 36.0587 21.3689 36.0158 21.4688 35.9658V35.0469H20.9941ZM47.8877 35.0469C47.7431 35.0469 47.6229 35.059 47.5283 35.084C47.4339 35.1091 47.3591 35.1472 47.3037 35.1973C47.248 35.2471 47.2085 35.311 47.1865 35.3887C47.1642 35.4667 47.1533 35.556 47.1533 35.6562V35.7314C47.1533 35.9093 47.1961 36.0241 47.2822 36.0742C47.3685 36.1243 47.5007 36.1494 47.6787 36.1494C47.8065 36.1494 47.9277 36.1311 48.042 36.0947C48.1557 36.0587 48.2632 36.0159 48.3633 35.9658V35.0469H47.8877ZM34.5449 33.3926C34.3016 33.3926 34.1164 33.4778 33.9893 33.6475C33.8619 33.8174 33.7988 34.0725 33.7988 34.4121V34.9971C33.7989 35.3363 33.8621 35.5922 33.9893 35.7646C34.1164 35.9374 34.3016 36.0234 34.5449 36.0234C35.0369 36.0234 35.2831 35.6816 35.2832 34.9971V34.4121C35.2832 33.7328 35.037 33.3926 34.5449 33.3926ZM15.0215 35.9902H15.167C15.2309 35.9902 15.2976 35.9925 15.3672 35.9951C15.4366 35.9979 15.5034 35.999 15.5674 35.999H15.7051C16.1333 35.999 16.4297 35.9348 16.5938 35.8066C16.7577 35.6787 16.8398 35.4974 16.8398 35.2637V35.1719C16.8398 34.9715 16.7752 34.7979 16.6475 34.6504C16.5195 34.503 16.2887 34.4287 15.9551 34.4287H15.0215V35.9902ZM15.1504 31.9863C15.0922 31.9893 15.0492 31.9902 15.0215 31.9902V33.4346H15.9551C16.1217 33.4346 16.2598 33.417 16.3682 33.3809C16.4765 33.3448 16.5629 33.2974 16.627 33.2393C16.6908 33.1805 16.7368 33.1108 16.7646 33.0303C16.7925 32.9497 16.8066 32.8644 16.8066 32.7754V32.6494C16.8066 32.4213 16.7213 32.253 16.5518 32.1445C16.3822 32.036 16.0833 31.9815 15.6553 31.9814H15.334C15.2701 31.9814 15.2088 31.9836 15.1504 31.9863Z" fill="#005697"/>
<path d="M52.6187 14.7402H39.0664L37.6881 16.2939L33.2155 21.3353V21.3355L31.8372 22.889H18.464L19.821 21.3157L20.4633 20.5711L21.8202 18.9978H15.6582C14.5325 18.9978 13.6113 19.9434 13.6113 21.0991V25.533C13.6113 26.6889 14.5325 27.6346 15.6582 27.6346H39.2492C40.3749 27.6346 41.9127 26.9322 42.6665 26.0738L46.235 22.0101L52.6187 14.7402Z" fill="#005697"/>
<path d="M55.3418 10C56.4676 10 57.3887 10.9457 57.3887 12.1015V16.5353C57.3887 17.691 56.4676 18.6368 55.3418 18.6368H49.1999L50.5697 17.0753H50.5699L51.2491 16.3012L52.6189 14.7398H39.0667L31.8375 22.8945H18.3813L28.0314 11.9701L28.3966 11.5566C29.153 10.7005 30.6929 10 31.8186 10H55.3418V10Z" fill="#FBD500"/>
</svg>
