<svg width="70" height="48" viewBox="0 0 70 48" fill="none" xmlns="http://www.w3.org/2000/svg">
<rect x="0.5" y="0.5" width="69" height="47" rx="5.5" fill="white" stroke="#D9D9D9"/>
<path d="M35.6838 9.91211C47.0029 9.91211 51.3528 16.098 51.3528 23.917C51.3528 33.27 45.2729 37.9717 35.6838 37.9717H19.0266V9.91211H35.6838ZM20.6086 36.3877H35.6838C44.7785 36.3877 49.7218 32.1319 49.7219 23.9668C49.7219 15.554 44.3832 11.5947 35.6838 11.5947H20.6086V36.3877ZM27.4788 34.3086H22.635V25.6982H27.4788V34.3086ZM25.0559 18.374C26.7209 18.374 28.0713 19.7256 28.0715 21.3926C28.0715 23.0598 26.7211 24.4111 25.0559 24.4111C23.3911 24.4106 22.0413 23.0595 22.0413 21.3926C22.0415 19.7259 23.3913 18.3745 25.0559 18.374Z" fill="black"/>
<path d="M35.6841 13.5254C41.1211 13.5254 47.1022 15.2079 47.646 22.7793H45.6187V18.623H44.2349V24.165H47.6948C47.5465 30.2024 44.5317 34.3095 35.6841 34.3096H29.9009V24.165H30.7905C32.3228 24.165 33.2622 23.1256 33.2622 21.3936C33.2621 19.6617 32.3223 18.623 30.7407 18.623H29.9009V13.5254H35.6841ZM34.1021 24.165H37.562V22.7793H35.5356V22.0371H37.3647V20.6514H35.4858V20.0078H37.4634V18.623H34.1021V24.165ZM38.1548 24.165H39.6382L39.9351 23.126H41.7632L42.0601 24.165H43.4937L41.813 18.623H39.8354L38.1548 24.165ZM30.7407 20.0078C31.2844 20.0078 31.8783 20.1567 31.8784 21.3936C31.8784 22.6307 31.3339 22.7793 30.7407 22.7793H29.9009V20.0078H30.7407ZM40.3306 21.7402V21.6904H40.3462L40.3306 21.7402ZM41.3188 21.6904H40.3462L40.8247 20.1562H40.8735L41.3188 21.6904Z" fill="#D50072"/>
</svg>
