<svg width="70" height="48" viewBox="0 0 70 48" fill="none" xmlns="http://www.w3.org/2000/svg">
<rect x="0.5" y="0.5" width="69" height="47" rx="5.5" fill="white" stroke="#D9D9D9"/>
<path d="M26.5422 10.4473C34.0795 10.4473 40.1895 16.6282 40.1897 24.2529C40.1897 31.8778 34.0796 38.0596 26.5422 38.0596C19.0049 38.0595 12.8948 31.8777 12.8948 24.2529C12.8949 16.6283 19.005 10.4473 26.5422 10.4473Z" fill="#ED0006"/>
<path d="M44.2471 10.4473C51.7843 10.4473 57.8944 16.6282 57.8945 24.2529C57.8945 31.8778 51.7844 38.0596 44.2471 38.0596C36.7098 38.0595 30.5996 31.8777 30.5996 24.2529C30.5998 16.6283 36.7099 10.4473 44.2471 10.4473Z" fill="#0099DF"/>
<path d="M35.3948 13.7461C38.3292 16.2784 40.1897 20.0463 40.1897 24.2539C40.1897 28.4613 38.3289 32.2285 35.3948 34.7607C32.4607 32.2285 30.5999 28.4612 30.5999 24.2539C30.5999 20.0463 32.4605 16.2784 35.3948 13.7461Z" fill="#6C6BBD"/>
</svg>
