<svg width="70" height="48" viewBox="0 0 70 48" fill="none" xmlns="http://www.w3.org/2000/svg">
<rect x="0.5" y="0.5" width="69" height="47" rx="5.5" fill="white" stroke="#D9D9D9"/>
<path fill-rule="evenodd" clip-rule="evenodd" d="M19.8 30.4824H16.6888C16.4759 30.4824 16.2948 30.6372 16.2616 30.8473L15.0033 38.8254C14.9783 38.9829 15.1002 39.1248 15.2599 39.1248H16.7452C16.9581 39.1248 17.1392 38.97 17.1724 38.7595L17.5118 36.6077C17.5445 36.397 17.726 36.2424 17.9385 36.2424H18.9234C20.9729 36.2424 22.1556 35.2506 22.4647 33.2854C22.6038 32.4256 22.4705 31.75 22.0678 31.2767C21.6257 30.7574 20.8413 30.4824 19.8 30.4824ZM20.159 33.3963C19.9889 34.5127 19.1358 34.5127 18.3111 34.5127H17.8416L18.1709 32.4277C18.1905 32.3018 18.2997 32.209 18.4271 32.209H18.6422C19.2041 32.209 19.7341 32.209 20.008 32.5292C20.1712 32.7203 20.2213 33.0041 20.159 33.3963ZM29.1002 33.3605H27.6103C27.4834 33.3605 27.3737 33.4534 27.3541 33.5795L27.2882 33.9961L27.184 33.8452C26.8615 33.377 26.1423 33.2205 25.4244 33.2205C23.7779 33.2205 22.3718 34.4675 22.0979 36.2168C21.9556 37.0892 22.1579 37.9235 22.6529 38.5054C23.107 39.0403 23.7567 39.2633 24.5295 39.2633C25.856 39.2633 26.5918 38.4102 26.5918 38.4102L26.5253 38.8243C26.5002 38.9827 26.6221 39.1245 26.7809 39.1245H28.123C28.3365 39.1245 28.5165 38.9698 28.5501 38.7593L29.3554 33.6599C29.3809 33.5031 29.2594 33.3605 29.1002 33.3605ZM27.0234 36.2603C26.8796 37.1115 26.204 37.6829 25.3426 37.6829C24.9099 37.6829 24.564 37.5441 24.3421 37.2812C24.1219 37.0201 24.0381 36.6483 24.1082 36.2344C24.2425 35.3904 24.9295 34.8005 25.7779 34.8005C26.2009 34.8005 26.5449 34.941 26.7714 35.2062C26.9983 35.4742 27.0885 35.8481 27.0234 36.2603ZM35.5379 33.3603H37.0352C37.2449 33.3603 37.3672 33.5955 37.2481 33.7675L32.2685 40.9553C32.1878 41.0717 32.055 41.141 31.9131 41.141H30.4177C30.2072 41.141 30.0842 40.9039 30.2061 40.7315L31.7567 38.5429L30.1076 33.7033C30.0506 33.5351 30.1748 33.3603 30.3537 33.3603H31.8249C32.016 33.3603 32.1847 33.4858 32.2398 33.6687L33.115 36.5917L35.1801 33.55C35.2609 33.4313 35.3952 33.3603 35.5379 33.3603Z" fill="#253B80"/>
<path fill-rule="evenodd" clip-rule="evenodd" d="M51.7708 38.8258L53.0476 30.7018C53.0672 30.5757 53.1765 30.4828 53.3034 30.4824H54.7409C54.8996 30.4824 55.0215 30.6247 54.9965 30.7822L53.7373 38.7599C53.7045 38.9704 53.5234 39.1252 53.3102 39.1252H52.0264C51.8676 39.1252 51.7457 38.9833 51.7708 38.8258ZM41.992 30.4828H38.8802C38.6678 30.4828 38.4867 30.6376 38.4535 30.8477L37.1952 38.8258C37.1701 38.9833 37.292 39.1252 37.451 39.1252H39.0476C39.196 39.1252 39.323 39.017 39.3461 38.8696L39.7032 36.6081C39.736 36.3974 39.9175 36.2429 40.1299 36.2429H41.1143C43.1642 36.2429 44.3468 35.2511 44.656 33.2858C44.7956 32.426 44.6615 31.7504 44.259 31.2772C43.8171 30.7578 43.0333 30.4828 41.992 30.4828ZM42.351 33.3967C42.1813 34.5132 41.3282 34.5132 40.503 34.5132H40.0339L40.3638 32.4281C40.3834 32.3022 40.4916 32.2094 40.6194 32.2094H40.8345C41.396 32.2094 41.9265 32.2094 42.2002 32.5296C42.3636 32.7207 42.4133 33.0045 42.351 33.3967ZM51.2914 33.361H49.8026C49.6746 33.361 49.5659 33.4538 49.5468 33.5799L49.4809 33.9965L49.3763 33.8456C49.0537 33.3774 48.335 33.221 47.6171 33.221C45.9706 33.221 44.5649 34.4679 44.291 36.2172C44.1491 37.0896 44.3506 37.9239 44.8455 38.5058C45.3005 39.0408 45.9493 39.2637 46.7221 39.2637C48.0487 39.2637 48.7842 38.4107 48.7842 38.4107L48.7179 38.8248C48.6929 38.9831 48.8148 39.125 48.9746 39.125H50.316C50.5285 39.125 50.7095 38.9702 50.7428 38.7597L51.5485 33.6603C51.5731 33.5035 51.4512 33.361 51.2914 33.361ZM49.2148 36.2608C49.0718 37.1119 48.3954 37.6833 47.5337 37.6833C47.1019 37.6833 46.7554 37.5445 46.5333 37.2816C46.3131 37.0205 46.2303 36.6488 46.2996 36.2349C46.4346 35.3909 47.1207 34.801 47.9691 34.801C48.3922 34.801 48.736 34.9414 48.9628 35.2066C49.1906 35.4746 49.2807 35.8485 49.2148 36.2608Z" fill="#179BD7"/>
<path d="M31.314 27.6276L31.6966 25.1981L30.8446 25.1784H26.7761L29.6035 7.25069C29.6121 7.19656 29.6408 7.1461 29.6824 7.11027C29.7241 7.07444 29.7776 7.05469 29.8332 7.05469H36.6932C38.9707 7.05469 40.5423 7.5286 41.3629 8.464C41.7475 8.90282 41.9926 9.36137 42.1111 9.866C42.2353 10.3955 42.2376 11.0281 42.1162 11.7997L42.1073 11.856V12.3504L42.4922 12.5684C42.8162 12.7402 43.0734 12.937 43.2709 13.1622C43.6002 13.5374 43.813 14.0142 43.9029 14.5796C43.9957 15.161 43.965 15.8529 43.813 16.6361C43.6374 17.5372 43.3536 18.3219 42.9705 18.964C42.6178 19.5557 42.1688 20.0463 41.6357 20.4268C41.1267 20.788 40.5218 21.0623 39.838 21.2379C39.1753 21.4103 38.4199 21.4975 37.5913 21.4975H37.0574C36.6757 21.4975 36.3048 21.635 36.0138 21.8815C35.722 22.1331 35.5288 22.4767 35.4696 22.8527L35.4294 23.0714L34.7536 27.3533L34.7229 27.5106C34.7149 27.5605 34.701 27.5853 34.6806 27.6021C34.6622 27.6173 34.6359 27.6276 34.6102 27.6276H31.314Z" fill="#253B80"/>
<path d="M42.8563 11.9141C42.8358 12.045 42.8125 12.1788 42.7862 12.3163C41.8813 16.9611 38.7864 18.5657 34.8333 18.5657H32.8207C32.3373 18.5657 31.9299 18.9168 31.8545 19.3936L30.824 25.929L30.5322 27.7815C30.4832 28.0945 30.7247 28.3768 31.0404 28.3768H34.6103C35.0331 28.3768 35.392 28.0697 35.4586 27.6528L35.4937 27.4714L36.1659 23.2061L36.2091 22.9722C36.2748 22.5539 36.6346 22.2467 37.0573 22.2467H37.5912C41.0497 22.2467 43.7573 20.8425 44.5487 16.779C44.8792 15.0815 44.7081 13.6642 43.8333 12.6673C43.5687 12.3668 43.2403 12.1174 42.8563 11.9141Z" fill="#179BD7"/>
<path d="M41.9096 11.5376C41.7715 11.4974 41.6288 11.4608 41.4825 11.4279C41.3355 11.3957 41.1848 11.3672 41.0298 11.3423C40.4871 11.2546 39.8926 11.2129 39.2555 11.2129H33.8787C33.7463 11.2129 33.6206 11.2429 33.5079 11.297C33.2599 11.4162 33.0757 11.651 33.0311 11.9384L31.8871 19.1832L31.8542 19.3945C31.9296 18.9177 32.337 18.5666 32.8204 18.5666H34.833C38.7861 18.5666 41.8812 16.9613 42.7859 12.3172C42.8128 12.1797 42.8355 12.0459 42.856 11.915C42.6271 11.7936 42.3791 11.6897 42.1122 11.6012C42.0465 11.5793 41.9785 11.5581 41.9096 11.5376Z" fill="#222D65"/>
<path d="M33.0311 11.9373C33.0758 11.6499 33.2602 11.4151 33.508 11.2967C33.6215 11.2425 33.7465 11.2125 33.8787 11.2125H39.2558C39.8928 11.2125 40.4874 11.2542 41.0299 11.342C41.185 11.3669 41.3358 11.3954 41.4827 11.4276C41.629 11.4605 41.7716 11.4971 41.9099 11.5373C41.9785 11.5577 42.0465 11.5789 42.1131 11.6002C42.38 11.6887 42.628 11.7932 42.8568 11.9139C43.1261 10.1974 42.8547 9.02873 41.9267 7.97046C40.9036 6.80542 39.0568 6.30664 36.6939 6.30664H29.8337C29.3509 6.30664 28.9393 6.65767 28.8646 7.13525L26.0073 25.2472C25.9509 25.6055 26.2273 25.9289 26.5886 25.9289H30.824L31.8873 19.1821L33.0311 11.9373Z" fill="#253B80"/>
</svg>
