<svg width="70" height="48" viewBox="0 0 70 48" fill="none" xmlns="http://www.w3.org/2000/svg">
<rect x="0.5" y="0.5" width="69" height="47" rx="5.5" fill="white" stroke="#D9D9D9"/>
<path d="M16.3545 16.5889C19.0759 16.5889 20.5429 17.0116 21.8066 17.4512L21.8701 17.4707V21.0752L21.8223 21.0625C21.3215 20.8517 20.7345 20.6448 20.7197 20.6396C19.6493 20.3207 18.1522 19.9805 16.9951 19.9805C16.3373 19.9805 14.5842 19.9809 14.584 21.2969C14.584 22.3876 15.8022 22.4672 16.3281 22.501C20.1855 22.7583 22.4844 24.6369 22.4844 27.5273C22.4841 30.0774 20.4284 32.6494 15.8428 32.6494C13.7166 32.6494 11.902 32.4406 10.293 32.0195V28.3076C11.3675 28.7472 13.1382 29.209 14.9619 29.209C16.6262 29.209 17.6162 28.6614 17.6162 27.7305C17.6162 26.6032 16.4068 26.5337 15.9502 26.5059C10.5786 26.1418 10 22.9798 10 21.6377C10.0001 19.307 11.6628 16.5889 16.3545 16.5889ZM27.8262 24.8896C29.4387 22.9494 30.104 21.0767 30.1963 20.8438H35.1094C34.9694 21.2888 34.092 23.9731 32.0938 26.4941C32.0938 26.4941 34.3194 30.3738 34.8281 32.4785H29.6846C29.6771 32.4447 29.0623 29.6734 27.8262 27.8281V32.4785H23.5312V17.4346L27.8262 16.5889V24.8896ZM41.4873 20.6865C41.4873 20.6865 42.1818 20.6603 42.5918 20.7471V24.1436C40.1546 24.2272 39.8857 25.1036 39.8857 27.1465V32.4785H35.6885V25.9404C35.6886 22.5272 37.6424 20.81 41.4873 20.6865ZM47.9971 32.4785H43.8359V20.8564H47.9971V32.4785ZM53.9209 32.4785H49.7607V17.3301L53.9209 16.5889V32.4785ZM60 32.4785H55.8369V17.3301L60 16.5889V32.4785ZM45.915 15.6602C47.0488 15.6602 47.9678 16.5749 47.9678 17.7021C47.9676 18.8299 47.0487 19.7422 45.915 19.7422C44.7834 19.7421 43.8644 18.8299 43.8643 17.7021C43.8643 16.5749 44.7833 15.6602 45.915 15.6602Z" fill="#862165"/>
</svg>
