<svg width="70" height="48" viewBox="0 0 70 48" fill="none" xmlns="http://www.w3.org/2000/svg">
<rect x="0.5" y="0.5" width="69" height="47" rx="5.5" fill="#F884A1" stroke="#D9D9D9"/>
<path d="M22.6697 33.1668C23.5593 33.1668 24.3829 33.583 24.7488 34.3895L23.5759 35.1287C23.3515 34.7632 23.0441 34.5224 22.6287 34.5223C22.1381 34.5223 21.8298 34.8551 21.8298 35.2791C21.8303 35.7856 22.2793 35.9445 22.9939 36.1522C24.1162 36.4848 25.0309 37.0414 25.031 38.3299C25.0308 39.7182 23.9502 40.6668 22.5369 40.6668C21.5476 40.6668 20.6994 40.2176 20.1755 39.5028L21.1482 38.5301C21.4392 38.9041 21.9218 39.3113 22.5535 39.3114C23.1436 39.3114 23.5513 38.9614 23.5515 38.3963C23.5513 37.7981 23.0686 37.6486 22.3123 37.4325C20.9241 37.0251 20.3584 36.3013 20.3582 35.3621C20.3582 34.1815 21.2563 33.167 22.6697 33.1668ZM28.2488 35.3621C29.7454 35.3621 30.9597 36.5594 30.9597 38.0145C30.9594 39.4693 29.7452 40.6668 28.2488 40.6668C26.7524 40.6668 25.5382 39.4692 25.5378 38.0145C25.5378 36.5594 26.7522 35.3622 28.2488 35.3621ZM37.5447 35.3621C39.0413 35.3622 40.2556 36.5595 40.2556 38.0145C40.2553 39.4692 39.0411 40.6668 37.5447 40.6668C36.0483 40.6668 34.8341 39.4693 34.8337 38.0145C34.8337 36.5594 36.048 35.3621 37.5447 35.3621ZM49.0525 38.7215C49.5761 38.7217 49.9997 39.1535 49.9998 39.6688C49.9995 40.1923 49.5677 40.6168 49.0525 40.617C48.5288 40.617 48.1045 40.1924 48.1042 39.6688C48.1043 39.145 48.5287 38.7215 49.0525 38.7215ZM46.0007 34.6805C46.0012 35.3619 46.5584 35.8778 47.323 35.8944V37.2323C46.7579 37.2323 46.3167 37.0665 46.0007 36.7342V37.9647C46.001 38.8454 46.5745 39.2366 47.364 39.2118V40.5418H47.156C45.4271 40.5417 44.5879 39.3943 44.5876 38.0477V33.8905H46.0007V34.6805ZM34.4597 34.5887C33.6699 34.5555 33.0965 34.9545 33.0964 35.8358V36.3768C33.4124 36.0442 33.8616 35.8778 34.4187 35.8778V37.2245C33.6371 37.2411 33.0965 37.7399 33.0964 38.4383V40.534H31.6824V35.7528C31.6824 34.4059 32.5307 33.2587 34.2517 33.2586H34.4597V34.5887ZM43.7722 36.9412C42.9241 36.9413 42.4333 37.4076 42.4333 38.2391V40.534H41.0203V35.5037H42.3923V36.077C42.675 35.6198 43.1321 35.4036 43.7722 35.4286V36.9412ZM28.2488 36.6922C27.5171 36.6922 26.9509 37.2662 26.9509 38.0145C26.9513 38.7708 27.5256 39.3368 28.2488 39.3368C28.9718 39.3366 29.5453 38.7624 29.5457 38.0145C29.5457 37.2663 28.972 36.6924 28.2488 36.6922ZM37.5447 36.6922C36.8213 36.6922 36.2478 37.2662 36.2478 38.0145C36.2481 38.7708 36.8215 39.3368 37.5447 39.3368C38.2761 39.3367 38.8412 38.7624 38.8416 38.0145C38.8416 37.2662 38.268 36.6923 37.5447 36.6922ZM38.4763 8.3309C38.784 7.15022 39.9899 6.45149 41.1873 6.75082C42.2595 7.06703 42.8995 8.15646 42.6667 9.23715L40.7312 18.8709L41.5613 19.0643C41.8024 19.0976 42.1185 19.2474 42.4177 19.5633C42.9581 20.137 43.2157 21.0934 43.0994 22.4901C42.731 26.911 40.5809 29.8221 35.6892 29.8709C35.65 29.8821 35.6091 29.8904 35.5662 29.8905C31.9559 29.8903 28.8957 27.2539 28.8025 23.4901L27.9832 22.6737C26.9771 21.6676 26.8192 20.262 27.6257 19.4305L27.7087 19.3397C28.055 18.985 28.5104 18.791 28.9763 18.7655C28.414 17.6575 28.5895 16.4418 29.4636 15.8465L29.5876 15.7635C30.5471 15.2079 31.3739 15.4271 32.0828 16.1346L31.2673 9.43637C30.993 8.27233 31.7079 6.99241 32.8054 6.75961C33.3625 6.64324 33.9526 6.75129 34.4265 7.06723C34.9002 7.38313 35.2334 7.87318 35.3416 8.42172L36.7224 14.3329L38.4763 8.3309ZM35.99 18.6991C35.7073 18.6492 35.4162 18.6409 35.1501 18.6991C34.7429 18.7906 34.4853 19.0149 34.3523 19.4471C34.1741 20.041 34.1924 20.4914 34.575 20.8534C34.6618 20.8879 34.7318 20.946 34.781 21.0184C35.0435 21.1936 35.4134 21.347 35.9158 21.4842L39.366 22.2577C39.9396 22.3907 39.7569 23.2463 39.1833 23.1385L39.075 23.1219C38.6426 23.0803 38.1519 23.1138 37.7029 23.2801C36.8632 23.5961 36.3397 24.3199 36.2732 25.6668C36.2564 25.9161 36.0479 26.099 35.7986 26.0907C35.5495 26.0739 35.3584 25.8662 35.3748 25.617C35.4413 24.1287 36.0236 23.1555 36.9548 22.6317L35.699 22.3407C35.2649 22.223 34.9004 22.0814 34.5964 21.9227C34.4509 22.1518 34.2632 22.3524 34.0369 22.5067L33.9363 22.5731C33.8788 22.6119 33.8192 22.6464 33.7595 22.6786C34.1635 23.433 34.058 24.3873 33.4373 25.035L33.3464 25.1258C32.5649 25.9239 31.2926 25.9409 30.4861 25.1678L29.8123 24.4969C30.3505 27.1422 32.6759 28.9266 35.4197 28.9881C35.4351 28.9866 35.4507 28.9842 35.4666 28.9842C39.973 29.0257 41.8688 26.4978 42.2097 22.4237C42.3095 21.2597 42.1097 20.5527 41.7605 20.1786C41.6692 20.0872 41.5779 20.0204 41.4949 19.9871L41.3943 19.9539L36.157 18.7323C36.132 18.724 36.0731 18.7157 35.99 18.6991ZM29.6707 19.8495C29.2655 19.5667 28.7027 19.6099 28.3572 19.9715L28.2742 20.0623C27.8418 20.5113 27.9337 21.3595 28.6238 22.0496L31.1179 24.5194C31.5586 24.9515 32.2657 24.9434 32.698 24.5028L32.781 24.411C33.1855 23.9984 33.2033 23.3532 32.8425 22.9178C32.1854 22.9289 31.536 22.6192 31.1345 22.033L29.6707 19.8495ZM31.8582 17.2684C31.2846 16.4289 30.7272 16.1383 30.0623 16.5204L29.9705 16.5868C29.455 16.9443 29.3886 17.7925 29.9207 18.6073L31.8826 21.5262C32.2319 22.0414 32.9307 22.1742 33.446 21.825L33.5457 21.7674C33.6838 21.677 33.7968 21.5514 33.8787 21.408C33.3877 20.9043 33.2672 20.2827 33.4011 19.5731L32.4031 18.0829C32.3747 18.0518 32.3514 18.0165 32.3328 17.9784L31.8582 17.2684ZM40.946 7.61508C40.2478 7.44053 39.533 7.8647 39.3416 8.57113L37.1042 16.2381C37.0376 16.4787 36.7884 16.6118 36.5476 16.5457C36.3585 16.4936 36.2364 16.3284 36.2244 16.1434L34.4597 8.60531C34.3932 8.28111 34.2018 7.9982 33.9275 7.81527C33.6532 7.63245 33.3122 7.574 32.988 7.64047C32.4062 7.7653 31.9738 8.54669 32.1482 9.24496L32.157 9.29477L33.1638 17.6024L33.7976 18.5487C34.0744 18.1643 34.4743 17.925 34.9509 17.8172C35.35 17.7341 35.7574 17.7429 36.1482 17.8094C36.2642 17.826 36.3471 17.8508 36.3806 17.8592L39.8562 18.6668L41.7859 9.05355C41.9187 8.42191 41.5443 7.79816 40.946 7.61508Z" fill="white"/>
</svg>
