<svg width="70" height="48" viewBox="0 0 70 48" fill="none" xmlns="http://www.w3.org/2000/svg">
<rect x="0.5" y="0.5" width="69" height="47" rx="5.5" fill="white" stroke="#D9D9D9"/>
<path d="M21.6555 10.002H32.687C34.2269 10.002 35.1847 11.2571 34.8255 12.8021L29.6895 34.8529C29.327 36.3925 27.7853 37.6487 26.2443 37.6487H15.2138C13.676 37.6487 12.7161 36.3925 13.0754 34.8529L18.2135 12.8021C18.5727 11.2571 20.1137 10.002 21.6555 10.002Z" fill="#E21836"/>
<path d="M31.7686 10H44.4546C45.9942 10 45.2999 11.2552 44.9378 12.8002L39.8026 34.8509C39.4423 36.3905 39.5547 37.6468 38.0118 37.6468H25.3258C23.7829 37.6468 22.8281 36.3905 23.1906 34.8509L28.3255 12.8002C28.6901 11.2552 30.2278 10 31.7686 10Z" fill="#00447C"/>
<path d="M43.9516 10H54.9832C56.5253 10 57.483 11.2552 57.1208 12.8002L51.9857 34.8509C51.6232 36.3905 50.0803 37.6468 48.5386 37.6468H37.5121C35.9692 37.6468 35.0123 36.3905 35.3737 34.8509L40.5096 12.8002C40.8689 11.2552 42.4088 10 43.9516 10Z" fill="#007B84"/>
<path d="M24.5361 17.0663C23.4017 17.0778 23.0666 17.0663 22.9596 17.041C22.9185 17.2365 22.1529 20.7678 22.1508 20.7707C21.986 21.4851 21.866 21.9944 21.4587 22.3233C21.2274 22.5144 20.9575 22.6067 20.6445 22.6067C20.1414 22.6067 19.8483 22.3569 19.7991 21.8831L19.7897 21.7204C19.7897 21.7204 19.943 20.7634 19.943 20.7581C19.943 20.7581 20.7464 17.5401 20.8903 17.1147C20.8978 17.0905 20.8999 17.0778 20.9018 17.0663C19.338 17.08 19.0608 17.0663 19.0417 17.041C19.0312 17.0757 18.9925 17.2752 18.9925 17.2752L18.1721 20.9022L18.1017 21.2098L17.9653 22.216C17.9653 22.5144 18.0239 22.758 18.1406 22.964C18.5144 23.6171 19.5805 23.715 20.1836 23.715C20.9607 23.715 21.6897 23.5499 22.1823 23.2485C23.0373 22.7433 23.261 21.9535 23.4605 21.2517L23.553 20.8917C23.553 20.8917 24.3807 17.5495 24.5213 17.1147C24.5267 17.0905 24.5288 17.0778 24.5361 17.0663ZM27.352 19.7625C27.1525 19.7625 26.7879 19.8109 26.4604 19.9714C26.3416 20.0325 26.2292 20.1029 26.1106 20.1731L26.2176 19.7867L26.159 19.7216C25.4645 19.8623 25.309 19.8811 24.6675 19.9714L24.6137 20.0072C24.5392 20.6248 24.4731 21.0892 24.1969 22.3032C24.0918 22.7506 23.9826 23.2023 23.8732 23.6487L23.9028 23.7054C24.5602 23.6707 24.7597 23.6707 25.3311 23.6802L25.3773 23.6299C25.4499 23.258 25.4594 23.1709 25.6201 22.4177C25.6957 22.0607 25.8533 21.2761 25.931 20.9967C26.0738 20.9305 26.2146 20.8655 26.3491 20.8655C26.6693 20.8655 26.6303 21.1448 26.618 21.2562C26.6043 21.443 26.4876 22.0534 26.3679 22.5775L26.2881 22.9157C26.2324 23.1655 26.1714 23.4083 26.1157 23.656L26.1399 23.7054C26.7879 23.6707 26.9855 23.6707 27.5389 23.6802L27.604 23.6299C27.704 23.0491 27.7333 22.8937 27.9108 22.048L28 21.6595C28.1735 20.8991 28.2606 20.5135 28.1294 20.1994C27.9906 19.8475 27.6578 19.7625 27.352 19.7625ZM30.4978 20.5586C30.1533 20.6248 29.9337 20.6689 29.7153 20.6974C29.4989 20.7321 29.2878 20.7635 28.9549 20.8098L28.9286 20.8337L28.9044 20.8528C28.8697 21.1007 28.8455 21.315 28.7995 21.567C28.7605 21.8275 28.7005 22.1236 28.6029 22.5489C28.5274 22.8745 28.4884 22.988 28.4454 23.1026C28.4034 23.2171 28.3572 23.3284 28.2722 23.6487L28.2921 23.6782L28.3088 23.7054C28.6199 23.6906 28.8234 23.6801 29.0326 23.6782C29.2415 23.6707 29.458 23.6782 29.793 23.6801L29.8223 23.6562L29.8538 23.6298C29.9022 23.3411 29.9095 23.2634 29.939 23.1225C29.9683 22.9713 30.0189 22.7622 30.1428 22.2034C30.2015 21.941 30.2668 21.6794 30.3276 21.4115C30.3908 21.1448 30.4569 20.8821 30.5198 20.6197L30.5104 20.5879L30.4978 20.5586ZM30.5051 19.4852C30.1921 19.3005 29.6428 19.3591 29.2731 19.6143C28.9044 19.8643 28.8625 20.2193 29.1744 20.4064C29.482 20.586 30.0335 20.5325 30.4 20.2752C30.7678 20.0197 30.8138 19.668 30.5051 19.4852ZM32.3979 23.7633C33.0312 23.7633 33.6802 23.5888 34.1688 23.0709C34.5447 22.6509 34.7171 22.026 34.7768 21.7687C34.9712 20.9158 34.8198 20.5176 34.6297 20.275C34.3409 19.9053 33.8306 19.7868 33.3011 19.7868C32.9828 19.7868 32.2245 19.8182 31.6321 20.3643C31.2068 20.7582 31.0102 21.2928 30.8916 21.8053C30.772 22.3274 30.6343 23.2675 31.4988 23.6173C31.7655 23.7318 32.15 23.7633 32.3979 23.7633ZM32.3485 21.8443C32.4945 21.1984 32.6668 20.6563 33.1067 20.6563C33.4514 20.6563 33.4764 21.0597 33.3232 21.7077C33.2957 21.8515 33.1699 22.3863 32.9997 22.6141C32.8808 22.7821 32.7402 22.884 32.5848 22.884C32.5386 22.884 32.2635 22.884 32.2592 22.4756C32.257 22.2739 32.2982 22.068 32.3485 21.8443ZM36.3597 23.6802L36.4092 23.63C36.4793 23.2581 36.4909 23.1707 36.6463 22.4178C36.724 22.0607 36.8848 21.2761 36.9604 20.9968C37.1034 20.9303 37.2419 20.8653 37.3806 20.8653C37.6987 20.8653 37.66 21.1446 37.6474 21.256C37.6358 21.4431 37.5191 22.0532 37.3973 22.5773L37.3218 22.9155C37.2639 23.1656 37.201 23.4081 37.1454 23.656L37.1696 23.7055C37.8197 23.6708 38.0098 23.6708 38.5664 23.6802L38.6336 23.63C38.7313 23.0489 38.7576 22.8935 38.9404 22.0481L39.0276 21.6593C39.2018 20.8989 39.29 20.5136 39.1609 20.1995C39.0182 19.8475 38.6831 19.7626 38.3817 19.7626C38.1819 19.7626 37.8154 19.8107 37.4898 19.9715C37.3734 20.0325 37.2567 20.1027 37.1421 20.1732L37.2419 19.7868L37.1884 19.7214C36.4941 19.8623 36.3355 19.8812 35.6947 19.9715L35.6455 20.0073C35.5678 20.6249 35.5046 21.089 35.2285 22.3033C35.1234 22.7507 35.0142 23.2024 34.905 23.6488L34.9343 23.7055C35.5928 23.6708 35.7894 23.6708 36.3597 23.6802ZM41.1366 23.7054C41.1774 23.5059 41.4202 22.3233 41.4224 22.3233C41.4224 22.3233 41.6292 21.4556 41.6418 21.4242C41.6418 21.4242 41.7069 21.3338 41.7719 21.298H41.8677C42.7709 21.298 43.7907 21.298 44.5901 20.71C45.1341 20.3067 45.506 19.7111 45.6719 18.9872C45.7149 18.8098 45.7466 18.5987 45.7466 18.3876C45.7466 18.1104 45.6909 17.8361 45.5301 17.6218C45.1225 17.0515 44.3108 17.0411 43.3737 17.0368C43.3707 17.0368 42.9117 17.0411 42.9117 17.0411C41.7123 17.0558 41.2312 17.0515 41.0336 17.0273C41.0169 17.1147 40.9855 17.2701 40.9855 17.2701C40.9855 17.2701 40.5558 19.2615 40.5558 19.2647C40.5558 19.2647 39.5276 23.4986 39.4792 23.6981C40.5265 23.6855 40.9559 23.6855 41.1366 23.7054ZM41.9327 20.1679C41.9327 20.1679 42.3896 18.1806 42.3874 18.1881L42.4022 18.0862L42.4087 18.0085L42.5912 18.0273C42.5912 18.0273 43.5334 18.1083 43.5555 18.1104C43.9273 18.2543 44.0806 18.6251 43.9736 19.1091C43.876 19.5514 43.5891 19.9232 43.2204 20.1029C42.9169 20.255 42.545 20.2677 42.1618 20.2677H41.9139L41.9327 20.1679ZM44.7771 21.8811C44.6564 22.3957 44.5176 23.3357 45.3778 23.6708C45.6521 23.7875 45.8978 23.8222 46.1476 23.8095C46.4114 23.7953 46.6558 23.663 46.8822 23.4726C46.8618 23.5508 46.8413 23.6291 46.8209 23.7076L46.8599 23.7579C47.4786 23.7318 47.6706 23.7318 48.3409 23.7369L48.4017 23.6907C48.4996 23.1153 48.5918 22.5565 48.8462 21.4557C48.9701 20.9284 49.0938 20.4062 49.221 19.8811L49.2011 19.8233C48.509 19.9516 48.324 19.979 47.6582 20.0734L47.6077 20.1145C47.6009 20.168 47.594 20.2194 47.5875 20.2707C47.484 20.1035 47.3339 19.9607 47.1024 19.8717C46.8064 19.7553 46.1111 19.9053 45.5133 20.4495C45.0933 20.8381 44.8917 21.3705 44.7771 21.8811ZM46.2307 21.9125C46.3789 21.2782 46.5491 20.7415 46.99 20.7415C47.2689 20.7415 47.4157 20.9989 47.3858 21.4377C47.3622 21.5471 47.3366 21.6625 47.3062 21.7929C47.2621 21.9814 47.2143 22.1682 47.1678 22.3554C47.1204 22.4834 47.0653 22.6041 47.0048 22.6845C46.8914 22.8453 46.6214 22.945 46.466 22.945C46.4219 22.945 46.1498 22.945 46.1404 22.5439C46.1382 22.3441 46.1793 22.1384 46.2307 21.9125ZM53.8215 19.8182L53.768 19.7571C53.0831 19.8959 52.9592 19.9179 52.33 20.0029L52.2837 20.0491C52.2816 20.0567 52.2797 20.0682 52.2765 20.0787L52.2743 20.0682C51.8059 21.1489 51.8196 20.9157 51.4383 21.7665C51.4362 21.7278 51.4362 21.7036 51.434 21.6624L51.3386 19.8182L51.2786 19.7571C50.5612 19.8959 50.5443 19.9179 49.8818 20.0029L49.8301 20.0491C49.8229 20.0712 49.8229 20.0954 49.8186 20.1217L49.8229 20.1311C49.9057 20.5544 49.8858 20.46 49.9689 21.1279C50.0076 21.4557 50.0592 21.7853 50.0979 22.1091C50.1633 22.6509 50.1999 22.9176 50.2797 23.7444C49.8323 24.4828 49.7263 24.7621 49.2956 25.4102L49.2986 25.4166L48.9952 25.8963C48.9606 25.9469 48.9291 25.9815 48.885 25.9963C48.8366 26.0203 48.7737 26.0246 48.6863 26.0246H48.5182L48.2685 26.8554L49.1254 26.8702C49.6285 26.8681 49.9447 26.6328 50.1149 26.3166L50.6537 25.3932H50.6451L50.7019 25.3282C51.0643 24.5478 53.8215 19.8182 53.8215 19.8182ZM44.7771 30.7302H44.4136L45.7591 26.2799H46.2054L46.3471 25.8214L46.3608 26.3312C46.3441 26.6464 46.5921 26.9257 47.2433 26.8795H47.9964L48.2557 26.0225H47.9722C47.8093 26.0225 47.7337 25.9814 47.7432 25.8932L47.7294 25.3745H46.3347V25.3772C45.8838 25.3866 44.5372 25.4205 44.2646 25.4931C43.9347 25.5781 43.587 25.8281 43.587 25.8281L43.7236 25.3692H42.419L42.1471 26.2799L40.7836 30.7982H40.519L40.2595 31.649H42.8581L42.7709 31.9326H44.0514L44.1363 31.649H44.4956L44.7771 30.7302ZM43.711 27.1841C43.502 27.2419 43.1132 27.4173 43.1132 27.4173L43.459 26.2799H44.4956L44.2455 27.1086C44.2455 27.1086 43.9253 27.1274 43.711 27.1841ZM43.7309 28.809C43.7309 28.809 43.4052 28.8499 43.1909 28.8983C42.9799 28.9623 42.5841 29.1639 42.5841 29.1639L42.9411 27.9803H43.9831L43.7309 28.809ZM43.1501 30.7407H42.1103L42.4117 29.7418H43.4483L43.1501 30.7407ZM45.6541 27.9803H47.1528L46.9375 28.6778H45.4188L45.1908 29.4403H46.5196L45.5135 30.8571C45.443 30.9612 45.3798 30.998 45.3096 31.0273C45.2392 31.0631 45.1467 31.105 45.0397 31.105H44.671L44.4177 31.9402H45.382C45.8832 31.9402 46.1792 31.7122 46.3978 31.4129L47.0878 30.4686L47.2359 31.4274C47.2674 31.607 47.3965 31.7122 47.4838 31.753C47.5804 31.8014 47.6801 31.8845 47.821 31.8969C47.9721 31.9033 48.0813 31.9084 48.1539 31.9084H48.6277L48.9122 30.9738H48.7253C48.618 30.9738 48.4333 30.9558 48.4018 30.9222C48.3704 30.8813 48.3704 30.8184 48.3534 30.7227L48.2031 29.7617H47.5876L47.8576 29.4403H49.3733L49.6064 28.6778H48.2031L48.4217 27.9803H49.8207L50.0802 27.1201H45.9093L45.6541 27.9803ZM32.9955 30.9349L33.3453 29.7712H34.783L35.0457 28.9056H33.6066L33.8263 28.1893H35.2326L35.4931 27.3512H31.9745L31.7193 28.1893H32.5187L32.3055 28.9056H31.5039L31.2383 29.7859H32.0374L31.5712 31.3256C31.5082 31.5294 31.6007 31.6071 31.6594 31.7018C31.7193 31.794 31.7801 31.855 31.9167 31.8897C32.0576 31.9212 32.1541 31.94 32.2853 31.94H33.9062L34.1949 30.9811L33.4765 31.0798C33.3377 31.0798 32.9535 31.0632 32.9955 30.9349ZM33.1604 25.3639L32.796 26.0224C32.718 26.1663 32.6479 26.2555 32.5847 26.2967C32.529 26.3314 32.4188 26.3459 32.2591 26.3459H32.069L31.8149 27.1883H32.4462C32.7498 27.1883 32.9829 27.077 33.0942 27.0213C33.2139 26.9573 33.2453 26.9939 33.3378 26.9046L33.551 26.7199H35.5225L35.7841 25.8428H34.341L34.593 25.3639H33.1604ZM36.0709 30.9518C36.0373 30.9034 36.0615 30.8182 36.1128 30.6407L36.6517 28.8572H38.5686C38.8479 28.8532 39.0496 28.8499 39.1808 28.8405C39.3217 28.8257 39.475 28.7754 39.6419 28.6851C39.8143 28.5905 39.9025 28.4907 39.977 28.3762C40.0601 28.2619 40.1934 28.0118 40.308 27.6262L40.9853 25.3692L38.9961 25.3808C38.9961 25.3808 38.3836 25.4711 38.1139 25.5709C37.8418 25.6822 37.4529 25.993 37.4529 25.993L37.6326 25.3743H36.4038L34.6834 31.0798C34.6224 31.3014 34.5815 31.4621 34.5721 31.5587C34.5689 31.6627 34.7033 31.7657 34.7904 31.8434C34.8934 31.9211 35.0456 31.9085 35.1916 31.9211C35.3452 31.9327 35.5635 31.94 35.8649 31.94H36.8092L37.0991 30.9612L36.2537 31.0411C36.1634 31.0411 36.098 30.9927 36.0709 30.9518ZM36.9993 27.6526H39.0128L38.8848 28.0538C38.8667 28.0632 38.8237 28.0339 38.6188 28.0581H36.8754L36.9993 27.6526ZM37.4027 26.3071H39.433L39.287 26.7903C39.287 26.7903 38.3301 26.7809 38.1768 26.8091C37.5024 26.9258 37.1085 27.2861 37.1085 27.2861L37.4027 26.3071ZM38.9298 29.3972C38.9132 29.4572 38.8868 29.4937 38.85 29.5211C38.8091 29.5475 38.743 29.5569 38.6443 29.5569H38.3574L38.3743 29.0683H37.181L37.1326 31.4569C37.1307 31.6292 37.1474 31.729 37.2735 31.8088C37.3996 31.9086 37.7881 31.9212 38.3111 31.9212H39.0589L39.3289 31.0272L38.6779 31.0629L38.4614 31.0756C38.4319 31.0629 38.4036 31.0514 38.3722 31.0199C38.3447 30.9928 38.2985 31.0094 38.306 30.8371L38.3111 30.2248L38.9938 30.1966C39.3625 30.1966 39.52 30.0767 39.6545 29.9624C39.7827 29.853 39.8247 29.7271 39.8731 29.5569L39.9876 29.0148H39.0495L38.9298 29.3972Z" fill="#FEFEFE"/>
</svg>
