<svg width="70" height="48" viewBox="0 0 70 48" fill="none" xmlns="http://www.w3.org/2000/svg">
<rect x="0.5" y="0.5" width="69" height="47" rx="5.5" fill="white" stroke="#D9D9D9"/>
<path d="M57.6289 35.8555H57.6914L58.8828 32.1143H60L58.1094 37.1982C57.587 38.6013 56.9494 39.3329 55.749 39.333V38.5C56.4591 38.4999 56.8974 37.9502 57.1484 37.1982L55.1426 32.1143H56.292L57.6289 35.8555ZM22.1885 31.9414C23.4938 31.9414 24.2978 32.765 24.2979 34.4219V34.7979H20.8936C20.8936 36.0176 21.4049 36.5565 22.4805 36.5566C23.0445 36.5566 23.5671 36.3639 24.1416 36.0283V36.8008C23.6717 37.0654 23.0451 37.2695 22.293 37.2695C20.5385 37.2695 19.8175 36.2119 19.8174 34.6055C19.8174 33.0603 20.6217 31.9414 22.1885 31.9414ZM26.335 32.3174C26.6483 32.1547 27.1812 31.9414 27.7451 31.9414C29.0398 31.9416 29.7393 32.8164 29.7393 34.4434C29.7391 36.344 28.7997 37.2695 27.2852 37.2695C26.7313 37.2695 25.8748 37.0963 25.248 36.7705V29.6738L26.335 29.4199V32.3174ZM41.6055 31.9414C42.9843 31.9414 43.9873 32.8262 43.9873 34.6055C43.9871 36.344 43.0365 37.2695 41.6055 37.2695C40.1746 37.2694 39.2248 36.3439 39.2246 34.6055C39.2246 32.8263 40.2269 31.9415 41.6055 31.9414ZM52.709 31.9414C54.0148 31.9415 54.8193 32.7651 54.8193 34.4219V34.7979H51.4141C51.4141 36.0177 51.9262 36.5566 53.002 36.5566C53.5658 36.5565 54.0883 36.3638 54.6621 36.0283V36.8008C54.1924 37.0654 53.5657 37.2695 52.8135 37.2695C51.0592 37.2695 50.338 36.2119 50.3379 34.6055C50.3379 33.0603 51.1424 31.9414 52.709 31.9414ZM13.3398 35.3174H13.4131L14.7705 29.9385H15.7002L17.1523 35.3174H17.2256L18.291 29.9385H19.5127L17.8203 37.1475H16.6924L15.2725 32.0732H15.1992L13.8203 37.1475H12.6924L11 29.9385H12.1699L13.3398 35.3174ZM34.4922 35.6221H34.5449L36.7793 29.9385H38.0752V37.1475H36.9473V31.9209H36.8525L34.7217 37.1475H34.0537L31.9229 32.043H31.8291V37.1475H30.8887V29.9385H32.1523L34.4922 35.6221ZM47.6426 31.9414C48.8964 31.9414 49.3661 32.419 49.3662 33.4658V37.1475H48.2803V33.7002C48.2802 32.8973 47.8732 32.755 47.3408 32.7549C46.9228 32.7549 46.3891 32.9384 46.0654 33.1211V37.1475H44.9795V32.6934C45.4495 32.4188 46.4422 31.9414 47.6426 31.9414ZM27.4629 32.7344C27.0448 32.7344 26.7421 32.8466 26.3242 33.0703V36.3945C26.6582 36.5369 27.0239 36.5576 27.2852 36.5576C28.058 36.5576 28.6435 36.0897 28.6436 34.4434C28.6436 33.1518 28.1626 32.7344 27.4629 32.7344ZM41.6055 32.6533C40.9161 32.6534 40.3213 33.2332 40.3213 34.6055C40.3214 35.9984 40.8643 36.5565 41.6055 36.5566C42.3469 36.5566 42.8905 35.9985 42.8906 34.6055C42.8906 33.2331 42.3156 32.6533 41.6055 32.6533ZM22.1572 32.623C21.5197 32.623 21.0286 33.1007 20.9141 34.1172H23.3057C23.2539 33.0495 22.7212 32.6231 22.1572 32.623ZM52.6777 32.623C52.0404 32.623 51.5497 33.1007 51.4346 34.1172H53.8262C53.7743 33.0495 53.2417 32.6231 52.6777 32.623Z" fill="#0068A3"/>
<path d="M34.7993 8.62695C36.2368 8.62695 37.5986 8.95277 38.811 9.53125C39.0013 9.61909 39.1911 9.71558 39.3813 9.82227L38.5386 10.5566L37.2729 9.28223L35.1353 11.1377L33.8667 9.78906L29.8853 13.2822L32.438 16.0205L31.4351 16.8789L33.9487 19.6201L32.9517 20.4775L36.5435 24.3691L38.6753 22.458L40.519 24.5059C40.1524 24.7833 39.753 25.0448 39.313 25.2861C37.98 26.026 36.4388 26.4492 34.7993 26.4492C29.7573 26.449 25.645 22.4454 25.645 17.5381C25.6452 12.6298 29.7574 8.62715 34.7993 8.62695ZM43.0083 22.252L41.3755 23.6826L39.9058 22.0938L41.5376 20.6621L43.0083 22.252ZM38.8169 20.8477L36.6401 22.7559L34.6792 20.6367L36.856 18.7285L38.8169 20.8477ZM41.5728 19.042L39.9399 20.4727L38.4692 18.8838L40.103 17.4521L41.5728 19.042ZM37.2681 17.1865L35.0913 19.0938L33.1313 16.9746L35.3081 15.0664L37.2681 17.1865ZM44.0229 17.9902L42.9351 18.9434L41.9546 17.8848L43.0435 16.9307L44.0229 17.9902ZM40.1763 15.6836L38.5435 17.1143L37.0737 15.5254L38.7056 14.0938L40.1763 15.6836ZM42.6313 14.8418L41.5435 15.7959L40.563 14.7363L41.6519 13.7822L42.6313 14.8418ZM35.7104 13.5674L33.5337 15.4756L31.5737 13.3564L33.7505 11.4482L35.7104 13.5674ZM38.6714 12.4883L37.0386 13.9189L35.5688 12.3291L37.2017 10.8984L38.6714 12.4883ZM41.2407 11.6943L40.1528 12.6475L39.1724 11.5889L40.2612 10.6348L41.2407 11.6943Z" fill="#0068A3"/>
</svg>
