<svg width="21" height="13" viewBox="0 0 21 13" fill="none" xmlns="http://www.w3.org/2000/svg">
<path d="M13.626 0.292893C14.0165 -0.0976311 14.6495 -0.0976311 15.04 0.292893L20.373 5.6259C20.3789 5.63178 20.3839 5.63846 20.3896 5.64446C20.4024 5.65781 20.4148 5.67143 20.4268 5.68547C20.4344 5.69449 20.4419 5.7036 20.4492 5.71282C20.4826 5.75485 20.5127 5.79947 20.5391 5.8466C20.5447 5.85668 20.5504 5.86665 20.5557 5.87688C20.6263 6.01393 20.667 6.16918 20.667 6.33391C20.667 6.60565 20.5569 6.85089 20.3809 7.03117C20.378 7.03413 20.376 7.03802 20.373 7.04094L15.04 12.3739C14.6495 12.7644 14.0165 12.7644 13.626 12.3739C13.2356 11.9834 13.2355 11.3504 13.626 10.9599L17.252 7.33391H1C0.44774 7.33391 4.07281e-05 6.88616 0 6.33391C0 5.78162 0.447715 5.33391 1 5.33391H17.2529L13.626 1.70696C13.2355 1.31644 13.2355 0.683421 13.626 0.292893Z" fill="#1D1630"/>
</svg>
