<svg width="21" height="13" viewBox="0 0 21 13" fill="none" xmlns="http://www.w3.org/2000/svg">
<path d="M7.37402 0.292893C6.9835 -0.0976311 6.35048 -0.0976311 5.95996 0.292893L0.626953 5.6259C0.621071 5.63178 0.616056 5.63846 0.610352 5.64446C0.597618 5.65781 0.58523 5.67143 0.573242 5.68547C0.565554 5.69449 0.558098 5.7036 0.550781 5.71282C0.517384 5.75485 0.48732 5.79947 0.460938 5.8466C0.455317 5.85668 0.449581 5.86665 0.444336 5.87688C0.373739 6.01393 0.333008 6.16918 0.333008 6.33391C0.333029 6.60565 0.443138 6.85089 0.619141 7.03117C0.622023 7.03413 0.624029 7.03802 0.626953 7.04094L5.95996 12.3739C6.35048 12.7644 6.98351 12.7644 7.37402 12.3739C7.76437 11.9834 7.76446 11.3504 7.37402 10.9599L3.74805 7.33391H20C20.5523 7.33391 21 6.88616 21 6.33391C21 5.78162 20.5523 5.33391 20 5.33391H3.74707L7.37402 1.70696C7.76453 1.31644 7.76451 0.683421 7.37402 0.292893Z" fill="#1D1630"/>
</svg>
