<svg width="99" height="86" viewBox="0 0 99 86" fill="none" xmlns="http://www.w3.org/2000/svg">
<path d="M58.4502 0C61.2403 1.60369e-05 63.9541 0.265908 66.5879 0.794922C76.9041 2.86632 86.2229 9.14589 92.0791 17.9082C96.6525 24.7504 98.9999 32.4561 99 40.7246C99 49.0064 96.649 56.7035 92.0791 63.5439C87.6563 70.1582 81.5353 75.124 74.2607 78.2666C73.7453 78.4871 73.228 78.6964 72.7051 78.8945V74.5869C78.6318 72.0164 83.6928 68.1634 87.5869 63H76.9863C75.7206 64.8339 74.2947 66.6565 72.7051 68.4736V58.9971H74.8682C78.2521 53.6094 80.0949 48.1862 80.3574 42.7275H72.7051V38.7246H80.2686C79.7771 33.3816 77.787 27.9598 74.2744 22.4541H60.4414V31.1348H56.4561V22.4541H42.624C40.7626 25.3705 39.3311 28.2632 38.3203 31.1348H34.1377C35.0368 28.2501 36.3174 25.3556 37.9834 22.4541H26.6895C25.1389 25.1929 23.9181 28.0894 23.1084 31.1348H19C20.1187 26.4332 22.1418 21.9163 24.8203 17.9082C26.2617 15.7484 27.9112 13.7356 29.7441 11.8994C37.3352 4.24571 47.6835 0 58.4502 0ZM84.3301 42.7275C84.0974 48.2255 82.4757 53.6486 79.4863 58.9971H89.9697C90.0479 58.9971 90.1268 59.0033 90.2031 59.0107C93.0697 53.952 94.6707 48.5845 94.9648 42.7275H84.3301ZM78.915 22.4541C82.0479 27.9093 83.8202 33.333 84.2539 38.7246H94.9648C94.6707 32.8731 93.0785 27.5242 90.21 22.4541H78.915ZM53.2656 4.35059C45.5071 5.41623 38.0852 9.14575 32.5586 14.7168L32.5518 14.7236C31.3861 15.8886 30.3028 17.135 29.3105 18.4521H40.5205C43.765 13.7747 48.009 9.0766 53.2656 4.35059ZM56.4561 6.83301C52.0445 10.7458 48.3739 14.6179 45.4365 18.4521H56.4561V6.83301ZM60.4414 18.4521H71.4639C68.5246 14.6178 64.8549 10.7459 60.4414 6.83301V18.4521ZM63.6338 4.35254C68.8906 9.07675 73.1335 13.7765 76.3799 18.4521H87.5889C82.2968 11.4379 74.4066 6.44623 65.8105 4.71875C65.092 4.5748 64.3672 4.45349 63.6338 4.35254Z" fill="url(#paint0_linear_2709_4568)"/>
<g filter="url(#filter0_d_2709_4568)">
<rect x="4.5" y="31.4941" width="69" height="42" rx="5.5" fill="white" stroke="#D9D9D9"/>
<rect x="5" y="39.9941" width="68" height="10" fill="#9077A7"/>
<path d="M19.0576 60.0625C21.235 60.0626 23 61.8481 23 64.0508C22.9999 66.2533 21.2349 68.039 19.0576 68.0391C18.0812 68.0391 17.1886 67.6787 16.5 67.084C15.8114 67.6787 14.9188 68.0391 13.9424 68.0391C11.7651 68.0389 10.0001 66.2533 10 64.0508C10 61.8481 11.765 60.0626 13.9424 60.0625C14.9184 60.0625 15.8115 60.4213 16.5 61.0156C17.1885 60.4213 18.0816 60.0625 19.0576 60.0625Z" fill="#ED0006"/>
<path d="M19.0576 60.0625C21.235 60.0626 23 61.8481 23 64.0508C22.9999 66.2533 21.2349 68.039 19.0576 68.0391C18.0812 68.0391 17.1886 67.6787 16.5 67.084C17.347 66.3525 17.8847 65.2657 17.8848 64.0508C17.8848 62.8354 17.3475 61.7472 16.5 61.0156C17.1885 60.4213 18.0816 60.0625 19.0576 60.0625Z" fill="#F9A000"/>
<path d="M16.5 61.0156C17.3477 61.7472 17.8857 62.8353 17.8857 64.0508C17.8857 65.2658 17.3472 66.3525 16.5 67.084C15.6531 66.3525 15.1153 65.2656 15.1152 64.0508C15.1152 62.8355 15.6527 61.7472 16.5 61.0156Z" fill="#FF5E00"/>
<rect x="58" y="61.9941" width="10" height="4" fill="#D9D9D9"/>
<rect x="39" y="61.9941" width="17" height="4" fill="#D9D9D9"/>
</g>
<defs>
<filter id="filter0_d_2709_4568" x="0" y="26.9941" width="86" height="59" filterUnits="userSpaceOnUse" color-interpolation-filters="sRGB">
<feFlood flood-opacity="0" result="BackgroundImageFix"/>
<feColorMatrix in="SourceAlpha" type="matrix" values="0 0 0 0 0 0 0 0 0 0 0 0 0 0 0 0 0 0 127 0" result="hardAlpha"/>
<feOffset dx="4" dy="4"/>
<feGaussianBlur stdDeviation="4"/>
<feComposite in2="hardAlpha" operator="out"/>
<feColorMatrix type="matrix" values="0 0 0 0 0.860853 0 0 0 0 0.88453 0 0 0 0 0.980183 0 0 0 1 0"/>
<feBlend mode="normal" in2="BackgroundImageFix" result="effect1_dropShadow_2709_4568"/>
<feBlend mode="normal" in="SourceGraphic" in2="effect1_dropShadow_2709_4568" result="shape"/>
</filter>
<linearGradient id="paint0_linear_2709_4568" x1="43" y1="10.4941" x2="72.5" y2="78.9941" gradientUnits="userSpaceOnUse">
<stop stop-color="#DFE4F2"/>
<stop offset="1" stop-color="#F7F3FF"/>
</linearGradient>
</defs>
</svg>
