<svg width="88" height="82" viewBox="0 0 88 82" fill="none" xmlns="http://www.w3.org/2000/svg">
<path d="M0 16C0 7.16344 7.16344 0 16 0H66C74.8366 0 82 7.16344 82 16V81C82 81.5523 81.5523 82 81 82H16C7.16344 82 0 74.8366 0 66V16Z" fill="url(#paint0_linear_2590_4157)"/>
<path d="M0 0H66C74.8366 0 82 7.16344 82 16V17H0V0Z" fill="#9077A7"/>
<circle cx="8" cy="9" r="2" fill="#FAFAFA"/>
<circle cx="14" cy="9" r="2" fill="#FAFAFA"/>
<circle cx="20" cy="9" r="2" fill="#FAFAFA"/>
<rect x="8" y="27" width="66" height="10" rx="3" fill="white"/>
<rect x="8" y="42" width="43" height="10" rx="3" fill="white"/>
<rect x="54" y="42" width="20" height="10" rx="3" fill="white"/>
<rect x="8" y="57" width="23" height="10" rx="3" fill="white"/>
<rect x="34" y="57" width="54" height="17" rx="3" fill="#FF52A8"/>
<path d="M13.125 31.575L12.715 32.125L12.425 31.92L12.83 31.395L12.195 31.205L12.31 30.89L12.94 31.085V30.425H13.31L13.305 31.085L13.935 30.89L14.05 31.205L13.415 31.395L13.825 31.92L13.535 32.125L13.125 31.575ZM15.3711 31.575L14.9611 32.125L14.6711 31.92L15.0761 31.395L14.4411 31.205L14.5561 30.89L15.1861 31.085V30.425H15.5561L15.5511 31.085L16.1811 30.89L16.2961 31.205L15.6611 31.395L16.0711 31.92L15.7811 32.125L15.3711 31.575ZM17.6172 31.575L17.2072 32.125L16.9172 31.92L17.3222 31.395L16.6872 31.205L16.8022 30.89L17.4322 31.085V30.425H17.8022L17.7972 31.085L18.4272 30.89L18.5422 31.205L17.9072 31.395L18.3172 31.92L18.0272 32.125L17.6172 31.575ZM19.8633 31.575L19.4533 32.125L19.1633 31.92L19.5683 31.395L18.9333 31.205L19.0483 30.89L19.6783 31.085V30.425H20.0483L20.0433 31.085L20.6733 30.89L20.7883 31.205L20.1533 31.395L20.5633 31.92L20.2733 32.125L19.8633 31.575ZM22.9199 31.575L22.5099 32.125L22.2199 31.92L22.6249 31.395L21.9899 31.205L22.1049 30.89L22.7349 31.085V30.425H23.1049L23.0999 31.085L23.7299 30.89L23.8449 31.205L23.2099 31.395L23.6199 31.92L23.3299 32.125L22.9199 31.575ZM25.166 31.575L24.756 32.125L24.466 31.92L24.871 31.395L24.236 31.205L24.351 30.89L24.981 31.085V30.425H25.351L25.346 31.085L25.976 30.89L26.091 31.205L25.456 31.395L25.866 31.92L25.576 32.125L25.166 31.575ZM27.4121 31.575L27.0021 32.125L26.7121 31.92L27.1171 31.395L26.4821 31.205L26.5971 30.89L27.2271 31.085V30.425H27.5971L27.5921 31.085L28.2221 30.89L28.3371 31.205L27.7021 31.395L28.1121 31.92L27.8221 32.125L27.4121 31.575ZM29.6582 31.575L29.2482 32.125L28.9582 31.92L29.3632 31.395L28.7282 31.205L28.8432 30.89L29.4732 31.085V30.425H29.8432L29.8382 31.085L30.4682 30.89L30.5832 31.205L29.9482 31.395L30.3582 31.92L30.0682 32.125L29.6582 31.575ZM32.7148 31.575L32.3048 32.125L32.0148 31.92L32.4198 31.395L31.7848 31.205L31.8998 30.89L32.5298 31.085V30.425H32.8998L32.8948 31.085L33.5248 30.89L33.6398 31.205L33.0048 31.395L33.4148 31.92L33.1248 32.125L32.7148 31.575ZM34.9609 31.575L34.5509 32.125L34.2609 31.92L34.6659 31.395L34.0309 31.205L34.1459 30.89L34.7759 31.085V30.425H35.1459L35.1409 31.085L35.7709 30.89L35.8859 31.205L35.2509 31.395L35.6609 31.92L35.3709 32.125L34.9609 31.575ZM37.207 31.575L36.797 32.125L36.507 31.92L36.912 31.395L36.277 31.205L36.392 30.89L37.022 31.085V30.425H37.392L37.387 31.085L38.017 30.89L38.132 31.205L37.497 31.395L37.907 31.92L37.617 32.125L37.207 31.575ZM39.4531 31.575L39.0431 32.125L38.7531 31.92L39.1581 31.395L38.5231 31.205L38.6381 30.89L39.2681 31.085V30.425H39.6381L39.6331 31.085L40.2631 30.89L40.3781 31.205L39.7431 31.395L40.1531 31.92L39.8631 32.125L39.4531 31.575ZM43.067 34.07C42.1703 34.07 41.722 33.4733 41.722 32.28C41.722 31.71 41.8403 31.2667 42.077 30.95C42.3136 30.6333 42.6453 30.475 43.072 30.475C43.282 30.475 43.4686 30.5183 43.632 30.605C43.7986 30.6883 43.9303 30.8017 44.027 30.945C44.127 31.0883 44.187 31.2467 44.207 31.42H43.652C43.6286 31.2667 43.5703 31.1467 43.477 31.06C43.3836 30.97 43.2486 30.925 43.072 30.925C42.7753 30.925 42.5653 31.0383 42.442 31.265C42.322 31.4883 42.262 31.7733 42.262 32.12V32.17L42.277 32.175C42.367 32.0283 42.4886 31.9167 42.642 31.84C42.7953 31.76 42.9703 31.72 43.167 31.72C43.387 31.72 43.582 31.7683 43.752 31.865C43.9253 31.9617 44.0603 32.0983 44.157 32.275C44.2536 32.4483 44.302 32.6467 44.302 32.87C44.302 33.0933 44.252 33.2967 44.152 33.48C44.052 33.6633 43.9086 33.8083 43.722 33.915C43.5353 34.0183 43.317 34.07 43.067 34.07ZM43.052 33.62C43.2753 33.62 43.447 33.555 43.567 33.425C43.6903 33.295 43.752 33.12 43.752 32.9C43.752 32.6733 43.692 32.4967 43.572 32.37C43.452 32.24 43.2903 32.175 43.087 32.175C42.8536 32.175 42.667 32.2433 42.527 32.38C42.3903 32.5133 42.322 32.69 42.322 32.91C42.322 33.1233 42.3853 33.295 42.512 33.425C42.642 33.555 42.822 33.62 43.052 33.62ZM46.0851 34.07C45.6251 34.07 45.2801 33.9033 45.0501 33.57C44.8235 33.2367 44.7101 32.805 44.7101 32.275C44.7101 31.9317 44.7585 31.625 44.8551 31.355C44.9551 31.085 45.1068 30.8717 45.3101 30.715C45.5168 30.555 45.7751 30.475 46.0851 30.475C46.5418 30.475 46.8835 30.6433 47.1101 30.98C47.3401 31.3133 47.4551 31.745 47.4551 32.275C47.4551 32.805 47.3418 33.2367 47.1151 33.57C46.8885 33.9033 46.5451 34.07 46.0851 34.07ZM46.0851 33.605C46.3751 33.605 46.5818 33.4833 46.7051 33.24C46.8285 32.9933 46.8901 32.6717 46.8901 32.275C46.8901 31.8783 46.8268 31.5567 46.7001 31.31C46.5768 31.0633 46.3718 30.94 46.0851 30.94C45.7951 30.94 45.5868 31.0633 45.4601 31.31C45.3368 31.5533 45.2751 31.875 45.2751 32.275C45.2751 32.6717 45.3368 32.9933 45.4601 33.24C45.5868 33.4833 45.7951 33.605 46.0851 33.605ZM48.4589 31.435C48.3889 31.4983 48.2939 31.5417 48.1739 31.565C48.0573 31.5883 47.9106 31.6 47.7339 31.6V31.16C47.9339 31.1567 48.0923 31.1333 48.2089 31.09C48.3256 31.0433 48.4106 30.9767 48.4639 30.89C48.5173 30.8033 48.5523 30.6883 48.5689 30.545H48.9989V34H48.4589V31.435ZM51.688 34H51.148V33.21H49.503V32.71L51.148 30.545H51.688V32.745H52.173V33.21H51.688V34ZM51.148 31.24L50.003 32.745H51.148V31.24Z" fill="#C0BACF"/>
<path d="M58.79 46.435C58.72 46.4983 58.625 46.5417 58.505 46.565C58.3883 46.5883 58.2417 46.6 58.065 46.6V46.16C58.265 46.1567 58.4233 46.1333 58.54 46.09C58.6567 46.0433 58.7417 45.9767 58.795 45.89C58.8483 45.8033 58.8833 45.6883 58.9 45.545H59.33V49H58.79V46.435ZM59.8441 49C59.8441 48.69 59.9324 48.415 60.1091 48.175C60.2858 47.935 60.5491 47.7067 60.8991 47.49L61.0141 47.42C61.2208 47.2967 61.3724 47.1983 61.4691 47.125C61.5691 47.0517 61.6458 46.9683 61.6991 46.875C61.7524 46.7817 61.7791 46.6667 61.7791 46.53C61.7791 46.36 61.7341 46.22 61.6441 46.11C61.5574 45.9967 61.4074 45.94 61.1941 45.94C60.7208 45.94 60.4841 46.215 60.4841 46.765H59.9341C59.9341 46.3783 60.0408 46.0667 60.2541 45.83C60.4708 45.5933 60.7891 45.475 61.2091 45.475C61.4191 45.475 61.6091 45.5167 61.7791 45.6C61.9524 45.68 62.0891 45.7983 62.1891 45.955C62.2891 46.1117 62.3391 46.2967 62.3391 46.51C62.3391 46.7167 62.2908 46.9 62.1941 47.06C62.0974 47.22 61.9791 47.355 61.8391 47.465C61.6991 47.5717 61.5191 47.6933 61.2991 47.83C61.0758 47.96 60.9041 48.075 60.7841 48.175C60.6641 48.2717 60.5824 48.3883 60.5391 48.525V48.535H62.2991V49H59.8441ZM63.0658 49H62.6108L63.9958 45.425H64.4508L63.0658 49ZM65.9563 49.07C65.5129 49.07 65.1696 48.9617 64.9263 48.745C64.6863 48.525 64.5663 48.2167 64.5663 47.82H65.1163C65.1163 48.0733 65.1779 48.2683 65.3013 48.405C65.4246 48.5383 65.6313 48.605 65.9213 48.605C66.1846 48.605 66.3713 48.555 66.4813 48.455C66.5946 48.355 66.6513 48.2083 66.6513 48.015C66.6513 47.6217 66.4213 47.425 65.9613 47.425H65.6363V46.98H65.9413C66.1246 46.98 66.2679 46.9367 66.3713 46.85C66.4779 46.7633 66.5313 46.63 66.5313 46.45C66.5313 46.3033 66.4829 46.1817 66.3863 46.085C66.2896 45.9883 66.1413 45.94 65.9413 45.94C65.4546 45.94 65.2113 46.155 65.2113 46.585H64.6613C64.6613 46.3683 64.7096 46.1767 64.8063 46.01C64.9063 45.8433 65.0513 45.7133 65.2413 45.62C65.4346 45.5233 65.6696 45.475 65.9463 45.475C66.1563 45.475 66.3479 45.5133 66.5213 45.59C66.6946 45.6633 66.8329 45.7717 66.9363 45.915C67.0396 46.0583 67.0913 46.2283 67.0913 46.425C67.0913 46.7717 66.9179 47.0183 66.5713 47.165V47.175C66.9979 47.3117 67.2113 47.595 67.2113 48.025C67.2113 48.355 67.0979 48.6117 66.8713 48.795C66.6479 48.9783 66.3429 49.07 65.9563 49.07ZM69.0041 49.07C68.5441 49.07 68.1991 48.9033 67.9691 48.57C67.7424 48.2367 67.6291 47.805 67.6291 47.275C67.6291 46.9317 67.6774 46.625 67.7741 46.355C67.8741 46.085 68.0257 45.8717 68.2291 45.715C68.4357 45.555 68.6941 45.475 69.0041 45.475C69.4607 45.475 69.8024 45.6433 70.0291 45.98C70.2591 46.3133 70.3741 46.745 70.3741 47.275C70.3741 47.805 70.2607 48.2367 70.0341 48.57C69.8074 48.9033 69.4641 49.07 69.0041 49.07ZM69.0041 48.605C69.2941 48.605 69.5007 48.4833 69.6241 48.24C69.7474 47.9933 69.8091 47.6717 69.8091 47.275C69.8091 46.8783 69.7457 46.5567 69.6191 46.31C69.4957 46.0633 69.2907 45.94 69.0041 45.94C68.7141 45.94 68.5057 46.0633 68.3791 46.31C68.2557 46.5533 68.1941 46.875 68.1941 47.275C68.1941 47.6717 68.2557 47.9933 68.3791 48.24C68.5057 48.4833 68.7141 48.605 69.0041 48.605Z" fill="#C0BACF"/>
<path d="M16.85 64.07C16.5167 64.07 16.2233 63.9917 15.97 63.835C15.72 63.675 15.525 63.455 15.385 63.175C15.2483 62.8917 15.18 62.5717 15.18 62.215C15.18 61.8583 15.2483 61.5383 15.385 61.255C15.525 60.9717 15.7217 60.7517 15.975 60.595C16.2283 60.435 16.5217 60.355 16.855 60.355C17.145 60.355 17.4 60.4117 17.62 60.525C17.8433 60.6383 18.02 60.7917 18.15 60.985C18.28 61.1783 18.36 61.3967 18.39 61.64H17.815C17.775 61.4167 17.68 61.2267 17.53 61.07C17.38 60.91 17.1517 60.83 16.845 60.83C16.475 60.83 16.2 60.9617 16.02 61.225C15.8433 61.4883 15.755 61.8167 15.755 62.21C15.755 62.6067 15.8433 62.9367 16.02 63.2C16.2 63.4633 16.475 63.595 16.845 63.595C17.1617 63.595 17.3967 63.51 17.55 63.34C17.7067 63.1667 17.795 62.9533 17.815 62.7H18.39C18.3633 62.9667 18.285 63.2033 18.155 63.41C18.025 63.6167 17.8483 63.7783 17.625 63.895C17.4017 64.0117 17.1433 64.07 16.85 64.07ZM20.3324 64H19.7374L18.4774 60.425H19.0824L20.0324 63.42H20.0374L20.9824 60.425H21.5624L20.3324 64ZM23.5013 64H22.9063L21.6463 60.425H22.2513L23.2013 63.42H23.2063L24.1513 60.425H24.7313L23.5013 64Z" fill="#C0BACF"/>
<path d="M41.54 69V62.565H44.663C45.347 62.565 45.881 62.742 46.265 63.096C46.649 63.444 46.841 63.951 46.841 64.617C46.841 65.283 46.649 65.793 46.265 66.147C45.881 66.495 45.347 66.669 44.663 66.669H43.16V69H41.54ZM44.285 65.346C44.579 65.346 44.801 65.289 44.951 65.175C45.107 65.061 45.185 64.875 45.185 64.617C45.185 64.359 45.107 64.173 44.951 64.059C44.801 63.945 44.579 63.888 44.285 63.888H43.16V65.346H44.285ZM48.0621 69H46.3251L48.7731 62.565H50.4021L52.8681 69H51.0951L50.6811 67.659H48.4761L48.0621 69ZM49.5741 64.05L48.8451 66.426H50.3211L49.5921 64.05H49.5741ZM55.7232 69H54.1032V66.624L51.9072 62.565H53.6532L54.9042 65.301H54.9222L56.1822 62.565H57.8922L55.7232 66.624V69ZM61.5116 69H59.8916V62.565H61.5116L63.7616 66.39H63.7796V62.565H65.3996V69H63.7796L61.5296 65.175H61.5116V69ZM69.3994 69.144C68.7334 69.144 68.1604 69 67.6804 68.712C67.2004 68.424 66.8344 68.028 66.5824 67.524C66.3364 67.014 66.2134 66.432 66.2134 65.778C66.2134 65.13 66.3364 64.554 66.5824 64.05C66.8344 63.54 67.2004 63.141 67.6804 62.853C68.1604 62.565 68.7334 62.421 69.3994 62.421C70.0594 62.421 70.6294 62.565 71.1094 62.853C71.5894 63.141 71.9554 63.54 72.2074 64.05C72.4594 64.554 72.5854 65.13 72.5854 65.778C72.5854 66.432 72.4594 67.014 72.2074 67.524C71.9554 68.028 71.5894 68.424 71.1094 68.712C70.6294 69 70.0594 69.144 69.3994 69.144ZM69.3994 67.821C69.9454 67.821 70.3354 67.638 70.5694 67.272C70.8094 66.9 70.9294 66.402 70.9294 65.778C70.9294 65.16 70.8094 64.668 70.5694 64.302C70.3354 63.93 69.9454 63.744 69.3994 63.744C68.3794 63.744 67.8694 64.422 67.8694 65.778C67.8694 67.14 68.3794 67.821 69.3994 67.821ZM76.0409 69H74.4209L72.7829 62.565H74.4029L75.2309 66.93H75.2489L76.2479 62.565H77.7779L78.7769 66.93H78.7949L79.6229 62.565H81.2429L79.6049 69H77.9849L77.0219 64.986H77.0039L76.0409 69Z" fill="white"/>
<path d="M13.85 49.07C13.5167 49.07 13.2233 48.9917 12.97 48.835C12.72 48.675 12.525 48.455 12.385 48.175C12.2483 47.8917 12.18 47.5717 12.18 47.215C12.18 46.8583 12.2483 46.5383 12.385 46.255C12.525 45.9717 12.7217 45.7517 12.975 45.595C13.2283 45.435 13.5217 45.355 13.855 45.355C14.145 45.355 14.4 45.4117 14.62 45.525C14.8433 45.6383 15.02 45.7917 15.15 45.985C15.28 46.1783 15.36 46.3967 15.39 46.64H14.815C14.775 46.4167 14.68 46.2267 14.53 46.07C14.38 45.91 14.1517 45.83 13.845 45.83C13.475 45.83 13.2 45.9617 13.02 46.225C12.8433 46.4883 12.755 46.8167 12.755 47.21C12.755 47.6067 12.8433 47.9367 13.02 48.2C13.2 48.4633 13.475 48.595 13.845 48.595C14.1617 48.595 14.3967 48.51 14.55 48.34C14.7067 48.1667 14.795 47.9533 14.815 47.7H15.39C15.3633 47.9667 15.285 48.2033 15.155 48.41C15.025 48.6167 14.8483 48.7783 14.625 48.895C14.4017 49.0117 14.1433 49.07 13.85 49.07ZM16.0424 49H15.4624L16.7924 45.425H17.3874L18.7274 49H18.1274L17.8324 48.14H16.3374L16.0424 49ZM17.0824 45.935L16.5024 47.675H17.6774L17.0924 45.935H17.0824ZM19.0982 49V45.425H20.5882C20.9815 45.425 21.2815 45.515 21.4882 45.695C21.6982 45.8717 21.8032 46.125 21.8032 46.455C21.8032 46.6783 21.7415 46.8683 21.6182 47.025C21.4948 47.1817 21.3332 47.2833 21.1332 47.33V47.34C21.3065 47.3733 21.4365 47.455 21.5232 47.585C21.6132 47.715 21.6715 47.8583 21.6982 48.015C21.7282 48.1717 21.7498 48.355 21.7632 48.565C21.7732 48.7017 21.7832 48.8 21.7932 48.86C21.8032 48.92 21.8232 48.955 21.8532 48.965V49H21.2632C21.2398 48.98 21.2248 48.945 21.2182 48.895C21.2148 48.8417 21.2115 48.755 21.2082 48.635C21.2048 48.435 21.1898 48.265 21.1632 48.125C21.1398 47.985 21.0815 47.8633 20.9882 47.76C20.8982 47.6533 20.7582 47.6 20.5682 47.6H19.6482V49H19.0982ZM20.4682 47.125C20.7215 47.125 20.9148 47.0717 21.0482 46.965C21.1815 46.855 21.2482 46.6983 21.2482 46.495C21.2482 46.2983 21.1865 46.15 21.0632 46.05C20.9432 45.95 20.7482 45.9 20.4782 45.9H19.6482V47.125H20.4682ZM22.3794 49V45.425H23.7394C24.2394 45.425 24.6294 45.5817 24.9094 45.895C25.1894 46.205 25.3294 46.645 25.3294 47.215C25.3294 47.785 25.1911 48.225 24.9144 48.535C24.6377 48.845 24.2494 49 23.7494 49H22.3794ZM23.7144 48.525C24.4111 48.525 24.7594 48.0883 24.7594 47.215C24.7594 46.3383 24.4111 45.9 23.7144 45.9H22.9294V48.525H23.7144ZM27.4704 49H26.9204V45.425H27.4704V46.92H29.2254V45.425H29.7804V49H29.2254V47.395H27.4704V49ZM32.0649 49.07C31.7149 49.07 31.4065 48.99 31.1399 48.83C30.8765 48.67 30.6715 48.45 30.5249 48.17C30.3815 47.8867 30.3099 47.5667 30.3099 47.21C30.3099 46.8533 30.3815 46.535 30.5249 46.255C30.6715 45.9717 30.8765 45.7517 31.1399 45.595C31.4065 45.435 31.7149 45.355 32.0649 45.355C32.4149 45.355 32.7215 45.435 32.9849 45.595C33.2515 45.7517 33.4565 45.9717 33.5999 46.255C33.7465 46.535 33.8199 46.8533 33.8199 47.21C33.8199 47.5667 33.7465 47.8867 33.5999 48.17C33.4565 48.45 33.2515 48.67 32.9849 48.83C32.7215 48.99 32.4149 49.07 32.0649 49.07ZM32.0649 48.595C32.4615 48.595 32.7565 48.465 32.9499 48.205C33.1465 47.9417 33.2449 47.61 33.2449 47.21C33.2449 46.81 33.1465 46.48 32.9499 46.22C32.7565 45.96 32.4615 45.83 32.0649 45.83C31.6682 45.83 31.3715 45.96 31.1749 46.22C30.9815 46.48 30.8849 46.81 30.8849 47.21C30.8849 47.61 30.9815 47.9417 31.1749 48.205C31.3715 48.465 31.6682 48.595 32.0649 48.595ZM36.717 49H34.357V45.425H34.907V48.525H36.717V49ZM37.145 49V45.425H38.505C39.005 45.425 39.395 45.5817 39.675 45.895C39.955 46.205 40.095 46.645 40.095 47.215C40.095 47.785 39.9567 48.225 39.68 48.535C39.4034 48.845 39.015 49 38.515 49H37.145ZM38.48 48.525C39.1767 48.525 39.525 48.0883 39.525 47.215C39.525 46.3383 39.1767 45.9 38.48 45.9H37.695V48.525H38.48ZM43.2211 49H40.6411V45.425H43.1711V45.9H41.1911V46.915H42.9261V47.39H41.1911V48.525H43.2211V49ZM43.7368 49V45.425H45.2268C45.6202 45.425 45.9202 45.515 46.1268 45.695C46.3368 45.8717 46.4418 46.125 46.4418 46.455C46.4418 46.6783 46.3802 46.8683 46.2568 47.025C46.1335 47.1817 45.9718 47.2833 45.7718 47.33V47.34C45.9452 47.3733 46.0752 47.455 46.1618 47.585C46.2518 47.715 46.3102 47.8583 46.3368 48.015C46.3668 48.1717 46.3885 48.355 46.4018 48.565C46.4118 48.7017 46.4218 48.8 46.4318 48.86C46.4418 48.92 46.4618 48.955 46.4918 48.965V49H45.9018C45.8785 48.98 45.8635 48.945 45.8568 48.895C45.8535 48.8417 45.8502 48.755 45.8468 48.635C45.8435 48.435 45.8285 48.265 45.8018 48.125C45.7785 47.985 45.7202 47.8633 45.6268 47.76C45.5368 47.6533 45.3968 47.6 45.2068 47.6H44.2868V49H43.7368ZM45.1068 47.125C45.3602 47.125 45.5535 47.0717 45.6868 46.965C45.8202 46.855 45.8868 46.6983 45.8868 46.495C45.8868 46.2983 45.8252 46.15 45.7018 46.05C45.5818 45.95 45.3868 45.9 45.1168 45.9H44.2868V47.125H45.1068Z" fill="#C0BACF"/>
<path d="M68.5742 29.6133C69.914 29.6135 71 30.713 71 32.0684C70.9998 33.4236 69.9139 34.5222 68.5742 34.5225C67.9731 34.5225 67.4238 34.2998 67 33.9336C66.5762 34.2998 66.0269 34.5225 65.4258 34.5225C64.0862 34.5222 63.0002 33.4235 63 32.0684C63 30.713 64.086 29.6135 65.4258 29.6133C66.0266 29.6133 66.5762 29.8352 67 30.2012C67.4238 29.8352 67.9734 29.6133 68.5742 29.6133Z" fill="#ED0006"/>
<path d="M68.5742 29.6133C69.914 29.6135 71 30.713 71 32.0684C70.9998 33.4236 69.9139 34.5222 68.5742 34.5225C67.9731 34.5225 67.4238 34.2998 67 33.9336C67.5209 33.4835 67.8524 32.8157 67.8525 32.0684C67.8525 31.3206 67.5213 30.6513 67 30.2012C67.4238 29.8352 67.9734 29.6133 68.5742 29.6133Z" fill="#F9A000"/>
<path d="M67 30.2031C67.5212 30.6532 67.8524 31.3218 67.8525 32.0693C67.8525 32.8168 67.521 33.4854 67 33.9355C66.479 33.4854 66.1475 32.8168 66.1475 32.0693C66.1476 31.3218 66.4788 30.6532 67 30.2031Z" fill="#FF5E00"/>
<defs>
<linearGradient id="paint0_linear_2590_4157" x1="13.7928" y1="11.0653" x2="72.5" y2="75" gradientUnits="userSpaceOnUse">
<stop stop-color="#DFE4F2"/>
<stop offset="1" stop-color="#F7F3FF"/>
</linearGradient>
</defs>
</svg>
