<svg width="99" height="88" viewBox="0 0 99 88" fill="none" xmlns="http://www.w3.org/2000/svg">
<rect x="11" width="82" height="82" rx="16" fill="white"/>
<path d="M58.4502 2.00586C61.2403 2.00588 63.9541 2.27177 66.5879 2.80078C76.9041 4.87218 86.2229 11.1518 92.0791 19.9141C96.6525 26.7562 98.9999 34.462 99 42.7305C99 51.0123 96.649 58.7094 92.0791 65.5498C87.6563 72.1641 81.5353 77.1298 74.2607 80.2725C73.7453 80.493 73.228 80.7023 72.7051 80.9004V76.5928C78.6318 74.0223 83.6928 70.1692 87.5869 65.0059H76.9863C75.7206 66.8398 74.2947 68.6624 72.7051 70.4795V61.0029H74.8682C78.2521 55.6153 80.0949 50.1921 80.3574 44.7334H72.7051V40.7305H80.2686C79.7771 35.3875 77.787 29.9656 74.2744 24.46H60.4414V33.1406H56.4561V24.46H42.624C40.7626 27.3764 39.3311 30.2691 38.3203 33.1406H34.1377C35.0368 30.256 36.3174 27.3614 37.9834 24.46H26.6895C25.1389 27.1988 23.9181 30.0952 23.1084 33.1406H19C20.1187 28.439 22.1418 23.9221 24.8203 19.9141C26.2617 17.7543 27.9112 15.7414 29.7441 13.9053C37.3352 6.25157 47.6835 2.00586 58.4502 2.00586ZM84.3301 44.7334C84.0974 50.2314 82.4757 55.6545 79.4863 61.0029H89.9697C90.0479 61.0029 90.1268 61.0091 90.2031 61.0166C93.0697 55.9578 94.6707 50.5904 94.9648 44.7334H84.3301ZM78.915 24.46C82.0479 29.9151 83.8202 35.3389 84.2539 40.7305H94.9648C94.6707 34.879 93.0785 29.53 90.21 24.46H78.915ZM53.2656 6.35645C45.5071 7.42209 38.0852 11.1516 32.5586 16.7227L32.5518 16.7295C31.3861 17.8945 30.3028 19.1409 29.3105 20.458H40.5205C43.765 15.7806 48.009 11.0825 53.2656 6.35645ZM56.4561 8.83887C52.0445 12.7517 48.3739 16.6237 45.4365 20.458H56.4561V8.83887ZM60.4414 20.458H71.4639C68.5246 16.6237 64.8549 12.7517 60.4414 8.83887V20.458ZM63.6338 6.3584C68.8906 11.0826 73.1335 15.7824 76.3799 20.458H87.5889C82.2968 13.4438 74.4066 8.45209 65.8105 6.72461C65.092 6.58066 64.3672 6.45935 63.6338 6.3584Z" fill="url(#paint0_linear_2494_4334)"/>
<g filter="url(#filter0_d_2494_4334)">
<rect x="4.5" y="33.5" width="69" height="42" rx="5.5" fill="white" stroke="#D9D9D9"/>
<rect x="5" y="42" width="68" height="10" fill="#9077A7"/>
<path d="M19.0576 62.0684C21.235 62.0685 23 63.854 23 66.0566C22.9999 68.2592 21.2349 70.0448 19.0576 70.0449C18.0812 70.0449 17.1886 69.6845 16.5 69.0898C15.8114 69.6845 14.9188 70.0449 13.9424 70.0449C11.7651 70.0448 10.0001 68.2592 10 66.0566C10 63.854 11.765 62.0685 13.9424 62.0684C14.9184 62.0684 15.8115 62.4272 16.5 63.0215C17.1885 62.4272 18.0816 62.0684 19.0576 62.0684Z" fill="#ED0006"/>
<path d="M19.0576 62.0684C21.235 62.0685 23 63.854 23 66.0566C22.9999 68.2592 21.2349 70.0448 19.0576 70.0449C18.0812 70.0449 17.1886 69.6845 16.5 69.0898C17.347 68.3584 17.8847 67.2716 17.8848 66.0566C17.8848 64.8413 17.3475 63.753 16.5 63.0215C17.1885 62.4272 18.0816 62.0684 19.0576 62.0684Z" fill="#F9A000"/>
<path d="M16.5 63.0215C17.3477 63.753 17.8857 64.8411 17.8857 66.0566C17.8857 67.2717 17.3472 68.3583 16.5 69.0898C15.6531 68.3584 15.1153 67.2714 15.1152 66.0566C15.1152 64.8414 15.6527 63.753 16.5 63.0215Z" fill="#FF5E00"/>
<rect x="58" y="64" width="10" height="4" fill="#D9D9D9"/>
<rect x="39" y="64" width="17" height="4" fill="#D9D9D9"/>
</g>
<defs>
<filter id="filter0_d_2494_4334" x="0" y="29" width="86" height="59" filterUnits="userSpaceOnUse" color-interpolation-filters="sRGB">
<feFlood flood-opacity="0" result="BackgroundImageFix"/>
<feColorMatrix in="SourceAlpha" type="matrix" values="0 0 0 0 0 0 0 0 0 0 0 0 0 0 0 0 0 0 127 0" result="hardAlpha"/>
<feOffset dx="4" dy="4"/>
<feGaussianBlur stdDeviation="4"/>
<feComposite in2="hardAlpha" operator="out"/>
<feColorMatrix type="matrix" values="0 0 0 0 0.860853 0 0 0 0 0.88453 0 0 0 0 0.980183 0 0 0 1 0"/>
<feBlend mode="normal" in2="BackgroundImageFix" result="effect1_dropShadow_2494_4334"/>
<feBlend mode="normal" in="SourceGraphic" in2="effect1_dropShadow_2494_4334" result="shape"/>
</filter>
<linearGradient id="paint0_linear_2494_4334" x1="43" y1="12.5" x2="72.5" y2="81" gradientUnits="userSpaceOnUse">
<stop stop-color="#DFE4F2"/>
<stop offset="1" stop-color="#F7F3FF"/>
</linearGradient>
</defs>
</svg>
