<svg width="92" height="82" viewBox="0 0 92 82" fill="none" xmlns="http://www.w3.org/2000/svg">
<rect width="82" height="82" rx="16" fill="url(#paint0_linear_2224_7812)"/>
<path d="M0 0H66C74.8366 0 82 7.16344 82 16V17H0V0Z" fill="#9077A7"/>
<circle cx="8" cy="9" r="2" fill="#FAFAFA"/>
<circle cx="14" cy="9" r="2" fill="#FAFAFA"/>
<circle cx="20" cy="9" r="2" fill="#FAFAFA"/>
<path d="M7 24H83V74H16C11.0294 74 7 69.9706 7 65V24Z" fill="white"/>
<rect x="13" y="39" width="34" height="3" fill="#E8EAF7"/>
<rect x="13" y="48" width="34" height="20" fill="#E8EAF7"/>
<rect x="13" y="31" width="42" height="3" fill="#E8EAF7"/>
<rect x="22" y="55" width="4" height="10" rx="2" fill="#AE61F7"/>
<rect x="28" y="58" width="4" height="7" rx="2" fill="#AE61F7"/>
<rect x="34" y="52" width="4" height="13" rx="2" fill="#AE61F7"/>
<path d="M69.9375 57.3894C78.7395 57.3894 85.875 50.5069 85.875 42.017C85.875 33.527 78.7395 26.6445 69.9375 26.6445C61.1355 26.6445 54 33.527 54 42.017C54 50.5069 61.1355 57.3894 69.9375 57.3894Z" stroke="#9077A7" stroke-width="4" stroke-linejoin="round"/>
<path d="M81.3955 53.0703L89.3505 60.7432" stroke="#9077A7" stroke-width="4" stroke-linecap="round" stroke-linejoin="round"/>
<path d="M71.6663 42.4298H68.333V40.7856H71.6663V42.4298ZM71.6663 45.718H68.333V44.0739H71.6663V45.718ZM76.6663 39.1415H74.3247C73.9497 38.5003 73.433 37.9495 72.808 37.5303L74.1663 36.1903L72.9913 35.0312L71.183 36.8151C70.7997 36.7247 70.4163 36.6754 69.9997 36.6754C69.583 36.6754 69.1997 36.7247 68.8247 36.8151L67.008 35.0312L65.833 36.1903L67.183 37.5303C66.5663 37.9495 66.0497 38.5003 65.6747 39.1415H63.333V40.7856H65.0747C65.033 41.0569 64.9997 41.3282 64.9997 41.6077V42.4298H63.333V44.0739H64.9997V44.8959C64.9997 45.1754 65.033 45.4467 65.0747 45.718H63.333V47.3621H65.6747C66.5413 48.8336 68.1497 49.8283 69.9997 49.8283C71.8497 49.8283 73.458 48.8336 74.3247 47.3621H76.6663V45.718H74.9247C74.9663 45.4467 74.9997 45.1754 74.9997 44.8959V44.0739H76.6663V42.4298H74.9997V41.6077C74.9997 41.3282 74.9663 41.0569 74.9247 40.7856H76.6663V39.1415Z" fill="#FF52A8"/>
<defs>
<linearGradient id="paint0_linear_2224_7812" x1="13.7928" y1="11.0653" x2="72.5" y2="75" gradientUnits="userSpaceOnUse">
<stop stop-color="#DFE4F2"/>
<stop offset="1" stop-color="#F7F3FF"/>
</linearGradient>
</defs>
</svg>
