<svg width="87" height="82" viewBox="0 0 87 82" fill="none" xmlns="http://www.w3.org/2000/svg">
<rect x="5" width="82" height="82" rx="16" fill="url(#paint0_linear_2224_7841)"/>
<path d="M0 9L63.2812 10.1622L75 40.3784L11.7188 52L0 9Z" fill="white"/>
<path d="M63.9766 9.01562L75 40.5L11.6621 52L0 8.84961L63.9766 9.01562ZM22.4268 19.5469C19.5788 19.5469 17.5002 21.0859 16.7305 22.125H16.6533V20.1621H10.4961V46.6787H16.6533V37.9043H16.7305C17.5002 38.9434 19.5788 40.4834 22.4268 40.4834C27.6608 40.4834 31.0088 36.4802 31.0088 30.0146C31.0087 23.5492 27.6607 19.5469 22.4268 19.5469ZM42.7695 19.5059C36.6888 19.5059 32.7637 23.8935 32.7637 30.0127C32.7638 36.1703 36.6892 40.5195 42.9238 40.5195C48.5809 40.5194 52.1216 37.1325 52.4297 32.4375H46.2334C46.0409 34.2462 45.3092 35.9004 42.8848 35.9004C40.3065 35.9002 39.0752 33.7071 39.0752 30.0127C39.0752 26.3182 40.3449 24.1242 42.8848 24.124C45.3478 24.124 46.0409 25.8944 46.2334 27.5107H52.4297C51.9293 22.8925 48.4654 19.5059 42.7695 19.5059ZM54.7324 39.8672H60.8896V20.1621H54.7324V39.8672ZM20.7334 24.165C23.2349 24.1651 24.6972 26.1662 24.6973 30.0146C24.6973 33.8632 23.2349 35.8642 20.7334 35.8643C18.2318 35.8643 16.7695 33.8632 16.7695 30.0146C16.7696 26.1662 18.2319 24.165 20.7334 24.165ZM54.7324 17.8145H60.8896V12.3496H54.7324V17.8145Z" fill="#9077A7"/>
<path d="M53 59.7598C53 67.2156 59.0442 73.2598 66.5 73.2598C73.9558 73.2598 80 67.2156 80 59.7598C80 52.3039 73.9558 46.2598 66.5 46.2598C59.0442 46.2598 53 52.3039 53 59.7598Z" fill="white"/>
<path d="M71.8993 54.921L65.1687 62.5376L62.0899 59.3631C61.7505 59.0075 61.2901 58.8076 60.81 58.8076C60.33 58.8076 59.8696 59.0075 59.5301 59.3631C59.1907 59.7188 59 60.2012 59 60.7043C59 60.9533 59.0468 61.1999 59.1378 61.4301C59.2287 61.6602 59.3621 61.8692 59.5301 62.0454L63.997 66.712C64.3424 67.0571 64.7996 67.2528 65.2769 67.2598C65.525 67.2492 65.7684 67.185 65.9917 67.0712C66.2151 66.9575 66.4136 66.7966 66.5748 66.5987L74.5673 57.3765C74.7211 57.188 74.8381 56.9696 74.9114 56.7337C74.9847 56.4978 75.013 56.2491 74.9945 56.0018C74.9761 55.7545 74.9114 55.5134 74.8041 55.2923C74.6967 55.0712 74.5489 54.8744 74.369 54.7132C74.1891 54.552 73.9806 54.4294 73.7555 54.3526C73.5304 54.2758 73.2931 54.2462 73.057 54.2655C72.821 54.2848 72.5909 54.3526 72.3799 54.4651C72.1689 54.5775 71.9811 54.7324 71.8272 54.921H71.8993Z" fill="#FF52A8"/>
<path d="M42.3604 71.4197C42.4444 71.4197 42.4947 71.4141 42.6011 71.3973V72.0298C42.4108 72.0746 42.2485 72.0913 42.0693 72.0913C41.4424 72.0913 41.1738 71.8059 41.1738 71.1062V69.8412H40.7764V69.1696H41.1738V68.3691H42.0693V69.1696H42.5675V69.8412H42.0693V71.0838C42.0693 71.3917 42.1869 71.4197 42.3604 71.4197Z" fill="#9077A7" fill-opacity="0.5"/>
<path d="M39.5668 69.0801C40.121 69.0801 40.496 69.4439 40.496 70.0988V72.0355H39.6004V70.3842C39.6004 69.9533 39.4493 69.8077 39.1526 69.8077C38.8112 69.8077 38.6153 69.9812 38.6153 70.3787V72.0355H37.7197V69.1696H38.6153V69.5838H38.6265C38.7776 69.3208 39.0575 69.0801 39.5668 69.0801Z" fill="#9077A7" fill-opacity="0.5"/>
<path d="M35.3547 72.1247C34.795 72.1247 34.4424 71.7945 34.4424 71.2852C34.4424 70.6918 34.9293 70.4623 35.5395 70.3336C35.8529 70.2664 36.2951 70.2217 36.2951 69.9362C36.2951 69.7795 36.1719 69.6787 35.9145 69.6787C35.5842 69.6787 35.4331 69.8131 35.4051 70.0929H34.5543C34.5823 69.5444 34.9853 69.0742 35.9537 69.0742C36.7317 69.0742 37.1627 69.3877 37.1627 70.2664V71.3747C37.1627 71.5258 37.1795 71.593 37.269 71.593C37.2914 71.593 37.3082 71.593 37.3418 71.5874V72.0128C37.1627 72.0464 36.978 72.0632 36.8492 72.0632C36.491 72.0632 36.3567 71.9288 36.3119 71.6882H36.3007C36.0992 71.94 35.7689 72.1247 35.3547 72.1247ZM35.7298 71.509C36.088 71.509 36.2951 71.2068 36.2951 70.8765V70.6359C36.1775 70.6806 36.0432 70.7142 35.8081 70.7702C35.4779 70.8486 35.3603 70.9885 35.3603 71.19C35.3603 71.4083 35.5003 71.509 35.7298 71.509Z" fill="#9077A7" fill-opacity="0.5"/>
<path d="M34.0674 68.828H33.1719V68.0332H34.0674V68.828ZM34.0674 72.0353H33.1719V69.1695H34.0674V72.0353Z" fill="#9077A7" fill-opacity="0.5"/>
<path d="M32.6788 72.0353H31.7832V68.0332H32.6788V72.0353Z" fill="#9077A7" fill-opacity="0.5"/>
<path d="M30.157 69.0801C30.9183 69.0801 31.4052 69.6622 31.4052 70.6025C31.4052 71.5429 30.9183 72.125 30.157 72.125C29.7428 72.125 29.4406 71.9011 29.3286 71.75H29.3174V73.0262H28.4219V69.1696H29.3174V69.4551H29.3286C29.4406 69.304 29.7428 69.0801 30.157 69.0801ZM29.9108 71.4533C30.2746 71.4533 30.4873 71.1623 30.4873 70.6025C30.4873 70.0428 30.2746 69.7518 29.9108 69.7518C29.5469 69.7518 29.3342 70.0428 29.3342 70.6025C29.3342 71.1623 29.5469 71.4533 29.9108 71.4533Z" fill="#9077A7" fill-opacity="0.5"/>
<path d="M27.0283 69.0801C27.6048 69.0801 27.9462 69.4439 27.9462 70.0988V72.0355H27.0394V70.3842C27.0394 69.9533 26.9499 69.8077 26.6308 69.8077C26.3454 69.8077 26.1663 69.9812 26.1663 70.3787V72.0355H25.2707V70.3842C25.2707 69.9533 25.1811 69.8077 24.8621 69.8077C24.5822 69.8077 24.3975 69.9812 24.3975 70.3787V72.0355H23.502V69.1696H24.3975V69.5838H24.4087C24.5598 69.3208 24.8733 69.0801 25.3043 69.0801C25.6793 69.0801 25.9424 69.2872 26.0543 69.5838H26.0655C26.3118 69.2984 26.5637 69.0801 27.0283 69.0801Z" fill="#9077A7" fill-opacity="0.5"/>
<path d="M21.5947 72.1303C20.6488 72.1303 20.0723 71.5146 20.0723 70.6079C20.0723 69.7067 20.6488 69.0742 21.6115 69.0742C22.5575 69.0742 23.134 69.6899 23.134 70.5911C23.134 71.4978 22.5575 72.1303 21.5947 72.1303ZM21.6059 71.4587C22.0033 71.4587 22.2272 71.1564 22.2272 70.6023C22.2272 70.0481 22.0033 69.7459 21.6059 69.7459C21.2029 69.7459 20.979 70.0481 20.979 70.6023C20.979 71.1564 21.2029 71.4587 21.6059 71.4587Z" fill="#9077A7" fill-opacity="0.5"/>
<path d="M18.4777 72.1303C17.5709 72.1303 17 71.4978 17 70.6023C17 69.7123 17.5709 69.0742 18.4553 69.0742C19.2837 69.0742 19.7875 69.5668 19.8602 70.2385H18.9591C18.9311 70.0034 18.8303 69.7459 18.4721 69.7459C18.1027 69.7459 17.918 70.0649 17.918 70.6023C17.918 71.1396 18.0971 71.4587 18.4721 71.4587C18.8247 71.4587 18.9311 71.218 18.9591 70.9549H19.8602C19.8154 71.6378 19.3005 72.1303 18.4777 72.1303Z" fill="#9077A7" fill-opacity="0.5"/>
<path d="M38.9531 66.2611C36.6503 66.2611 34.9141 65.0913 34.9141 63.0718H37.1552C37.1552 64.0938 37.931 64.4756 38.9284 64.4756C39.7535 64.4756 40.1722 64.1431 40.1722 63.6875C40.1722 62.9363 39.2979 62.7393 38.0788 62.3699C36.5518 61.9019 35.185 61.3108 35.185 59.7347C35.185 57.8137 36.6873 57.0625 38.5837 57.0625C40.6401 57.0625 42.2532 58.1461 42.3148 59.9317H40.0737C39.9751 59.2544 39.4333 58.848 38.5837 58.848C37.9187 58.848 37.4508 59.0697 37.4508 59.5746C37.4508 60.1656 37.9433 60.3627 39.0639 60.6951C40.7263 61.1877 42.438 61.6556 42.438 63.4781C42.438 65.1651 41.1573 66.2611 38.9531 66.2611Z" fill="#9077A7" fill-opacity="0.5"/>
<path d="M30.4902 66.2611C28.1875 66.2611 26.4512 65.0913 26.4512 63.0718H28.6923C28.6923 64.0938 29.4681 64.4756 30.4656 64.4756C31.2906 64.4756 31.7093 64.1431 31.7093 63.6875C31.7093 62.9363 30.835 62.7393 29.6159 62.3699C28.0889 61.9019 26.7221 61.3108 26.7221 59.7347C26.7221 57.8137 28.2244 57.0625 30.1208 57.0625C32.1772 57.0625 33.7903 58.1461 33.8519 59.9317H31.6108C31.5122 59.2544 30.9704 58.848 30.1208 58.848C29.4558 58.848 28.9879 59.0697 28.9879 59.5746C28.9879 60.1656 29.4804 60.3627 30.601 60.6951C32.2634 61.1877 33.9751 61.6556 33.9751 63.4781C33.9751 65.1651 32.6944 66.2611 30.4902 66.2611Z" fill="#9077A7" fill-opacity="0.5"/>
<path d="M21.6419 66.0643H17.6152V57.2598H21.5188C23.9693 57.2598 25.447 58.836 25.447 61.6682C25.447 64.5004 24.0924 66.0643 21.6419 66.0643ZM19.8318 64.2541H21.2479C22.6271 64.2541 23.1812 63.269 23.1812 61.6682C23.1812 60.0674 22.6271 59.0699 21.2479 59.0699H19.8318V64.2541Z" fill="#9077A7" fill-opacity="0.5"/>
<defs>
<linearGradient id="paint0_linear_2224_7841" x1="18.7928" y1="11.0653" x2="77.5" y2="75" gradientUnits="userSpaceOnUse">
<stop stop-color="#DFE4F2"/>
<stop offset="1" stop-color="#F7F3FF"/>
</linearGradient>
</defs>
</svg>
