<svg width="70" height="48" viewBox="0 0 70 48" fill="none" xmlns="http://www.w3.org/2000/svg">
<rect x="0.5" y="0.5" width="69" height="47" rx="5.5" fill="white" stroke="#D9D9D9"/>
<path d="M13.2607 24.6875C15.3471 24.6876 16.9473 25.6229 16.9473 27.9248V33.498H14.6602V32.168C14.1402 33.0682 13.0468 33.75 11.8203 33.75C10.1007 33.7498 9 32.8142 9 31.2686C9.00002 29.3183 10.9848 28.6207 13.5137 28.291C14.1913 28.2034 14.5506 27.9799 14.5508 27.5352C14.5508 26.877 14.0099 26.5489 13.0312 26.5488C12.0007 26.5488 10.858 27.1014 10.1514 27.748L9.34668 26.0547C10.2274 25.3527 11.8509 24.6875 13.2607 24.6875ZM34.1729 24.9395V33.499H31.7295V24.9395H34.1729ZM28.9492 20.6602C30.3235 20.6602 31.0871 21.1483 31.1055 21.1602L30.3506 22.8857C30.338 22.8787 29.8631 22.6134 29.2559 22.6133C28.698 22.6133 28.051 22.9367 28.0508 24.0684V24.9395H30.2686V26.8271H28.0508V33.498H25.6045V26.8271H21.8916V33.498H19.4453V26.8271H18.0254V24.9395H19.4453V24.3096C19.4454 21.542 21.2258 20.6602 22.79 20.6602C23.7718 20.6602 24.4956 20.8951 24.9463 21.1602L24.1914 22.8857C23.8389 22.6865 23.4126 22.6133 23.0957 22.6133C22.539 22.6133 21.8918 22.9367 21.8916 24.0684V24.9395H25.6045V24.3096C25.6046 21.542 27.385 20.6602 28.9492 20.6602ZM41.0859 24.6875C41.4097 24.6875 41.8048 24.7236 42.1826 24.8848L41.7363 27.1475C41.4482 26.9322 41.013 26.8389 40.6904 26.8389C39.8628 26.8389 38.6758 27.4142 38.6758 29.375V33.498H36.2275V24.9395H38.5137V26.3779C39.0359 25.2459 39.8271 24.6875 41.0859 24.6875ZM53.5322 24.6885C55.0963 24.6886 56.3906 25.6592 56.3906 27.583V33.498H53.9443V28.3564C53.9443 27.2233 53.2619 26.7529 52.6152 26.7529C51.8061 26.7531 50.9971 27.4929 50.9971 29.0928V33.498H48.5508V28.373C48.5507 27.2056 47.9076 26.753 47.208 26.7529C46.4345 26.7529 45.6064 27.5101 45.6064 29.0928V33.498H43.1572V24.9395H45.5166V26.2334C45.9305 25.407 46.8267 24.6885 48.1211 24.6885C49.3072 24.6885 50.2986 25.2381 50.7666 26.1914C51.2703 25.4537 52.2377 24.6885 53.5322 24.6885ZM14.501 29.6191C12.5278 29.8278 11.4466 30.1584 11.4463 31.124C11.4463 31.6462 11.7669 31.9629 12.4102 31.9629C13.6272 31.9627 14.5009 30.9112 14.501 29.6191Z" fill="#060809"/>
<path fill-rule="evenodd" clip-rule="evenodd" d="M45.9867 13C39.3792 13 33.4898 17.5868 31.8184 23.4842H34.2138C35.6097 19.0922 40.3486 15.2375 45.9867 15.2375C52.8397 15.2375 58.7625 20.4548 58.7625 28.577C58.7625 30.4006 58.5262 32.0444 58.0789 33.4969H60.4029L60.4259 33.4173C60.8063 31.9188 61 30.2911 61 28.577C61 19.5187 54.3994 13 45.9867 13Z" fill="#0FA0EA"/>
</svg>
