<svg width="70" height="48" viewBox="0 0 70 48" fill="none" xmlns="http://www.w3.org/2000/svg">
<rect x="0.5" y="0.5" width="69" height="47" rx="5.5" fill="white" stroke="#D9D9D9"/>
<path d="M62.9867 21.1454L62.9999 21.1309H60.9076L59.5863 25.711H59.5162L57.9992 21.1309H55.5127L58.5044 28.6895L57.2546 30.9934V31.049H59.2067L62.9867 21.1454Z" fill="black"/>
<path d="M39.7911 21.1309H37.5718V28.6617H39.7911V21.1309Z" fill="black"/>
<path d="M55.0763 26.7788V23.6323C55.0763 21.9182 54.0645 20.9766 52.2803 20.9766C51.1416 20.9766 50.3559 21.1736 48.9223 21.6088L49.3151 23.3374C50.6218 22.7475 51.1971 22.4949 51.8015 22.4949C52.5316 22.4949 52.8557 23.0147 52.8557 23.8162V23.8717C50.3123 24.3492 49.5254 24.6163 49.0347 25.1083C48.6696 25.4734 48.5149 25.9932 48.5149 26.5976C48.5149 28.0445 49.6391 28.8169 50.6919 28.8169C51.4788 28.8169 52.111 28.522 52.9681 27.8752L53.1228 28.6622H55.3421L55.0763 26.7788ZM52.857 26.8357C52.2671 27.1584 51.9298 27.2853 51.537 27.2853C51.0027 27.2853 50.6654 26.9335 50.6654 26.3727C50.6654 26.1625 50.7078 25.9508 50.8757 25.7829C51.1429 25.5157 51.6627 25.3186 52.857 25.0383V26.8357Z" fill="black"/>
<path d="M45.313 20.9766C44.4983 20.9766 43.8661 21.286 43.1492 21.8759V21.1313H40.9299V31.0494H43.1492V28.5907C43.5712 28.7032 43.964 28.76 44.4414 28.76C46.4227 28.76 48.2069 27.2986 48.2069 24.6997C48.2069 22.3679 46.9147 20.9766 45.313 20.9766ZM43.9071 27.3687C43.6545 27.3687 43.4151 27.3409 43.1479 27.2562V23.1827C43.6122 22.8599 43.9904 22.7052 44.4679 22.7052C45.2971 22.7052 45.9571 23.3652 45.9571 24.7711C45.9584 26.5685 44.989 27.3687 43.9071 27.3687Z" fill="black"/>
<path d="M18.7592 17.252H9.24312C8.00385 17.252 7 18.2651 7 19.5136V29.1103C7 30.3589 8.00385 31.372 9.24312 31.372H18.7592C19.9985 31.372 21.001 30.3589 21.001 29.1103V19.5136C21.0023 18.2637 19.9985 17.252 18.7592 17.252Z" fill="#1677FF"/>
<path d="M18.5278 26.1183C17.9684 25.9291 17.2158 25.6395 16.3786 25.334C16.8812 24.4518 17.2833 23.4479 17.5478 22.3568H14.7875V21.3543H18.1681V20.7948H14.7875V19.123H13.4081C13.166 19.123 13.166 19.3638 13.166 19.3638V20.7935H9.74712V21.3529H13.166V22.3555H10.3423V22.9149H15.8178C15.6181 23.6106 15.3483 24.2653 15.0296 24.8591C13.2533 24.2679 11.3567 23.7892 10.1664 24.0841C9.40457 24.2732 8.91388 24.6105 8.62556 24.965C7.30296 26.5878 8.25126 29.0531 11.0446 29.0531C12.6965 29.0531 14.2876 28.1246 15.5202 26.5944C17.36 27.4858 21.0011 29.0174 21.0011 29.0174V26.8351C21.0024 26.8351 20.5448 26.7981 18.5278 26.1183ZM10.784 28.1101C8.60572 28.1101 7.96162 26.3801 9.03821 25.4332C9.39795 25.1131 10.054 24.957 10.4031 24.9226C11.6966 24.7943 12.8949 25.2916 14.3088 25.9873C13.3155 27.294 12.0498 28.1101 10.784 28.1101Z" fill="white"/>
<path d="M29.943 18.7578H26.9645L23.6355 28.6627H25.6868L26.2489 26.7238H29.775L30.3093 28.6627H32.936L29.943 18.7578ZM26.7119 25.1076L28.0318 20.542H28.0874L29.3372 25.1076H26.7119Z" fill="black"/>
<path d="M36.0535 18.4043H33.8342V28.6597H36.0535V18.4043Z" fill="black"/>
<path d="M37.4026 19.3197C37.4026 20.0498 37.9369 20.5418 38.6815 20.5418C39.4262 20.5418 39.9605 20.0498 39.9605 19.3197C39.9605 18.6029 39.4262 18.0977 38.6815 18.0977C37.9369 18.0977 37.4026 18.6029 37.4026 19.3197Z" fill="#1677FF"/>
</svg>
