<svg width="70" height="48" viewBox="0 0 70 48" fill="none" xmlns="http://www.w3.org/2000/svg">
<rect x="0.5" y="0.5" width="69" height="47" rx="5.5" fill="white" stroke="#D9D9D9"/>
<path fill-rule="evenodd" clip-rule="evenodd" d="M42.2082 33.69C42.6023 32.6894 43.4794 30.4471 43.0623 29.9038H43.0654C42.6501 29.3593 40.3194 29.645 39.2711 29.7735L39.2689 29.7738C38.9499 29.813 38.9009 29.5296 39.1876 29.3244C41.049 27.9888 44.0988 28.3708 44.453 28.8218C44.8072 29.2728 44.3564 32.3951 42.613 33.8858C42.3447 34.1144 42.0886 33.9922 42.2082 33.69ZM29.6825 35.234C33.7366 35.234 38.4577 33.9265 41.7099 31.4759V31.4806C42.2481 31.0673 41.7866 30.4597 41.2376 30.6977C37.6877 32.2268 33.8771 33.025 30.0244 33.0465C24.6792 33.0465 19.5089 31.5495 15.326 29.0645C14.9595 28.8469 14.6866 29.2305 14.9932 29.5108C19.0202 33.2212 24.2588 35.2622 29.6825 35.234Z" fill="#FF9900"/>
<path d="M11.1641 18.0234C12.0074 18.0234 13.1091 18.2519 13.7715 18.9033C14.5489 19.6467 14.5443 20.6201 14.5391 21.6836C14.5386 21.7714 14.5381 21.8603 14.5381 21.9492V24.7031C14.5381 25.4449 14.8069 25.8145 15.0908 26.2031C15.1245 26.2492 15.1587 26.2954 15.1924 26.3428C15.3028 26.4994 15.3273 26.6951 15.1924 26.8125C14.8382 27.1147 14.2092 27.6726 13.8643 27.9873L13.8506 27.9844C13.7366 28.085 13.5728 28.1019 13.4414 28.0264C12.9509 27.6096 12.8032 27.384 12.5762 27.0381C12.5371 26.9786 12.4951 26.9149 12.4492 26.8467C11.497 27.8363 10.824 28.1328 9.59277 28.1328C8.13462 28.1328 7 27.2133 7 25.375C7.00007 23.9392 7.76658 22.9635 8.83984 22.4844C9.63241 22.1292 10.6902 22.0191 11.6045 21.9238C11.7744 21.9061 11.9393 21.8892 12.0967 21.8711V21.6426C12.0967 21.5989 12.0973 21.5538 12.0977 21.5088C12.1007 21.1191 12.1037 20.6854 11.8867 20.3584C11.6752 20.0328 11.2737 19.8995 10.915 19.8994C10.2542 19.8994 9.66466 20.2454 9.52051 20.9609C9.50224 21.1279 9.37649 21.2619 9.21387 21.2871L7.54883 21.1006C7.46577 21.0884 7.39144 21.0415 7.34277 20.9717C7.29417 20.9019 7.27507 20.8146 7.29102 20.7305C7.67598 18.6515 9.51594 18.0236 11.1641 18.0234ZM33.8672 18.0176C34.7088 18.0177 35.8098 18.2464 36.4736 18.8975C37.1093 19.5011 37.2234 20.2558 37.2402 21.0879V24.6992C37.2404 25.5272 37.5782 25.8907 37.8955 26.3369C38.0117 26.4996 38.0362 26.6909 37.8877 26.7988C37.5335 27.101 36.9046 27.6605 36.5596 27.9736C36.445 28.0728 36.2816 28.0884 36.1504 28.0137C35.5758 27.5255 35.4727 27.3042 35.1572 26.835C34.2067 27.8245 33.5282 28.12 32.3018 28.1201C30.8437 28.1201 29.7091 27.2007 29.709 25.3643C29.7091 23.927 30.4712 22.9518 31.5566 22.4727C32.495 22.0515 33.8092 21.9746 34.8135 21.8604V21.6367C34.8135 21.2157 34.845 20.7168 34.6016 20.3535C34.3961 20.0283 33.9869 19.8937 33.6299 19.8936C32.969 19.8936 32.383 20.2395 32.2373 20.9551C32.2184 21.1215 32.0928 21.2554 31.9307 21.2812L30.252 21.0957C30.1685 21.084 30.093 21.0377 30.0439 20.9678C29.9949 20.8976 29.9759 20.8092 29.9922 20.7246C30.3787 18.6439 32.219 18.0176 33.8672 18.0176ZM50.6045 18.0127C53.1756 18.0129 54.5663 20.2675 54.5664 23.1328C54.5663 25.9026 53.0331 28.0994 50.6045 28.0996C48.0825 28.0993 46.7081 25.8444 46.708 23.0371C46.7081 20.2299 48.0995 18.013 50.6045 18.0127ZM25.373 18.0449C26.2859 17.9006 27.2045 18.2701 27.7754 19.0117C28.3256 19.7758 28.2119 20.8908 28.2119 21.8584V27.5879C28.2103 27.6766 28.174 27.7609 28.1113 27.8223C28.0486 27.8836 27.9647 27.917 27.8779 27.915H26.1465C25.9763 27.9058 25.842 27.7629 25.8398 27.5889V22.7754C25.8399 22.393 25.8722 21.4383 25.791 21.0752C25.6622 20.4646 25.2738 20.292 24.7725 20.292C24.313 20.3065 23.9056 20.5993 23.7373 21.0361C23.604 21.3814 23.5792 21.8966 23.5752 22.3506V27.5879C23.5735 27.6761 23.5377 27.76 23.4756 27.8213C23.4132 27.8827 23.3288 27.9166 23.2422 27.915H21.5068C21.3369 27.9051 21.2031 27.7627 21.2002 27.5889V22.7754C21.2002 21.7623 21.3533 20.2706 20.127 20.2705C18.9005 20.2705 18.9307 21.7216 18.9307 22.7754V27.5879C18.929 27.6766 18.8928 27.7609 18.8301 27.8223C18.7674 27.8836 18.6835 27.917 18.5967 27.915H16.8643C16.7038 27.9064 16.5735 27.7795 16.5576 27.6162V18.5342C16.5634 18.3522 16.7104 18.2082 16.8887 18.21H18.5029C18.6684 18.2193 18.8004 18.3545 18.8096 18.5234V19.708H18.8418C19.262 18.5604 20.055 18.0264 21.1221 18.0264C22.1891 18.0264 22.8841 18.5604 23.3701 19.708C23.6947 18.8249 24.4603 18.1893 25.373 18.0449ZM60.5254 18C61.3012 18 62.0588 18.2865 62.5479 19.0693C63.0002 19.7959 63 21.019 63 21.8975V27.6113C62.9746 27.778 62.8321 27.9 62.667 27.8965H60.9258C60.7696 27.8896 60.6406 27.7694 60.6191 27.6113V22.6807C60.6191 21.688 60.7322 20.2348 59.5352 20.2344C59.0906 20.2554 58.6986 20.5394 58.5322 20.9609C58.29 21.5152 58.2578 22.0698 58.2578 22.6836V27.5703C58.2512 27.7547 58.1005 27.9 57.9199 27.8965H56.1924C56.0221 27.8873 55.8879 27.7444 55.8857 27.5703V18.4883C55.9042 18.3161 56.0482 18.1873 56.2178 18.1914H57.8252C57.9714 18.1963 58.0968 18.2994 58.1318 18.4443V19.834H58.165C58.6496 18.5923 59.3294 18 60.5254 18ZM45.3779 18.1758C45.4643 18.1729 45.5485 18.2059 45.6104 18.2676C45.6722 18.3294 45.7069 18.4146 45.7061 18.5029V19.6162C45.7059 19.8025 45.5525 20.0468 45.2783 20.4316L42.3281 24.7314C43.4228 24.7049 44.5802 24.8729 45.5752 25.4443C45.759 25.5444 45.876 25.7376 45.8818 25.9502V27.3398C45.8818 27.5309 45.6781 27.752 45.4619 27.6377C43.5734 26.6464 41.3313 26.6503 39.4463 27.6484C39.2485 27.7563 39.042 27.5387 39.042 27.3477V26.0254C39.0239 25.7135 39.0979 25.4026 39.2539 25.1338L42.6709 20.123H39.6904C39.6037 20.1265 39.5193 20.0939 39.457 20.0322C39.3947 19.9704 39.3594 19.8846 39.3604 19.7959V18.5029C39.3563 18.4144 39.3896 18.328 39.4512 18.2656C39.5128 18.2032 39.5979 18.1708 39.6846 18.1758H45.3779ZM12.1045 23.291C10.8518 23.291 9.52838 23.565 9.52832 25.0713C9.52832 25.8385 9.91627 26.3554 10.5801 26.3555C11.0677 26.3555 11.5053 26.0487 11.7812 25.5508C12.106 24.9611 12.1051 24.4081 12.1045 23.7568V23.291ZM34.8164 23.2832C33.5638 23.2832 32.2405 23.556 32.2402 25.0635C32.2404 25.8288 32.6284 26.3465 33.292 26.3467C33.7778 26.3465 34.2168 26.0391 34.4912 25.543C34.8284 24.9294 34.8164 24.3562 34.8164 23.666V23.2832ZM50.6211 19.8662C49.3443 19.8667 49.2627 21.6425 49.2627 22.751C49.2627 23.8595 49.2481 26.227 50.6045 26.2275C51.9611 26.2272 52.0117 24.3163 52.0117 23.1514C52.0117 22.3874 51.9798 21.4699 51.7529 20.7451C51.5582 20.1188 51.17 19.8662 50.6211 19.8662Z" fill="black"/>
</svg>
