<svg width="70" height="48" viewBox="0 0 70 48" fill="none" xmlns="http://www.w3.org/2000/svg">
<rect x="0.5" y="0.5" width="69" height="47" rx="5.5" fill="white" stroke="#D9D9D9"/>
<path d="M56.2627 19.8252L55.7119 22.1689L54.877 25.7012C54.801 25.9958 54.7534 26.2715 54.7344 26.5273C54.7154 26.7835 54.7467 27.0042 54.8291 27.1895C54.9113 27.3751 55.0535 27.5188 55.2559 27.6211C55.4582 27.7237 55.7372 27.7754 56.0918 27.7754C56.3955 27.7754 56.6899 27.7461 56.9746 27.6885C57.1262 27.6578 57.2792 27.6188 57.4326 27.5752L57.6523 26.6387H57.6494L59.249 19.8311H62L61.6377 21.373C61.6399 21.374 61.6422 21.3749 61.6445 21.376L59.7412 29.4678C59.5564 30.2777 59.3133 30.9784 59.0117 31.5703C58.7098 32.1617 58.3334 32.6545 57.8838 33.0469C57.4342 33.4392 56.8956 33.7317 56.2676 33.9248C55.6393 34.1178 54.906 34.2148 54.0684 34.2148C53.62 34.2148 53.2138 34.1896 52.8477 34.1416L53.3896 31.8389C53.6666 31.8776 53.9722 31.8975 54.3086 31.8975C55.0968 31.8975 55.6912 31.7195 56.0918 31.3643C56.4919 31.0094 56.7411 30.5547 56.8643 29.9941L56.8662 29.9893C56.8488 29.9936 56.8313 29.9979 56.8135 30.002C56.3703 30.1044 55.8449 30.1562 55.2373 30.1562C54.3642 30.1562 53.6868 30.0247 53.2061 29.7627C52.7248 29.5005 52.383 29.1411 52.1807 28.6865C51.9782 28.2325 51.8894 27.7107 51.915 27.1221C51.9402 26.5334 52.0289 25.9125 52.1807 25.2598L53.4531 19.8252H56.2627ZM37.1436 19.832C37.8387 19.8321 38.4376 19.939 38.9404 20.1523C39.4435 20.366 39.8566 20.658 40.1797 21.0283C40.5022 21.3989 40.7411 21.8324 40.8965 22.3281C41.0514 22.8244 41.1289 23.355 41.1289 23.9199C41.1289 24.8368 40.9806 25.675 40.6826 26.4346C40.3847 27.1946 39.971 27.851 39.4434 28.4033C38.9154 28.956 38.2823 29.3858 37.5439 29.6934C36.805 30.0009 36.0001 30.1553 35.1309 30.1553C34.7087 30.1553 34.2862 30.1174 33.8643 30.042L33.0264 33.4521H30.2695L33.4697 19.832C33.9356 19.8317 36.3985 19.832 37.1436 19.832ZM21.8838 30.1582H19.1338L21.5615 19.8252H24.3125L21.8838 30.1582ZM28.748 19.8281H31.9004L31.3301 22.1709H28.1982L27.3623 25.7031C27.2863 25.9978 27.2388 26.2734 27.2197 26.5293C27.2009 26.7853 27.2329 27.0061 27.3154 27.1914C27.3976 27.3771 27.5394 27.5217 27.7422 27.624C27.9443 27.7266 28.223 27.7773 28.5771 27.7773C28.8808 27.7773 29.1753 27.748 29.46 27.6904C29.6462 27.6528 29.8398 27.6084 30.0322 27.542L29.459 29.9658C29.4139 29.9769 29.3444 29.9933 29.2988 30.0039C28.8558 30.1062 28.3309 30.1582 27.7236 30.1582C26.8502 30.1582 26.1722 30.0269 25.6914 29.7646C25.2105 29.5025 24.8693 29.1437 24.667 28.6895C24.4644 28.2352 24.3758 27.713 24.4014 27.124C24.4266 26.5356 24.5152 25.9144 24.667 25.2617L26.5273 17.3125L29.4697 16.8516L28.748 19.8281ZM13.9414 20.1826C14.1882 20.0703 14.4217 19.9894 14.6689 19.9268C14.9156 19.8644 15.1809 19.833 15.4648 19.833C16.0577 19.833 16.5704 19.9391 17.0029 20.1514C17.435 20.3638 17.793 20.6515 18.0771 21.0137C18.3609 21.376 18.571 21.8001 18.707 22.2871C18.8428 22.7742 18.9111 23.2994 18.9111 23.8613C18.9111 24.7229 18.7533 25.5377 18.4385 26.3057C18.1235 27.0737 17.6946 27.7423 17.1514 28.3105C16.6078 28.8789 15.9655 29.3285 15.2246 29.6592C14.4838 29.99 13.6806 30.1562 12.8164 30.1562C12.7053 30.1562 12.5103 30.1526 12.2324 30.1465C11.9546 30.14 11.6363 30.1123 11.2783 30.0625C10.9202 30.0124 10.5407 29.9368 10.1396 29.8369C9.73806 29.7371 9.35808 29.5999 9 29.4248L12.2051 15.8047L15.0762 15.3555L13.9414 20.1826ZM50.4619 25.6465C50.289 26.3576 50.2395 27.0718 50.3135 27.7891C50.3877 28.5067 50.6593 29.606 50.9238 30.1562H48.2617C47.9366 29.6 47.9512 29.339 47.8896 29.1641C47.5442 29.4512 47.1614 29.6879 46.7422 29.875C46.3227 30.0621 45.8541 30.1562 45.3359 30.1562C44.7191 30.1562 44.1916 30.0462 43.7539 29.8281C43.3159 29.6099 42.9581 29.3172 42.6807 28.9492C42.4031 28.5815 42.2021 28.151 42.0791 27.6582C41.9555 27.1655 41.8945 26.6376 41.8945 26.0762C41.8946 25.2155 42.0452 24.4044 42.3477 23.6436C42.6498 22.8828 43.0699 22.2181 43.6064 21.6504C44.1432 21.0826 45.438 19.8311 47.5625 19.8311H51.8301L50.4619 25.6465ZM34.3672 27.7812C34.5783 27.8316 34.8398 27.8564 35.1504 27.8564C35.6345 27.8564 36.0751 27.7661 36.4727 27.584C36.8699 27.402 37.2079 27.1471 37.4873 26.8203C37.7667 26.4939 37.9842 26.1021 38.1396 25.6436C38.2947 25.1852 38.3721 24.6797 38.3721 24.127C38.3721 23.5872 38.2543 23.1286 38.0186 22.752C37.7825 22.3751 37.3688 22.1743 36.7852 22.1719C36.3771 22.1703 35.6992 22.1709 35.6992 22.1709L34.3672 27.7812ZM14.7334 22.1709C14.5604 22.1709 14.3813 22.1876 14.1035 22.25C13.8258 22.3127 13.5863 22.4422 13.3643 22.6416L12.1562 27.7812C12.5132 27.8445 12.637 27.8516 12.7236 27.8516H13.0566C13.4887 27.8516 13.8965 27.7456 14.2793 27.5332C14.662 27.321 14.9926 27.0365 15.2705 26.6807C15.5482 26.3247 15.7681 25.9222 15.9287 25.4727C16.089 25.0232 16.1689 24.5545 16.1689 24.0674C16.1689 23.468 16.0704 22.9992 15.873 22.6621C15.6753 22.3247 15.2641 22.1709 14.7334 22.1709ZM48.5088 22.1709C47.2262 22.1709 46.9806 22.1706 46.4551 22.4463C46.0822 22.6419 45.7731 22.9364 45.502 23.2793C45.2307 23.6223 45.0182 24.0181 44.8643 24.4668C44.7098 24.9161 44.6328 25.3846 44.6328 25.8711C44.6329 26.4696 44.7312 26.9439 44.9287 27.293C45.1257 27.6424 45.4901 27.8164 46.0205 27.8164C46.304 27.8164 46.5598 27.7607 46.7881 27.6484C47.0162 27.5362 47.2605 27.3489 47.5195 27.0869C47.5442 26.7753 47.5841 26.4478 47.6396 26.1045C47.6951 25.7616 47.7653 25.4435 47.8271 25.1562L48.5088 22.1709ZM24.5977 18.6309H21.8467L22.2686 16.8359H25.0195L24.5977 18.6309Z" fill="#002855"/>
</svg>
