<svg width="70" height="48" viewBox="0 0 70 48" fill="none" xmlns="http://www.w3.org/2000/svg">
<rect x="0.5" y="0.5" width="69" height="47" rx="5.5" fill="white" stroke="#D9D9D9"/>
<path d="M23.8353 25.1113C23.274 27.8167 20.8374 29.851 17.9169 29.851C17.2469 29.851 16.6019 29.7436 16.0001 29.5457L14.6587 33.4816C15.6824 33.8182 16.7778 34.0002 17.9169 34.0002C22.8811 34.0002 27.0219 30.5409 27.9762 25.944L23.8353 25.1113Z" fill="#EC412A"/>
<path d="M62.3789 25.9551C61.8119 28.6437 59.3514 30.667 56.4043 30.667C55.728 30.667 55.0779 30.56 54.4697 30.3633L55.2666 28.0615C55.6242 28.177 56.0065 28.2402 56.4043 28.2402C58.1383 28.2402 59.5856 27.0495 59.919 25.4678L62.3789 25.9551ZM42.7666 28.9883C41.6465 30.0483 40.1061 30.6903 38.416 30.666C37.2551 30.6486 36.178 30.319 35.2647 29.7607L36.5987 27.7051C37.1366 28.0345 37.7693 28.2331 38.4522 28.2441C39.4483 28.2578 40.3503 27.8758 41.0156 27.25L42.7666 28.9883ZM47.9053 27.6035L49.9473 28.4219L48.9815 30.666L46.961 29.8545C46.5073 29.6641 46.2002 29.3742 45.9668 29.0469C45.7426 28.7116 45.5762 28.253 45.5762 27.6348V16.2227H47.9053V27.6035ZM54.0274 22.1748C53.2857 22.8099 52.8184 23.7379 52.8184 24.7715C52.8184 25.8061 53.2859 26.7346 54.0283 27.3701L52.3662 29.1875C51.1039 28.1072 50.3086 26.5297 50.3086 24.7715C50.3086 23.0155 51.1032 21.4374 52.3643 20.3574L54.0274 22.1748ZM38.6016 18.8789C41.4558 18.9224 43.8203 20.8555 44.4414 23.4268L33.4024 27.9893C32.7611 27.0412 32.3964 25.9004 32.416 24.6807C32.467 21.4263 35.2386 18.8291 38.6016 18.8789ZM38.5645 21.3037C36.5832 21.2722 34.9516 22.8024 34.9199 24.7197C34.9159 24.8609 34.9263 25.0012 34.9414 25.1377L41.2481 22.5342C40.6007 21.7952 39.6428 21.3176 38.5645 21.3037ZM56.4043 18.877C59.354 18.877 61.8147 20.9032 62.3789 23.5947L59.919 24.0791C59.5873 22.4953 58.1397 21.3037 56.4043 21.3037C56.0068 21.3038 55.6246 21.3656 55.2676 21.4814L54.4727 19.1787C55.0791 18.9829 55.7285 18.877 56.4043 18.877Z" fill="black"/>
<path d="M11.0688 31.7782L13.5489 28.5759C12.4419 27.4561 11.7432 25.8213 11.7432 23.9991C11.7432 22.1783 12.4412 20.5435 13.548 19.4246L11.0665 16.2227C9.18543 18.1251 8 20.904 8 23.9991C8 27.0959 9.18716 29.8758 11.0688 31.7782Z" fill="#1BA7DE"/>
<path d="M15.9982 18.4506C16.6 18.2533 17.2437 18.1462 17.9134 18.1462C20.8365 18.1462 23.2747 20.1831 23.834 22.8889L27.9762 22.0604C27.0257 17.4617 22.8821 14 17.9134 14C16.7758 14 15.6809 14.1818 14.6587 14.5167L15.9982 18.4506Z" fill="#FECA2F"/>
</svg>
