<svg width="70" height="48" viewBox="0 0 70 48" fill="none" xmlns="http://www.w3.org/2000/svg">
<rect x="0.5" y="0.5" width="69" height="47" rx="5.5" fill="white" stroke="#D9D9D9"/>
<path fill-rule="evenodd" clip-rule="evenodd" d="M17.9462 14H18.0031V15.4461H17.9462C14.278 15.4461 11.174 17.8617 10.1415 21.1907L8.76099 20.7522C9.98048 16.8392 13.6308 14 17.9462 14Z" fill="url(#paint0_linear_2216_5317)"/>
<path fill-rule="evenodd" clip-rule="evenodd" d="M18.003 15.4461V14H17.946C22.2744 14 25.9362 16.8591 27.1427 20.7919L25.7638 21.232C24.7492 17.8998 21.6614 15.4709 18.003 15.4461Z" fill="url(#paint1_linear_2216_5317)"/>
<path fill-rule="evenodd" clip-rule="evenodd" d="M22.7476 30.2246L23.598 31.396C21.9487 32.5933 19.972 33.2344 17.946 33.2293C15.9514 33.2346 14.0038 32.6134 12.3689 31.4506L13.2209 30.2792C14.5542 31.2273 16.1851 31.7848 17.946 31.7848C19.7411 31.7848 21.3997 31.2058 22.7476 30.2246Z" fill="url(#paint2_linear_2216_5317)"/>
<path fill-rule="evenodd" clip-rule="evenodd" d="M8.76251 20.752L10.1414 21.1904C9.89823 21.9746 9.77484 22.7921 9.77551 23.6143C9.77551 26.3658 11.1348 28.7997 13.221 30.2788L12.3706 31.4502C10.008 29.7676 8.44057 27.0442 8.33325 23.9518V23.2784C8.36415 22.4015 8.51211 21.5544 8.76251 20.752Z" fill="url(#paint3_linear_2216_5317)"/>
<path fill-rule="evenodd" clip-rule="evenodd" d="M27.5639 23.6147C27.5639 26.8146 26.003 29.6472 23.5965 31.3961L22.7461 30.2263C23.786 29.4782 24.6346 28.4876 25.221 27.3373C25.8075 26.187 26.1146 24.9106 26.1168 23.6147C26.1168 22.7841 25.9932 21.9817 25.7623 21.2272L27.1411 20.7871C27.4176 21.6806 27.5639 22.6303 27.5639 23.6164V23.6147Z" fill="url(#paint4_linear_2216_5317)"/>
<path fill-rule="evenodd" clip-rule="evenodd" d="M22.4501 25.042C22.4501 24.5412 22.1005 24.3168 21.3249 24.3168H19.4144V25.764H21.3249C22.1136 25.764 22.4501 25.5477 22.4501 25.042ZM21.0567 22.0079H19.4144V23.455H21.0567C21.7997 23.455 22.1363 23.2307 22.1363 22.7347C22.1363 22.2372 21.7949 22.0079 21.0567 22.0079ZM23.4534 25.1331C23.4534 26.0989 22.6827 26.6485 21.3233 26.6485H18.5152C18.4665 26.6485 18.4339 26.616 18.4339 26.5688V21.203C18.4339 21.1559 18.4665 21.125 18.5152 21.125H21.0762C22.3981 21.125 23.1249 21.6339 23.1249 22.5526C23.1249 23.0973 22.881 23.5347 22.177 23.7445C23.068 23.9298 23.429 24.455 23.4534 25.1331ZM17.2665 21.203V21.9526C17.2665 22.0014 17.234 22.0323 17.1852 22.0323H13.9332V23.4323H16.6323C16.6811 23.4323 16.712 23.4648 16.712 23.512V24.2599C16.712 24.3087 16.6795 24.3412 16.6307 24.3412H13.9348V26.5688C13.9348 26.6176 13.9023 26.6485 13.8535 26.6485H13.0356C12.9869 26.6485 12.9543 26.616 12.9543 26.5688V21.203C12.9543 21.1559 12.9869 21.125 13.0356 21.125H17.1868C17.2356 21.125 17.2681 21.1575 17.2681 21.203H17.2665Z" fill="#64717D"/>
<path fill-rule="evenodd" clip-rule="evenodd" d="M55.0548 20.3792C55.8524 22.8361 56.7683 25.253 57.7994 27.6214L60.3197 20.3792H62.3343L58.723 29.7352C58.2612 30.9335 57.7133 31.8571 57.0791 32.5075C56.445 33.1579 55.5946 33.4831 54.5296 33.4831C54.2645 33.4831 54.0141 33.4619 53.7816 33.4197V31.7855C53.9767 31.8164 54.1507 31.8311 54.297 31.8311C54.9442 31.8311 55.471 31.6522 55.8775 31.2912C56.284 30.9319 56.6417 30.4034 56.949 29.7075C56.1862 28.2015 55.4747 26.67 54.8157 25.1157C54.1509 23.5494 53.5167 21.9703 52.9133 20.3792H55.0548ZM47.5752 20.1613C48.7069 20.1613 49.6174 20.4817 50.3069 21.1223C50.9979 21.7646 51.3426 22.7239 51.3426 24.0003V29.4522H49.5703V27.9726C49.2126 28.5059 48.7524 28.9157 48.1931 29.2035C47.5995 29.4983 46.9436 29.6461 46.2809 29.6344C45.3069 29.6344 44.5509 29.3872 44.0127 28.8945C43.4745 28.4019 43.2045 27.7515 43.2045 26.9482C43.2045 26.1499 43.5086 25.4799 44.1151 24.9417C44.7216 24.4052 45.6891 24.1336 47.0191 24.1336H49.5313V24.1076C49.5313 22.5824 48.8175 21.8198 47.3898 21.8198C46.7915 21.8198 46.289 21.9255 45.8777 22.1385C45.4695 22.3499 45.1378 22.6458 44.8858 23.028L43.6208 22.0198C44.0143 21.4215 44.533 20.9613 45.1769 20.641C45.8608 20.3111 46.6127 20.1462 47.372 20.1597H47.5736L47.5752 20.1613ZM37.0811 16.75C38.7005 16.75 39.9103 17.1289 40.7103 17.8882C41.5103 18.6475 41.9119 19.6768 41.9119 20.9776C41.9119 22.2735 41.5103 23.3027 40.7103 24.0637C39.9103 24.8263 38.7005 25.2068 37.0811 25.2068H33.6079V29.4539H31.6665V16.75H37.0794H37.0811ZM49.5313 25.5612H47.0923C46.3671 25.5612 45.8484 25.6751 45.5362 25.9027C45.3882 26.0053 45.2681 26.1431 45.1869 26.3039C45.1057 26.4646 45.0659 26.643 45.0712 26.823C45.0712 27.6198 45.6078 28.0197 46.6874 28.0197C47.4012 28.0197 47.9947 27.862 48.4695 27.5433C48.9443 27.2263 49.2988 26.7954 49.5313 26.2507V25.5612ZM36.8973 18.5272H33.6079V23.4279H36.8957C37.9493 23.4279 38.7168 23.2247 39.2013 22.8149C39.6843 22.4084 39.9249 21.7955 39.9249 20.9776C39.9249 20.1613 39.6843 19.5483 39.2013 19.1402C38.7168 18.7321 37.9493 18.5272 36.8957 18.5272H36.8973Z" fill="#1B2529"/>
<defs>
<linearGradient id="paint0_linear_2216_5317" x1="18.0031" y1="15.8713" x2="10.6018" y2="21.238" gradientUnits="userSpaceOnUse">
<stop stop-color="#24D365"/>
<stop offset="1" stop-color="#139DBD"/>
</linearGradient>
<linearGradient id="paint1_linear_2216_5317" x1="17.946" y1="15.8233" x2="25.3691" y2="21.2209" gradientUnits="userSpaceOnUse">
<stop stop-color="#23D068"/>
<stop offset="0.52" stop-color="#EACD36"/>
<stop offset="1" stop-color="#FF6C5C"/>
</linearGradient>
<linearGradient id="paint2_linear_2216_5317" x1="12.7933" y1="30.8831" x2="23.159" y2="30.8831" gradientUnits="userSpaceOnUse">
<stop stop-color="#266FF3"/>
<stop offset="1" stop-color="#C439D6"/>
</linearGradient>
<linearGradient id="paint3_linear_2216_5317" x1="11.1901" y1="30.9125" x2="8.07995" y2="21.8387" gradientUnits="userSpaceOnUse">
<stop stop-color="#266FF3"/>
<stop offset="1" stop-color="#149FBA"/>
</linearGradient>
<linearGradient id="paint4_linear_2216_5317" x1="25.4404" y1="21.0171" x2="22.3236" y2="30.0527" gradientUnits="userSpaceOnUse">
<stop stop-color="#FF6C5C"/>
<stop offset="1" stop-color="#C439D6"/>
</linearGradient>
</defs>
</svg>
