<svg width="70" height="48" viewBox="0 0 70 48" fill="none" xmlns="http://www.w3.org/2000/svg">
<rect x="0.5" y="0.5" width="69" height="47" rx="5.5" fill="white" stroke="#D9D9D9"/>
<path d="M57.4836 14C59.6519 14.0003 61.4087 15.5554 61.4094 17.4756V30.6855C61.4086 32.605 59.6518 34.1595 57.4836 34.1602H12.7258C10.5575 34.1595 8.80088 32.605 8.80005 30.6855V17.4756C8.80079 15.5554 10.5574 14.0003 12.7258 14H57.4836ZM12.7258 15.4854C11.4847 15.4873 10.4802 16.3769 10.4778 17.4756V30.6855C10.4801 31.7153 11.3632 32.5607 12.4963 32.6641L12.7258 32.6748H36.1125V15.4854H12.7258Z" fill="#0F3365"/>
<path d="M54.8159 24.7471H54.8384L56.0054 21.4639H57.9692L55.8853 26.1484C55.3293 27.4127 54.9042 28.6395 53.104 28.6396C52.6893 28.6396 52.2853 28.6009 51.8813 28.5234L52.0132 27.2002C52.2745 27.2782 52.515 27.3066 52.7886 27.3066C53.2677 27.3065 53.6389 27.0555 53.7798 26.6113L51.479 21.4639H53.5942L54.8159 24.7471ZM41.9253 21.3477C43.4964 21.3477 44.3579 22.671 44.3579 23.8877C44.3579 25.3752 43.4522 26.6113 41.7612 26.6113C41.0742 26.6113 40.3325 26.3896 39.9614 25.791H39.9399V28.5234H37.9761V21.4639H39.7866V22.3711H39.8091C40.2017 21.6663 41.0309 21.3477 41.9253 21.3477ZM48.3354 21.5117C49.7863 21.5118 51.0405 22.062 51.0405 23.5977V25.4717C51.0405 25.8678 51.0628 26.2634 51.1499 26.6592H49.3491C49.3385 26.3895 49.3052 26.128 49.3052 25.8672H49.2837C48.8368 26.4947 48.2919 26.7753 47.4849 26.7754C46.3611 26.7754 45.3569 26.2832 45.3569 25.1914C45.3569 23.6559 47.244 23.4717 48.2915 23.4717C48.6078 23.4717 48.9566 23.5011 49.2075 23.54C49.1967 22.854 48.6181 22.6709 47.9087 22.6709C47.2765 22.6709 46.644 22.7768 46.0981 23.0469L46.0659 21.8691C46.764 21.6175 47.4951 21.5117 48.3354 21.5117ZM48.3784 24.3994C47.7129 24.3994 47.189 24.5835 47.189 25.0664C47.1892 25.4134 47.5388 25.6172 47.9966 25.6172C48.7389 25.6172 49.2074 25.0175 49.2075 24.4287C48.9567 24.4192 48.6731 24.3994 48.3784 24.3994ZM41.1401 22.6807C40.4198 22.6807 39.939 23.241 39.939 23.9941C39.9391 24.7284 40.4854 25.2783 41.1401 25.2783C41.8814 25.2783 42.3285 24.7285 42.3286 23.9268C42.3286 23.26 41.9034 22.6807 41.1401 22.6807Z" fill="#FFFFFE"/>
<path d="M15.8245 21.3477C16.6643 21.3477 17.3414 21.7532 17.7561 22.3711H17.7766V21.4629H19.5559V25.9062C19.5559 27.9728 18.4211 28.6396 16.1301 28.6396C15.1922 28.6396 14.4176 28.4656 13.9592 28.3213L14.0579 26.9492C14.6576 27.21 15.1596 27.3643 15.9778 27.3643C17.1123 27.3642 17.7229 26.8913 17.7229 25.9062V25.6357H17.7004C17.2317 26.2254 16.5774 26.4951 15.7922 26.4951C14.2321 26.4951 13.261 25.4528 13.261 23.9648C13.261 22.4676 14.0575 21.3477 15.8245 21.3477ZM31.7229 21.3477C33.5988 21.3477 35.0286 22.313 35.0286 23.9844C35.0285 25.6456 33.5988 26.6113 31.7229 26.6113C29.8467 26.6113 28.4173 25.6456 28.4172 23.9844C28.4172 22.313 29.8466 21.3477 31.7229 21.3477ZM22.8743 26.4951H20.9104V21.4629H22.8743V26.4951ZM27.677 21.3477C27.9057 21.3477 28.1457 21.3768 28.342 21.4053L28.2434 22.8535C28.0256 22.7958 27.8071 22.7959 27.5784 22.7959C26.6621 22.7959 26.1487 23.3856 26.1487 24.3711V26.4951H24.1858V21.4629H25.9749V22.3906H25.9963C26.3347 21.7535 26.8261 21.3477 27.677 21.3477ZM31.7229 22.5645C30.8174 22.5645 30.4465 23.2309 30.4465 23.9844C30.4466 24.7281 30.8174 25.3945 31.7229 25.3945C32.6282 25.3945 32.9992 24.7281 32.9993 23.9844C32.9993 23.2309 32.6283 22.5645 31.7229 22.5645ZM16.4026 22.6807C15.6719 22.6809 15.2903 23.2502 15.2903 23.9355C15.2903 24.7175 15.8137 25.1619 16.4026 25.1621C17.1005 25.1621 17.6574 24.6411 17.6575 23.8682C17.6575 23.3077 17.286 22.6807 16.4026 22.6807ZM22.8743 20.6426H20.9104V19.3672H22.8743V20.6426Z" fill="#D8232A"/>
</svg>
