<svg width="70" height="48" viewBox="0 0 70 48" fill="none" xmlns="http://www.w3.org/2000/svg">
<rect x="0.5" y="0.5" width="69" height="47" rx="5.5" fill="white" stroke="#D9D9D9"/>
<path d="M54.9941 28.6386H55.0293L57.9482 21.3124H60L53.6934 36.0009H51.7471L54.0918 30.8622L49.9531 21.3124H52.0049L54.9941 28.6386ZM45.124 20.9794C46.5188 20.9795 47.6209 21.3601 48.4297 22.1093C49.2384 22.8585 49.6367 23.9055 49.6367 25.2255V31.5175H47.832V30.1015H47.75C46.9646 31.2669 45.932 31.8504 44.6309 31.8505C43.5292 31.8504 42.591 31.5172 41.8525 30.8515C41.1258 30.233 40.7159 29.3167 40.7393 28.3534C40.7393 27.295 41.1376 26.4623 41.9229 25.8319C42.7083 25.2016 43.7642 24.8925 45.0771 24.8925C46.2023 24.8926 47.1171 25.1063 47.8438 25.5106V25.0712C47.8438 24.4172 47.5615 23.7982 47.0693 23.37C46.5654 22.9183 45.9208 22.668 45.2529 22.6679C44.1978 22.6679 43.3655 23.1204 42.7559 24.0243L41.0908 22.9657C41.9818 21.6455 43.3304 20.9794 45.124 20.9794ZM36.1787 16.6024C37.386 16.5787 38.5583 17.0422 39.4141 17.8983C41.1256 19.5159 41.2311 22.2398 39.625 23.9882C39.5547 24.0595 39.4843 24.1307 39.4141 24.202C38.5349 25.0464 37.4565 25.4745 36.1787 25.4745H33.0605V31.5165H31.1729V16.6024H36.1787ZM45.3701 26.4384C44.6082 26.4384 43.9631 26.6293 43.4473 26.9979C42.9435 27.3665 42.6857 27.8299 42.6855 28.3886C42.6856 28.8879 42.92 29.3522 43.3066 29.6376C43.7287 29.9704 44.245 30.1495 44.7725 30.1376C45.5697 30.1375 46.3318 29.8158 46.8945 29.245C47.5158 28.6505 47.8329 27.949 47.833 27.1405C47.2468 26.6648 46.4252 26.4265 45.3701 26.4384ZM33.0605 23.6434H36.2266C36.9299 23.6671 37.6102 23.3813 38.0908 22.87C39.0753 21.8354 39.0518 20.1708 38.0322 19.1718C37.5516 18.6961 36.9065 18.4336 36.2266 18.4335H33.0605V23.6434Z" fill="#3C4043"/>
<path d="M26.5443 24.1661C26.5443 23.5834 26.4974 23.0006 26.4036 22.4297H18.4436V25.7242H23.0039C22.8163 26.7827 22.2067 27.7342 21.3158 28.3289V30.4697H24.0355C25.6299 28.983 26.5443 26.7827 26.5443 24.1661Z" fill="#4285F4"/>
<path d="M18.444 32.5392C20.7183 32.5392 22.6408 31.778 24.0359 30.4697L21.3161 28.3289C20.5541 28.8522 19.5811 29.1496 18.444 29.1496C16.24 29.1496 14.376 27.6391 13.7078 25.6172H10.906V27.8294C12.3362 30.7195 15.2553 32.5392 18.444 32.5392Z" fill="#34A853"/>
<path d="M13.708 25.6177C13.3563 24.5592 13.3563 23.4055 13.708 22.3351V20.1348H10.9058C9.69808 22.5492 9.69808 25.4036 10.9058 27.818L13.708 25.6177Z" fill="#FBBC04"/>
<path d="M18.444 18.8023C19.6515 18.7785 20.812 19.2423 21.6795 20.0868L24.0945 17.6367C22.5588 16.1857 20.5424 15.3888 18.444 15.4126C15.2553 15.4126 12.3362 17.2442 10.906 20.1344L13.7078 22.3466C14.376 20.3128 16.24 18.8023 18.444 18.8023Z" fill="#EA4335"/>
</svg>
