<svg width="70" height="48" viewBox="0 0 70 48" fill="none" xmlns="http://www.w3.org/2000/svg">
<rect x="0.5" y="0.5" width="69" height="47" rx="5.5" fill="white" stroke="#D9D9D9"/>
<path fill-rule="evenodd" clip-rule="evenodd" d="M51.4216 37.6838C51.4216 38.409 51.1335 39.1044 50.6208 39.6171C50.108 40.1299 49.4126 40.4179 48.6875 40.4179H21.3185C20.9592 40.4184 20.6033 40.3479 20.2713 40.2107C19.9392 40.0735 19.6374 39.8722 19.3832 39.6182C19.129 39.3643 18.9273 39.0628 18.7897 38.7309C18.6521 38.3989 18.5813 38.0432 18.5813 37.6838V10.3161C18.5813 9.95682 18.6521 9.60104 18.7897 9.26912C18.9273 8.9372 19.129 8.63566 19.3832 8.38173C19.6374 8.12781 19.9392 7.92648 20.2713 7.78926C20.6033 7.65204 20.9592 7.58162 21.3185 7.58203H48.6856C49.4107 7.58203 50.1062 7.87009 50.6189 8.38283C51.1316 8.89558 51.4197 9.591 51.4197 10.3161L51.4216 37.6838Z" fill="#EDAA00"/>
<path d="M36.9178 24.3548V18.4746L38.4532 18.1111V18.881C38.4532 18.881 38.8503 17.8675 39.7724 17.632C40.0564 17.5605 40.1993 17.6034 40.1993 17.6034V19.1034C39.923 19.1072 39.65 19.1642 39.3953 19.2712C38.8261 19.4955 38.5402 19.9864 38.5402 20.7321V23.9788L36.9178 24.3548ZM28.8267 26.2668C28.8267 26.2668 28.5782 25.894 28.5782 24.5692V21.6418L27.7878 21.8282V20.6234L28.5788 20.4369V19.1221L30.2112 18.7368V20.0486L31.3645 19.7752V20.9807L30.2112 21.2547V24.2373C30.2112 25.5926 30.5709 25.8529 30.5709 25.8529L28.8267 26.2668ZM31.5347 22.769C31.5347 21.7232 31.6839 20.9608 32.0032 20.3754C32.3829 19.6807 33.0074 19.2283 33.9159 19.0214C35.7061 18.6144 36.3517 19.6745 36.3262 21.095C36.3181 21.6027 36.32 21.8506 36.32 21.8506L33.1659 22.5919V22.6429C33.1659 23.6371 33.3746 24.1075 34.0035 23.9732C34.5466 23.8589 34.6976 23.5184 34.7404 23.0983C34.7479 23.0294 34.7504 22.8572 34.7504 22.8572L36.2287 22.503C36.2287 22.503 36.2324 22.6242 36.2287 22.7591C36.215 23.3239 36.051 24.7245 33.9973 25.2092C32.0523 25.6709 31.5329 24.4828 31.5329 22.769H31.5347ZM33.9793 20.1163C33.4567 20.235 33.1826 20.7476 33.1714 21.5971L34.7585 21.2193C34.7616 21.1807 34.7616 21.095 34.7616 20.9633C34.7585 20.3226 34.5602 19.9846 33.9799 20.1163H33.9793ZM45.721 19.3303C45.6588 17.5394 46.1236 16.1177 48.1214 15.6641C49.3965 15.3745 49.8793 15.7051 50.1241 16.0251C50.3596 16.3308 50.4503 16.7428 50.4503 17.3201V17.4269L48.8857 17.7998V17.5817C48.8857 16.8981 48.6993 16.6372 48.2022 16.7614C47.6112 16.91 47.3726 17.4704 47.3726 18.5865V19.1066C47.3726 20.2406 47.528 20.7601 48.2084 20.6171C48.7999 20.4929 48.8807 19.9759 48.8919 19.521C48.8919 19.4496 48.8962 19.2209 48.8962 19.2209L50.4584 18.853V19.096C50.4541 20.5823 49.6705 21.5194 48.2015 21.8612C46.1802 22.3359 45.7837 21.1658 45.7216 19.3303H45.721ZM40.3168 21.8369C40.3168 20.4748 41.1159 20.0442 42.317 19.5477C43.3964 19.101 43.4193 18.8791 43.4243 18.4914C43.4299 18.1652 43.2789 17.8849 42.7408 18.0222C42.2468 18.1465 42.1157 18.5057 42.0896 18.7915C42.0805 18.8919 42.0772 18.9927 42.0796 19.0935L40.5653 19.4508C40.5551 19.149 40.5903 18.8474 40.6697 18.556C40.9121 17.7414 41.631 17.1933 42.87 16.9068C44.4807 16.534 45.0182 17.2424 45.0207 18.3422V20.9465C45.0207 22.206 45.2543 22.39 45.2543 22.39L43.7673 22.7423C43.6851 22.5703 43.6182 22.3915 43.5672 22.2079C43.5672 22.2079 43.2423 23.0275 42.12 23.2922C40.9394 23.5693 40.318 22.8398 40.318 21.8375L40.3168 21.8369ZM43.4156 19.9777C43.1649 20.1535 42.9001 20.3083 42.624 20.4407C42.1269 20.6836 41.9038 20.9819 41.9038 21.4417C41.9038 21.84 42.1523 22.1023 42.5997 21.9904C43.0813 21.8699 43.4156 21.4206 43.4156 20.7973V19.9777ZM20.2938 30.3884C20.1241 30.3881 19.9577 30.342 19.812 30.255C19.6663 30.168 19.5467 30.0434 19.4659 29.8942C19.385 29.745 19.3459 29.5767 19.3526 29.4072C19.3594 29.2376 19.4117 29.073 19.5041 28.9307L19.514 28.9176L19.532 28.9133L21.7504 28.3894V30.0753L21.7156 30.0833C21.2123 30.2045 20.6107 30.3418 20.4865 30.3673C20.4228 30.3816 20.3578 30.3886 20.2926 30.3884H20.2938ZM20.2938 32.5453C20.0445 32.5453 19.8054 32.4465 19.6288 32.2705C19.4523 32.0945 19.3526 31.8557 19.3518 31.6064C19.3508 31.4244 19.4038 31.2462 19.5041 31.0943L19.514 31.0776L19.532 31.0738L21.7504 30.55V32.2358L21.7156 32.2451C21.2123 32.3657 20.6107 32.5055 20.4865 32.5297C20.4226 32.5422 20.3577 32.5485 20.2926 32.5484L20.2938 32.5453ZM20.2938 34.7058C20.0439 34.7057 19.8043 34.6063 19.6277 34.4295C19.451 34.2528 19.3518 34.0131 19.3518 33.7632C19.3508 33.5812 19.4038 33.403 19.5041 33.2512L19.514 33.2338L21.751 32.7068V34.3927L21.7162 34.4014C21.1849 34.5294 20.594 34.663 20.4871 34.6872C20.4232 34.6994 20.3583 34.7056 20.2932 34.7058" fill="#231F20"/>
<path d="M20.0328 28.3228L20.0322 18.8908L21.7516 18.4844V27.9158L20.0328 28.3228Z" fill="#231F20"/>
<path d="M24.3161 27.5198C24.3094 27.2429 24.1947 26.9795 23.9964 26.786C23.7982 26.5925 23.5321 26.4842 23.2551 26.4842C22.9781 26.4842 22.712 26.5925 22.5138 26.786C22.3155 26.9795 22.2008 27.2429 22.1941 27.5198V36.3361C22.1954 37.0974 22.4984 37.8272 23.0367 38.3657C23.575 38.9041 24.3048 39.2072 25.0661 39.2087C25.869 39.2087 28.0687 39.205 28.0687 39.205V31.4259C28.0691 31.1972 28.013 30.972 27.9053 30.7702C27.7977 30.5685 27.6418 30.3964 27.4516 30.2695L24.7747 28.4513V32.5798C24.7763 32.6107 24.7716 32.6416 24.7609 32.6706C24.7502 32.6997 24.7337 32.7262 24.7124 32.7487C24.6911 32.7711 24.6654 32.789 24.637 32.8012C24.6085 32.8134 24.5779 32.8197 24.547 32.8197C24.516 32.8197 24.4854 32.8134 24.457 32.8012C24.4285 32.789 24.4029 32.7711 24.3816 32.7487C24.3603 32.7262 24.3437 32.6997 24.333 32.6706C24.3223 32.6416 24.3176 32.6107 24.3192 32.5798C24.3192 32.5357 24.3136 28.0648 24.3136 27.5198H24.3161ZM25.749 20.9425C25.424 21.0176 25.1189 21.162 24.8547 21.3657C24.5904 21.5694 24.3733 21.8278 24.2179 22.1231V21.4626L22.6701 21.8292V26.0627C22.9416 25.9556 23.2374 25.9255 23.5249 25.9758C23.8124 26.0262 24.0804 26.1549 24.2993 26.3479V23.6138C24.2993 22.9595 24.6262 22.4363 25.091 22.3337C25.4421 22.2567 25.7341 22.3822 25.7341 23.0055V26.9941L27.364 26.6114V22.3928C27.364 21.3694 26.9713 20.6529 25.7484 20.9425H25.749ZM49.4456 14.9057C49.2461 14.9058 49.0511 14.8468 48.8852 14.7361C48.7193 14.6254 48.5899 14.4679 48.5135 14.2837C48.437 14.0995 48.4169 13.8967 48.4557 13.701C48.4945 13.5054 48.5905 13.3256 48.7314 13.1845C48.8724 13.0434 49.052 12.9472 49.2476 12.9082C49.4432 12.8691 49.646 12.889 49.8304 12.9652C50.0147 13.0414 50.1723 13.1706 50.2832 13.3364C50.3941 13.5021 50.4534 13.6971 50.4535 13.8966C50.453 14.1637 50.3466 14.4197 50.1577 14.6085C49.9688 14.7973 49.7127 14.9035 49.4456 14.9038V14.9057ZM49.4456 13.0142C49.2712 13.0142 49.1008 13.0659 48.9558 13.1628C48.8108 13.2596 48.6978 13.3973 48.631 13.5584C48.5643 13.7194 48.5468 13.8967 48.5808 14.0677C48.6147 14.2388 48.6986 14.3959 48.8219 14.5192C48.9451 14.6425 49.1022 14.7266 49.2732 14.7607C49.4442 14.7948 49.6215 14.7774 49.7826 14.7107C49.9437 14.6441 50.0815 14.5312 50.1785 14.3863C50.2754 14.2413 50.3272 14.0709 50.3274 13.8966C50.327 13.6628 50.234 13.4386 50.0688 13.2732C49.9035 13.1078 49.6794 13.0147 49.4456 13.0142Z" fill="#231F20"/>
<path d="M49.0784 13.2969H49.5133C49.6867 13.2969 49.824 13.3832 49.824 13.6125C49.824 13.7722 49.7532 13.8953 49.619 13.9164C49.7433 13.9288 49.8054 13.9959 49.811 14.1693C49.811 14.247 49.8147 14.3439 49.8184 14.4179C49.8184 14.439 49.8237 14.4598 49.834 14.4782C49.8442 14.4967 49.8589 14.5123 49.8769 14.5235H49.6556C49.6334 14.4916 49.6217 14.4536 49.6221 14.4147C49.6146 14.3408 49.6159 14.2718 49.6134 14.1824C49.6134 14.0481 49.5693 13.9891 49.4338 13.9891H49.2778V14.5235H49.0809L49.0784 13.2969ZM49.4319 13.8449C49.4587 13.8474 49.4856 13.8439 49.5108 13.8347C49.536 13.8254 49.5588 13.8107 49.5776 13.7915C49.5964 13.7724 49.6107 13.7493 49.6195 13.7239C49.6283 13.6985 49.6313 13.6715 49.6283 13.6449C49.6283 13.5137 49.5724 13.4454 49.4419 13.4454H49.2778V13.8449H49.4319Z" fill="#231F20"/>
</svg>
