<svg width="70" height="48" viewBox="0 0 70 48" fill="none" xmlns="http://www.w3.org/2000/svg">
<rect x="0.5" y="0.5" width="69" height="47" rx="5.5" fill="white" stroke="#D9D9D9"/>
<path d="M44.6364 24.5745C45.6638 24.5969 46.697 24.5292 47.7202 24.6097C48.7565 24.803 49.0062 26.3718 48.0856 26.8856C47.4574 27.224 46.7112 27.0116 46.0302 27.0713H44.6364V24.5745ZM48.3142 21.7485C48.5425 22.5542 47.7658 23.2775 46.9899 23.1666H44.6364C44.6529 22.4068 44.6042 21.5822 44.6603 20.8624C45.6031 20.889 46.5546 20.8083 47.492 20.9046C47.8947 21.0058 48.2318 21.3369 48.3142 21.7485ZM53.9782 9.80084C54.0219 11.3394 53.9845 12.9594 53.9971 14.5292C53.9942 20.9115 54.0032 27.2936 53.992 33.6762C53.9507 36.0681 51.8309 38.1465 49.4556 38.1943C47.0779 38.2039 44.6999 38.1958 42.3219 38.1984V28.5497C44.9128 28.5364 47.5051 28.5769 50.095 28.5295C51.2964 28.4541 52.6124 27.6613 52.6683 26.3392C52.8098 25.0113 51.5579 24.0929 50.3693 23.9478C49.9124 23.9359 49.9257 23.8146 50.3693 23.7617C51.5029 23.5167 52.3931 22.3433 52.0596 21.1683C51.7754 19.9324 50.4093 19.454 49.2731 19.4564C46.9564 19.4406 44.6392 19.4542 42.3224 19.4496C42.3374 17.6483 42.2912 15.8451 42.3473 14.0451C42.5309 11.6964 44.704 9.75943 47.046 9.80145C49.357 9.8011 51.6677 9.8011 53.9782 9.80101V9.80084Z" fill="url(#paint0_linear_2216_5281)"/>
<path d="M16.1412 14.2888C16.2004 11.9007 18.3292 9.83934 20.7015 9.80444C23.0704 9.79714 25.4396 9.80339 27.8085 9.80128C27.802 17.7914 27.8214 25.7825 27.7988 33.7722C27.7075 36.1313 25.6019 38.1534 23.2554 38.1952C20.882 38.2038 18.5084 38.1964 16.135 38.1988V28.2248C18.4404 28.7694 20.8579 29.0012 23.2099 28.64C24.6157 28.4138 26.1539 27.7234 26.6298 26.2649C26.9801 25.0173 26.7829 23.7043 26.835 22.4238V19.4501H22.7648C22.7465 21.4168 22.8023 23.387 22.7354 25.3514C22.6257 26.5588 21.4299 27.3259 20.2912 27.285C18.8789 27.2999 16.0803 26.2615 16.0803 26.2615C16.0733 22.5766 16.1213 17.9618 16.1412 14.2892V14.2888Z" fill="url(#paint1_linear_2216_5281)"/>
<path d="M29.3264 20.65C29.1121 20.6954 29.2833 19.9202 29.2285 19.6261C29.2431 17.7667 29.198 15.9053 29.2534 14.0472C29.4365 11.6885 31.6263 9.74672 33.9778 9.80193H40.9026C40.8961 17.7921 40.9154 25.7832 40.8929 33.7729C40.8015 36.132 38.6957 38.154 36.3492 38.1958C33.9757 38.2048 31.6021 38.1972 29.2284 38.1995V27.2716C30.8495 28.6017 33.0527 28.8088 35.0723 28.8124C36.5948 28.8118 38.1084 28.5771 39.587 28.226V26.224C37.9207 27.0544 35.962 27.5819 34.1149 27.1048C32.8264 26.7841 31.8911 25.5388 31.912 24.2091C31.7627 22.8263 32.5732 21.3664 33.9321 20.9553C35.6193 20.4271 37.4581 20.8311 39.0396 21.5178C39.3784 21.6952 39.7224 21.9152 39.5869 21.3489V19.7753C36.9419 19.146 34.127 18.9144 31.4697 19.599C30.7006 19.816 29.9512 20.1451 29.3264 20.6501V20.65Z" fill="url(#paint2_linear_2216_5281)"/>
<defs>
<linearGradient id="paint0_linear_2216_5281" x1="42.2422" y1="23.3925" x2="53.9234" y2="23.3925" gradientUnits="userSpaceOnUse">
<stop stop-color="#58B03A"/>
<stop offset="1" stop-color="#55B330"/>
</linearGradient>
<linearGradient id="paint1_linear_2216_5281" x1="15.8866" y1="24.272" x2="27.6171" y2="24.272" gradientUnits="userSpaceOnUse">
<stop stop-color="#0F6EB6"/>
<stop offset="1" stop-color="#006DBA"/>
</linearGradient>
<linearGradient id="paint2_linear_2216_5281" x1="29.2113" y1="23.6686" x2="40.9004" y2="23.6686" gradientUnits="userSpaceOnUse">
<stop stop-color="#DE0D3D"/>
<stop offset="1" stop-color="#E30138"/>
</linearGradient>
</defs>
</svg>
