<svg width="70" height="48" viewBox="0 0 70 48" fill="none" xmlns="http://www.w3.org/2000/svg">
<rect x="0.5" y="0.5" width="69" height="47" rx="5.5" fill="white" stroke="#D9D9D9"/>
<path d="M34.8701 8C43.6348 8.00006 50.7402 15.1054 50.7402 23.8701C50.7402 32.6348 43.6348 39.7402 34.8701 39.7402C26.1054 39.7402 19.0001 32.6348 19 23.8701C19 15.1054 26.1054 8 34.8701 8ZM31 23.8701L29.0635 24.6445L28.4834 26.7725L30.4189 25.999L29.0635 31.2236H42.418L43.1924 28.1279H34.8701L36.0312 23.8701L38.3535 23.0957L38.9346 20.9668L36.6123 21.9346L38.3535 15.1611H33.3213L31 23.8701Z" fill="#A5A8A9"/>
</svg>
