<svg width="70" height="48" viewBox="0 0 70 48" fill="none" xmlns="http://www.w3.org/2000/svg">
<rect x="0.5" y="0.5" width="69" height="47" rx="5.5" fill="white" stroke="#D9D9D9"/>
<g clip-path="url(#clip0_2301_8702)">
<path d="M30.3044 26.2266H10V32.9881H30.3044V26.2266Z" fill="#84B740"/>
<path d="M30.3044 17H10V23.7676H30.3044V17Z" fill="#259BD6"/>
<path d="M50.6089 31.613L50.5185 31.6311C50.205 31.6914 50.0904 31.7155 49.8613 31.7155C49.3308 31.7155 48.7038 31.4443 48.7038 30.1667C48.7038 29.5098 48.8124 28.636 49.8011 28.636H49.8071C49.9759 28.6481 50.1688 28.6662 50.5305 28.7746L50.6089 28.7987V31.613ZM50.7717 25.2432L50.6089 25.2733V27.6356L50.4642 27.5935L50.422 27.5814C50.2592 27.5332 49.8855 27.4247 49.5237 27.4247C47.5463 27.4247 47.1304 28.9193 47.1304 30.1727C47.1304 31.8903 48.095 32.8786 49.7769 32.8786C50.4883 32.8786 51.0128 32.8063 51.5433 32.6315C52.0316 32.4748 52.2065 32.2518 52.2065 31.7758V24.9961C51.7362 25.0805 51.2479 25.1648 50.7717 25.2432Z" fill="#27292D"/>
<path d="M56.4867 31.6552L56.4023 31.6793L56.1009 31.7576C55.8176 31.8299 55.5644 31.8721 55.3714 31.8721C54.9072 31.8721 54.6299 31.6431 54.6299 31.2514C54.6299 30.9983 54.7445 30.5704 55.5041 30.5704H56.4867V31.6552ZM55.7935 27.3945C55.1846 27.3945 54.5576 27.503 53.7799 27.7441L53.2735 27.8947L53.4423 29.0397L53.9366 28.877C54.4551 28.7083 55.1002 28.5998 55.5825 28.5998C55.7995 28.5998 56.4626 28.5998 56.4626 29.3169V29.6303H55.5403C53.8583 29.6303 53.0806 30.1667 53.0806 31.3177C53.0806 32.3 53.798 32.8906 55.0037 32.8906C55.3775 32.8906 55.8959 32.8183 56.3421 32.7098L56.3662 32.7038L56.3903 32.7098L56.541 32.7339C57.0112 32.8183 57.4996 32.9026 57.9758 32.993V29.2326C57.9758 28.0152 57.2403 27.3945 55.7935 27.3945Z" fill="#27292D"/>
<path d="M44.7731 31.6552L44.6887 31.6793L44.3873 31.7576C44.1039 31.8299 43.8568 31.8721 43.6578 31.8721C43.1936 31.8721 42.9163 31.6431 42.9163 31.2514C42.9163 30.9983 43.0308 30.5704 43.7844 30.5704H44.7671L44.7731 31.6552ZM44.0859 27.3945C43.4709 27.3945 42.85 27.503 42.0723 27.7441L41.5659 27.8947L41.7347 29.0397L42.229 28.877C42.7475 28.7083 43.3926 28.5998 43.8749 28.5998C44.0919 28.5998 44.755 28.5998 44.755 29.3169V29.6303H43.8327C42.1507 29.6303 41.3669 30.1667 41.3669 31.3177C41.3669 32.3 42.0844 32.8906 43.2961 32.8906C43.6699 32.8906 44.1883 32.8183 44.6345 32.7098L44.6586 32.7038L44.6827 32.7098L44.8274 32.7339C45.3036 32.8183 45.7859 32.9026 46.2622 32.9991V29.2386C46.2682 28.0092 45.5327 27.3945 44.0859 27.3945Z" fill="#27292D"/>
<path d="M38.4251 27.4084C37.6595 27.4084 37.0265 27.6615 36.7914 27.77L36.7311 27.8001L36.6768 27.7579C36.3513 27.5229 35.875 27.4023 35.2119 27.4023C34.6271 27.4023 34.0785 27.4867 33.4816 27.6615C32.9692 27.8182 32.7703 28.0652 32.7703 28.5293V32.8261H34.3739V28.8547L34.4523 28.8306C34.7778 28.7221 34.9707 28.704 35.1576 28.704C35.6218 28.704 35.8569 28.9511 35.8569 29.4332V32.8321H37.4364V29.3669C37.4364 29.162 37.3942 29.0415 37.3882 29.0174L37.3339 28.915L37.4425 28.8667C37.6836 28.7583 37.9489 28.704 38.2262 28.704C38.5457 28.704 38.9255 28.8306 38.9255 29.4332V32.8321H40.499V29.2765C40.499 28.017 39.8238 27.4084 38.4251 27.4084Z" fill="#27292D"/>
<path d="M55.3051 21.4113C55.07 21.4113 54.6781 21.3872 54.3707 21.3269L54.2802 21.3089V18.9887C54.2802 18.7959 54.2441 18.6753 54.238 18.6573L54.1898 18.5608L54.2923 18.5186C54.3164 18.5066 54.3405 18.5006 54.3707 18.4885L54.3888 18.4765C54.4249 18.4644 54.4611 18.4524 54.4973 18.4403C54.5154 18.4343 54.5274 18.4282 54.5395 18.4282C54.8952 18.3318 55.2207 18.3439 55.3654 18.3318H55.3714C56.3541 18.3318 56.4686 19.2056 56.4686 19.8625C56.4626 21.1401 55.8296 21.4113 55.3051 21.4113ZM55.2991 17C55.287 17 55.2689 17 55.2569 17C54.3345 17 53.388 17.2531 53.0504 17.7473C52.8695 17.9883 52.7671 18.2896 52.761 18.6452V21.0377C52.761 21.2426 52.7188 21.3209 52.7128 21.339L52.6585 21.4414H49.7467V19.7782H49.7407C49.7045 18.0245 48.6676 17.0603 47.1665 17.0603H46.9916H45.7015C45.6412 17.4881 45.593 17.7895 45.5327 18.2173H46.9916C47.7573 18.2173 48.1612 18.8682 48.1612 19.8685V21.5439L48.0587 21.4896C48.0406 21.4836 47.914 21.4414 47.7151 21.4414H45.1951C45.1469 21.7608 45.0866 22.1766 45.0203 22.5925H52.7671C53.0323 22.5382 53.3398 22.49 53.605 22.4478C53.9969 22.6407 54.7264 22.7431 55.2267 22.7431C56.9087 22.7431 57.9999 21.6162 57.9999 19.8806C57.9939 18.1631 56.9389 17.0362 55.2991 17Z" fill="#27292D"/>
<path d="M41.7168 23.2977H41.7891C43.4711 23.2977 44.2548 22.7432 44.2548 21.3753C44.2548 20.393 43.5374 19.6095 42.3317 19.6095H40.7823C40.3181 19.6095 40.0408 19.3444 40.0408 18.8984C40.0408 18.5971 40.1553 18.2235 40.9149 18.2235H44.303C44.3754 17.7835 44.4116 17.5063 44.4779 17.0664H40.9572C39.3174 17.0664 38.4914 17.7534 38.4914 18.8984C38.4914 20.0314 39.2088 20.622 40.4146 20.622H41.9639C42.4281 20.622 42.7055 20.9896 42.7055 21.3753C42.7055 21.6284 42.5909 22.1527 41.8373 22.1527H41.5781L36.6165 22.1406H35.7122C34.9466 22.1406 34.4101 21.7067 34.4101 20.7003V20.0073C34.4101 18.9587 34.826 18.3078 35.7122 18.3078H37.1832C37.2495 17.8619 37.2917 17.5786 37.352 17.1568H35.5193H35.3445C33.8434 17.1568 32.8064 18.1632 32.7703 19.9169V19.9832V20.7003C32.8064 22.454 33.8434 23.2916 35.3445 23.2916H35.5193H36.8094L39.4982 23.2977H41.1018H41.7168Z" fill="#27292D"/>
</g>
<defs>
<clipPath id="clip0_2301_8702">
<rect width="48" height="16" fill="white" transform="translate(10 17)"/>
</clipPath>
</defs>
</svg>
