<svg width="70" height="48" viewBox="0 0 70 48" fill="none" xmlns="http://www.w3.org/2000/svg">
<rect x="0.5" y="0.5" width="69" height="47" rx="5.5" fill="white" stroke="#D9D9D9"/>
<path d="M52.4463 23.1698C53.4717 22.0812 54.7301 21.6939 56.1816 22.0946C57.0672 22.3418 57.5405 22.9831 57.5938 23.8847C57.6468 24.7659 57.247 25.427 56.415 25.8144C55.5762 26.2017 54.6837 26.2621 53.7783 26.2821C53.5985 26.2755 53.4117 26.2753 53.2119 26.2753C53.152 26.9297 53.6179 27.4307 54.3301 27.5243C54.9959 27.6045 55.6358 27.5043 56.2617 27.2772C56.3681 27.2372 56.4678 27.1968 56.6074 27.1435C56.6474 27.5776 56.7007 27.9851 56.7207 28.3925C56.7273 28.4725 56.6347 28.5991 56.5615 28.6327C55.4296 29.1002 54.2641 29.2607 53.0723 28.9335C52.0004 28.6397 51.4409 27.8583 51.3076 26.7899C51.1412 25.4208 51.4941 24.185 52.4463 23.1698ZM20.5518 21.9403C21.1176 21.9738 21.6773 22.1073 22.2432 22.1874C22.4692 22.2209 22.5028 22.3483 22.4629 22.5419C22.2099 23.8641 21.9435 25.1796 21.7305 26.5019C21.6173 27.2031 21.5837 27.9248 21.5371 28.6327C21.5238 28.8463 21.4704 28.9332 21.251 28.9267C20.8381 28.9133 20.4246 28.9133 20.0117 28.9267C19.799 28.9332 19.7262 28.8532 19.7461 28.6464C19.7727 28.3258 19.7857 27.9916 19.8057 27.6376C19.4728 27.9848 19.2067 28.3391 18.8672 28.5995C18.168 29.1405 17.3682 29.2606 16.5625 28.8866C15.7638 28.5192 15.4376 27.8042 15.4043 26.9628C15.3312 25.1931 15.9508 23.7308 17.4355 22.7157C18.3677 22.0746 19.4398 21.8802 20.5518 21.9403ZM46.1533 22.829C47.1454 21.9808 48.311 21.7139 49.5762 22.0946C50.4218 22.3484 50.8951 22.9825 50.9551 23.8573C51.015 24.7189 50.6418 25.3804 49.8428 25.7812C49.2169 26.0951 48.5442 26.2089 47.8584 26.2489C47.4322 26.269 46.999 26.2489 46.5596 26.2489C46.5132 26.9432 46.986 27.4374 47.6914 27.5243C48.3772 27.6045 49.0366 27.497 49.6758 27.2499C49.7424 27.2232 49.8164 27.1965 49.8896 27.1698C49.903 27.1636 49.9231 27.1698 49.9756 27.1698C50.0155 27.5772 50.0621 27.9851 50.082 28.3925C50.0887 28.4726 49.9959 28.5992 49.916 28.6327C48.8042 29.0868 47.6522 29.2475 46.4805 28.9472C45.3885 28.6667 44.7888 27.8782 44.6689 26.7763C44.4958 25.2202 44.9483 23.8575 46.1533 22.829ZM33.1162 21.9677C33.9685 21.8742 34.7676 21.9809 35.4668 22.5019C36.1325 22.996 36.4592 23.6904 36.5059 24.5116C36.5591 25.3665 36.4122 26.1819 36.0127 26.9433C35.2603 28.3591 34.0546 29.0466 32.8428 29.08C31.0785 29.0799 30.0732 28.4253 29.707 27.2499C29.1014 25.3131 30.2666 22.2883 33.1162 21.9677ZM40.2412 22.662C40.9003 22.0878 41.6524 21.8344 42.5244 21.9745C43.2435 22.0947 43.7433 22.6219 43.8232 23.3632C43.9165 24.1914 43.743 24.9934 43.5898 25.7948C43.4034 26.7631 43.2243 27.7317 43.0312 28.6933C43.0112 28.78 42.9113 28.906 42.8447 28.913C42.2722 28.9263 41.6995 28.9197 41.127 28.913C41.1004 28.913 41.0734 28.8937 41.0205 28.8671C41.127 28.3128 41.2331 27.7513 41.333 27.1903C41.4862 26.3288 41.6325 25.4738 41.7656 24.6122C41.7923 24.4653 41.7788 24.3118 41.7588 24.1649C41.7055 23.6508 41.3265 23.4169 40.834 23.5702C40.3547 23.7238 40.068 24.0977 39.835 24.5116C39.4888 25.1193 39.3689 25.7942 39.249 26.4687C39.1159 27.21 38.9893 27.9451 38.8428 28.6864C38.8228 28.7732 38.7228 28.9062 38.6562 28.913C38.0703 28.933 37.4777 28.9267 36.8252 28.9267C37.2647 26.6292 37.677 24.3781 38.0898 22.1073H39.7812C39.7546 22.468 39.7286 22.8159 39.6953 23.1698C39.8884 22.9895 40.0615 22.8156 40.2412 22.662ZM9.94434 19.6161C11.1895 19.4291 12.4414 19.2964 13.6865 19.6103C14.7718 19.8774 15.5307 20.6452 15.6572 21.5468C15.9169 23.3433 14.8717 24.7796 13.3203 25.2939C12.5013 25.561 11.6689 25.6279 10.8232 25.5478C10.6235 25.5277 10.5636 25.5807 10.5303 25.7743C10.3505 26.756 10.1638 27.731 9.9707 28.706C9.9574 28.786 9.88451 28.9128 9.83789 28.913C9.23196 28.9263 8.63923 28.9198 8 28.9198C8.09317 28.4192 8.1666 27.9586 8.25977 27.498C8.73918 24.9667 9.22566 22.4413 9.70508 19.9101C9.73837 19.75 9.78466 19.6428 9.94434 19.6161ZM63 21.9472C62.8735 22.5817 62.7671 23.1698 62.6406 23.7509C62.6272 23.7976 62.5405 23.8575 62.4873 23.8642C61.1756 24.0378 60.6231 24.5054 60.2969 25.8544C60.0705 26.7894 59.9167 27.7517 59.7236 28.7001C59.7101 28.7802 59.6373 28.907 59.5908 28.9071C58.9782 28.9272 58.3653 28.9198 57.7061 28.9198C57.7926 28.4257 57.8724 27.9784 57.959 27.5243C58.3052 25.7946 58.6582 24.0647 58.8047 22.2948C58.8113 22.2214 58.9116 22.1014 58.9648 22.0946C59.4709 22.0813 59.9774 22.0878 60.5234 22.0878C60.4835 22.562 60.4493 23.0093 60.416 23.4501C61.0286 22.5485 61.7349 21.8136 63 21.9472ZM34.4346 24.4921C34.368 23.7241 33.7888 23.3163 33.083 23.4765C32.7368 23.5566 32.4769 23.7712 32.2705 24.0517C31.8112 24.6861 31.6245 25.4009 31.6045 26.1689C31.6045 26.2689 31.5979 26.3755 31.6045 26.4755C31.6578 27.1767 32.1573 27.6244 32.8164 27.5644C33.1826 27.531 33.4689 27.337 33.6953 27.0565C34.2879 26.3019 34.5145 25.4338 34.4346 24.4921ZM20.2715 23.5106C19.6257 23.3304 19.0865 23.4571 18.6338 23.8378C17.7816 24.5591 17.3955 25.494 17.4688 26.6093C17.4887 26.9499 17.6219 27.2768 17.9814 27.4237C18.3409 27.5706 18.6667 27.4638 18.9463 27.2235C19.1127 27.0766 19.2727 26.9096 19.3926 26.7226C20.0251 25.7543 20.0385 24.6192 20.2715 23.5106ZM55.2559 23.4101C54.4703 23.1966 53.492 23.9176 53.4053 24.8524C53.8313 24.8257 54.2312 24.8189 54.624 24.7655C54.89 24.7321 55.1561 24.6523 55.3955 24.539C55.6552 24.4254 55.7821 24.1844 55.7422 23.8905C55.7021 23.6103 55.5154 23.4768 55.2559 23.4101ZM48.5908 23.4101C47.7984 23.2164 46.8595 23.9114 46.7529 24.7997C47.2656 24.9065 48.3173 24.779 48.7236 24.5653C49.0033 24.4184 49.1433 24.1847 49.0967 23.9042C49.05 23.6171 48.8571 23.4768 48.5908 23.4101ZM12.9805 21.1259C12.5079 20.959 12.022 20.9927 11.5361 21.0595C11.4762 21.0662 11.3961 21.1595 11.3828 21.2196C11.2164 22.0945 11.0497 22.9762 10.8633 23.9579C11.2693 23.9579 11.6355 23.9911 11.9883 23.9511C12.6808 23.8776 13.2339 23.5634 13.5469 22.9022C13.8996 22.1543 13.6462 21.3596 12.9805 21.1259Z" fill="black"/>
<path d="M40.1278 14C40.3075 14.0401 40.4872 14.1002 40.6669 14.127C41.4126 14.2472 42.0126 14.6482 42.5253 15.1758C42.6516 15.3027 42.7775 15.5559 42.7245 15.6895C42.6646 15.8364 42.4248 15.9772 42.245 16.0039C40.5671 16.251 38.9356 16.692 37.371 17.3398C36.4657 17.7138 35.5801 18.1672 34.7147 18.6279C32.8304 19.6431 31.3301 20.9875 29.8319 22.4902C28.2472 24.0798 26.7369 25.8811 25.4452 27.7178C24.6395 28.8598 24.0725 29.791 23.3534 30.9932C22.9939 31.5941 22.576 32.52 22.2831 33.1611C22.2366 33.2544 22.1369 33.4207 22.1034 33.4082C21.9771 33.3682 21.7904 33.2953 21.7567 33.1953C21.6768 32.9482 21.5968 32.6602 21.6434 32.4131C21.8965 31.0709 22.4559 29.8356 23.0751 28.627C24.2803 26.2894 25.792 24.1585 27.5565 22.2217C28.562 21.1197 29.6007 20.0442 30.6727 19.0156C32.284 17.4596 34.0817 16.144 36.0858 15.1289C37.0114 14.6614 37.9704 14.307 38.9891 14.1133C39.1622 14.0799 39.3286 14.0402 39.495 14.0068C39.7147 14.0002 39.9214 14 40.1278 14ZM22.8553 15.5098C22.842 15.3094 22.9557 15.2086 23.1288 15.2754C23.3018 15.3355 23.475 15.4357 23.6014 15.5625C24.6601 16.6912 25.3259 18.0072 25.5057 19.5566C25.5457 19.8571 25.5592 20.1576 25.5858 20.458C25.5658 21.393 25.4054 22.2949 25.0858 23.1631C25.0525 23.2565 24.9863 23.3369 24.9198 23.417C24.7733 23.6107 24.6131 23.6307 24.4999 23.417C24.3534 23.1365 24.2342 22.8356 24.161 22.5352C23.948 21.5936 23.748 20.6454 23.5682 19.6904C23.3352 18.4749 23.128 17.2526 22.9149 16.0371C22.8817 15.8636 22.8687 15.6833 22.8553 15.5098Z" fill="#FC461E"/>
</svg>
