<svg width="70" height="48" viewBox="0 0 70 48" fill="none" xmlns="http://www.w3.org/2000/svg">
<rect x="0.5" y="0.5" width="69" height="47" rx="5.5" fill="white" stroke="#D9D9D9"/>
<path d="M45.0059 17.8818C47.4849 17.882 49.8227 20.1147 49.8369 24.2129C49.8369 28.6928 47.5271 30.7275 44.9912 30.7275C43.7451 30.7275 42.9943 30.2053 42.4844 29.8379L42.4697 33.8369L38.9277 34.5859V18.1074H42.0449L42.2285 18.9844C42.7243 18.5321 43.6175 17.8818 45.0059 17.8818ZM14.7881 17.8818C15.9639 17.8818 17.1259 18.0659 18.3018 18.5322V21.8525C17.2251 21.2731 15.8647 20.9482 14.7881 20.9482C14.0374 20.9483 13.584 21.1608 13.584 21.7119C13.5848 23.2942 18.9819 22.5458 18.9961 26.7568C18.996 29.2864 16.97 30.7421 14.0234 30.7422C12.8052 30.7422 11.4736 30.5017 10.1562 29.9365V26.5732C11.3462 27.2232 12.8478 27.7031 14.0234 27.7031C14.8166 27.7031 15.3826 27.4916 15.3828 26.8418C15.3828 25.1601 10 25.7813 10 21.8809C10.0001 19.3797 11.9125 17.8819 14.7881 17.8818ZM23.1465 18.1221H25.8379V21.1318H23.1465V26.1494C23.1468 28.2398 25.3837 27.5912 25.8379 27.4072V30.2754C25.3704 30.5297 24.5207 30.7421 23.3594 30.7422C21.2628 30.7422 19.6896 29.2017 19.6895 27.1104L19.7041 15.79L23.1611 15.0557L23.1465 18.1221ZM55.8857 17.8818C59.2432 17.8818 61 20.7367 61 24.3545C61 24.6938 60.9717 25.4286 60.9717 25.6123H54.0439C54.1999 27.2795 55.4181 27.7597 56.792 27.7598C58.1945 27.7598 59.3003 27.4629 60.2637 26.9824V29.8096C59.3003 30.3466 58.0247 30.7275 56.3389 30.7275C52.8824 30.7274 50.4737 28.5797 50.4736 24.3262C50.4736 20.7366 52.5141 17.8819 55.8857 17.8818ZM30.2441 19.168C31.0797 17.6421 32.7366 17.9525 33.1904 18.1221V21.3721C32.7507 21.2166 31.3345 21.0197 30.499 22.1074V30.4873H26.958V18.1221H30.0176L30.2441 19.168ZM37.6104 30.4873H34.0547V18.1221H37.6104V30.4873ZM44.1553 21.0195C43.3479 21.0196 42.838 21.3021 42.4697 21.7119L42.4834 26.9541C42.8234 27.3215 43.3196 27.6191 44.1553 27.6191C45.4586 27.6191 46.3369 26.2052 46.3369 24.3115C46.3368 22.4604 45.4444 21.0195 44.1553 21.0195ZM55.8711 20.751C54.9787 20.7512 54.002 21.4151 54.002 23.0117H57.6562C57.6562 21.4148 56.7353 20.751 55.8711 20.751ZM37.6104 16.2852L34.0547 17.0479V14.165L37.6104 13.416V16.2852Z" fill="#6461FC"/>
</svg>
