<svg width="70" height="48" viewBox="0 0 70 48" fill="none" xmlns="http://www.w3.org/2000/svg">
<rect x="0.5" y="0.5" width="69" height="47" rx="5.5" fill="white" stroke="#D9D9D9"/>
<path d="M25.9382 27.8594V20.517H23.2974V18.7747H30.4725V20.517H27.8317V27.8594H25.9382Z" fill="black"/>
<path d="M30.1736 27.8594V21.2637H31.9175V22.309C32.3286 21.4255 32.8642 21.2637 33.4372 21.2637H34.1099V23.0308H33.5369C32.7148 23.0308 31.9798 23.5037 31.9798 24.9473V27.8594H30.1736Z" fill="black"/>
<path d="M34.9321 25.4461V21.2647H36.7383V25.0355C36.7383 25.807 37.112 26.3795 37.8843 26.3795C38.6317 26.3795 39.105 25.807 39.105 25.0479V21.2647H40.9113V27.8604H39.1923V27.0266C38.7563 27.6862 38.1085 28.0098 37.2863 28.0098C35.8414 28.0098 34.9321 27.0142 34.9321 25.4461Z" fill="black"/>
<path d="M41.6838 26.0056L43.2533 25.6448C43.3281 26.155 43.7392 26.5407 44.5238 26.5407C45.1343 26.5407 45.4707 26.2919 45.4707 25.9807C45.4707 25.7319 45.3336 25.5452 44.7107 25.4083L43.6768 25.1843C42.3565 24.8981 41.796 24.2883 41.796 23.1807C41.796 22.0482 42.7302 21.1398 44.4865 21.1398C46.3551 21.1398 47.1025 22.2598 47.1773 22.994L45.5952 23.3425C45.5205 22.9567 45.2339 22.5336 44.4492 22.5336C43.951 22.5336 43.5772 22.7576 43.5772 23.0811C43.5772 23.3549 43.7641 23.5043 44.0879 23.5789L45.5952 23.9274C46.7412 24.1887 47.2768 24.8732 47.2768 25.8439C47.2768 26.8892 46.4423 27.9844 44.5364 27.9844C42.4437 27.9844 41.7586 26.7274 41.6838 26.0056Z" fill="black"/>
<path d="M50.7523 27.8594C49.5813 27.8594 48.7966 27.2123 48.7966 25.9304V22.8442H47.688V21.2637H48.7966V19.7952L50.6028 19.2725V21.2637H51.9357V22.8442H50.6028V25.6069C50.6028 26.0923 50.8519 26.2789 51.3377 26.2789H52.0353V27.8594H50.7523Z" fill="black"/>
<path d="M53.0195 27.8594V18.7747H54.8257V27.8594H53.0195Z" fill="black"/>
<path d="M60.2693 21.2644H62.2L59.4474 30.2246H57.5162L58.2761 27.8602H57.2795L55.4609 21.2644H57.3916L58.7494 26.3668L60.2693 21.2644Z" fill="black"/>
<path d="M7.80005 22.7523H12.0397V19.3736L15.4217 22.7523L12.0397 26.1305V27.8594H16.145V22.7523H19.9162V18.7745H7.80005V22.7523Z" fill="black"/>
</svg>
