<svg width="23" height="25" viewBox="0 0 23 25" fill="none" xmlns="http://www.w3.org/2000/svg">
<path d="M1.81152 19.9981H20.3858C21.4873 19.9981 22.1553 19.4355 22.1553 18.5801C22.1553 17.4082 20.96 16.3535 19.9522 15.3105C19.1787 14.502 18.9678 12.8379 18.874 11.4902C18.792 6.99024 17.5967 3.89649 14.4795 2.77149C14.0342 1.23633 12.8272 0.0292969 11.0928 0.0292969C9.37011 0.0292969 8.15137 1.23633 7.71777 2.77149C4.60058 3.89649 3.40527 6.99024 3.32324 11.4902C3.22949 12.8379 3.01855 14.502 2.24511 15.3105C1.22558 16.3535 0.0419922 17.4082 0.0419922 18.5801C0.0419922 19.4355 0.698242 19.9981 1.81152 19.9981ZM11.0928 24.6973C13.085 24.6973 14.5381 23.2441 14.6904 21.6035H7.50683C7.65918 23.2441 9.1123 24.6973 11.0928 24.6973Z" fill="black" fill-opacity="0.85"/>
</svg>
