<svg width="29" height="20" viewBox="0 0 29 20" fill="none" xmlns="http://www.w3.org/2000/svg">
<path d="M0.669512 6.45489H26.0941V7.2222C25.8889 7.2222 25.6862 7.22602 25.4823 7.2222C22.7954 7.16357 20.6413 9.23098 20.5496 11.9102C20.5368 12.299 20.3074 12.6788 20.1939 13.0675C20.0461 13.5672 19.8281 14.0656 19.7937 14.5754C19.73 15.5403 19.7746 16.5128 19.7746 17.5261C19.4751 17.5389 19.2482 17.558 19.0213 17.558C13.8477 17.5593 8.67404 17.5605 3.49914 17.558C1.53752 17.5554 0.672061 16.6887 0.669512 14.7271C0.668237 12.2046 0.669512 9.68092 0.669512 7.15847V6.45361V6.45489ZM10.173 12.717V9.63248H4.72659V12.717H10.1743H10.173Z" fill="#1D1630"/>
<path d="M0.705628 4.76745C0.705628 3.81405 0.625328 2.90015 0.726022 2.00666C0.853483 0.886276 1.82473 0.0934704 2.9706 0.0361131C3.54163 0.00807174 4.1152 0.0208178 4.6875 0.0208178C10.877 0.0208178 17.0678 0.0552322 23.2572 0.000424101C25.275 -0.0174204 26.2551 1.29415 26.1468 2.88868C26.1047 3.4954 26.1404 4.10721 26.1404 4.76745H0.705628Z" fill="#1D1630"/>
<path d="M28.4999 13.5016C29.2009 13.7272 29.3373 14.2078 29.3259 14.8183C29.3004 16.1528 29.322 17.4899 29.3157 18.8244C29.3118 19.6937 29.0352 19.9881 28.1889 19.9932C26.2808 20.0034 24.3727 20.0034 22.4634 19.9932C21.6451 19.9881 21.3608 19.6911 21.3557 18.8677C21.3468 17.5536 21.3519 16.2395 21.3532 14.9241C21.3532 13.9911 21.3698 13.9618 22.1498 13.443C22.1498 12.9689 22.1422 12.4616 22.1511 11.9555C22.1791 10.2386 23.5595 8.82638 25.2471 8.78304C26.9245 8.73971 28.3623 10.0296 28.4935 11.7261C28.5369 12.2946 28.4999 12.8682 28.4999 13.5016ZM23.8119 13.5424H26.8773C26.8773 12.8886 26.9398 12.2729 26.862 11.6751C26.7613 10.9129 26.0871 10.4056 25.3376 10.4056C24.6136 10.4056 23.9088 10.9167 23.8285 11.6088C23.7571 12.2296 23.8132 12.8643 23.8132 13.5424H23.8119Z" fill="#1D1630"/>
</svg>
