<svg width="23" height="24" viewBox="0 0 23 24" fill="none" xmlns="http://www.w3.org/2000/svg">
<path d="M13.1712 21.4443H14.3433C14.3545 21.1449 14.3741 20.8736 14.3741 20.6022C14.3755 16.5317 14.3741 12.4613 14.3755 8.3908C14.3755 7.22421 14.4986 7.09972 15.6414 7.09832C16.3156 7.09832 16.9912 7.08853 17.6655 7.10112C18.3607 7.11511 18.6264 7.36269 18.7104 8.05509C18.7355 8.26211 18.7243 8.47333 18.7243 8.68175C18.7243 12.6361 18.7243 16.5905 18.7243 20.5449V21.4359C19.0139 21.4569 19.2363 21.482 19.4601 21.4862C20.042 21.4946 20.6253 21.4709 21.2044 21.5002C21.7108 21.5268 22.0535 21.8597 22.0591 22.2584C22.0646 22.6794 21.6814 23.0207 21.1694 23.0487C21.0295 23.0557 20.8897 23.0515 20.7512 23.0515C14.2818 23.0515 7.81241 23.0515 1.34302 23.0515C1.15698 23.0515 0.969543 23.0613 0.784903 23.0431C0.342886 22.9969 0.06173 22.7214 0.0127725 22.285C-0.00820932 22.1003 0.00298097 21.9129 0.00298097 21.7268C0.00298097 15.2365 0.00298097 8.74749 0.00298097 2.25712C0.00298097 2.0473 -0.00960811 1.83608 0.0183676 1.63046C0.088307 1.17026 0.328898 0.959043 0.759725 0.946454C1.19055 0.935264 1.38778 1.06535 1.49269 1.52555C1.55843 1.8151 1.56682 2.12283 1.56682 2.42357C1.57102 8.47193 1.56962 14.5189 1.56962 20.5672V21.4373H3.37266C3.37266 21.1268 3.37266 20.8554 3.37266 20.584C3.37266 15.4435 3.38525 10.3029 3.36287 5.1624C3.35727 3.92447 3.56569 3.5482 4.94769 3.61534C5.48203 3.64192 6.01777 3.61534 6.5535 3.62094C7.42914 3.63213 7.7019 3.91328 7.71449 4.80851C7.72009 5.20436 7.71449 5.59882 7.71449 5.99468C7.71449 10.8569 7.71449 15.7176 7.71449 20.5798V21.4415H8.76778C8.78596 21.1785 8.81814 20.9113 8.81954 20.6442C8.82373 17.5501 8.82233 14.4573 8.82233 11.3632C8.82233 11.1534 8.80834 10.9422 8.83352 10.7352C8.89647 10.1854 9.23218 9.81616 9.7833 9.79239C10.6198 9.75602 11.459 9.75322 12.2955 9.79239C12.925 9.82176 13.167 10.1561 13.1684 10.889C13.1726 14.0992 13.1712 17.3095 13.1712 20.5197C13.1712 20.7966 13.1712 21.075 13.1712 21.4457V21.4443Z" fill="#1D1630"/>
</svg>
