<svg width="29" height="29" viewBox="0 0 29 29" fill="none" xmlns="http://www.w3.org/2000/svg">
<path d="M6.44185 9.12643C6.15715 9.12643 5.88411 9.01333 5.6828 8.81202C5.48148 8.61071 5.36839 8.33767 5.36839 8.05297C5.36839 7.91062 5.31184 7.7741 5.21118 7.67344C5.11052 7.57278 4.974 7.51623 4.83165 7.51623C4.6893 7.51623 4.55278 7.57278 4.45213 7.67344C4.35147 7.7741 4.29492 7.91062 4.29492 8.05297C4.2967 8.52755 4.45568 8.98817 4.74701 9.36282C5.03834 9.73747 5.4456 10.005 5.90512 10.1237V10.7366C5.90512 10.879 5.96167 11.0155 6.06232 11.1162C6.16298 11.2168 6.2995 11.2734 6.44185 11.2734C6.5842 11.2734 6.72072 11.2168 6.82138 11.1162C6.92203 11.0155 6.97858 10.879 6.97858 10.7366V10.1237C7.48398 9.9936 7.92454 9.68353 8.21755 9.25168C8.51056 8.81983 8.63589 8.29588 8.57001 7.77818C8.50413 7.26048 8.25157 6.78463 7.85973 6.43993C7.46789 6.09523 6.96372 5.90539 6.44185 5.90604C6.22954 5.90604 6.022 5.84308 5.84547 5.72513C5.66893 5.60717 5.53135 5.43952 5.4501 5.24337C5.36885 5.04722 5.34759 4.83138 5.38901 4.62315C5.43043 4.41492 5.53267 4.22365 5.6828 4.07352C5.83292 3.92339 6.0242 3.82116 6.23243 3.77974C6.44066 3.73832 6.6565 3.75957 6.85265 3.84082C7.0488 3.92207 7.21645 4.05966 7.3344 4.23619C7.45236 4.41272 7.51531 4.62026 7.51531 4.83257C7.51531 4.97492 7.57186 5.11144 7.67252 5.2121C7.77317 5.31276 7.90969 5.36931 8.05205 5.36931C8.1944 5.36931 8.33092 5.31276 8.43157 5.2121C8.53223 5.11144 8.58878 4.97492 8.58878 4.83257C8.587 4.35799 8.42802 3.89737 8.13669 3.52272C7.84536 3.14807 7.4381 2.88051 6.97858 2.76186V2.14891C6.97858 2.00656 6.92203 1.87004 6.82138 1.76939C6.72072 1.66873 6.5842 1.61218 6.44185 1.61218C6.2995 1.61218 6.16298 1.66873 6.06232 1.76939C5.96167 1.87004 5.90512 2.00656 5.90512 2.14891V2.76186C5.39971 2.89194 4.95916 3.20201 4.66615 3.63386C4.37314 4.06571 4.24781 4.58966 4.31369 5.10736C4.37957 5.62506 4.63213 6.10091 5.02397 6.44561C5.41581 6.79031 5.91998 6.98015 6.44185 6.9795C6.72655 6.9795 6.99959 7.0926 7.2009 7.29391C7.40222 7.49523 7.51531 7.76827 7.51531 8.05297C7.51531 8.33767 7.40222 8.61071 7.2009 8.81202C6.99959 9.01333 6.72655 9.12643 6.44185 9.12643Z" fill="#FF52A8"/>
<path d="M27.9118 14.4935C27.9119 11.0286 26.5716 7.69796 24.1715 5.19886C21.7715 2.69976 18.4977 1.22595 15.0356 1.08597L14.7978 1.08168C14.7474 1.07845 14.6942 1.07631 14.6416 1.07523C14.589 1.07416 14.5343 1.07523 14.486 1.07523C14.3845 1.07523 14.2906 1.07523 14.2176 1.08275L13.9493 1.08812H13.9272C12.8353 1.13352 11.7533 1.3149 10.7063 1.62807C9.48076 0.536684 7.8843 -0.0448079 6.24392 0.00269733C4.60354 0.0502025 3.04339 0.723109 1.88305 1.88359C0.722709 3.04407 0.0499866 4.60429 0.00267535 6.24468C-0.0446359 7.88506 0.537045 9.48146 1.62857 10.7069C1.05134 12.6634 0.928045 14.7257 1.26806 16.737C1.60808 18.7483 2.40245 20.6555 3.59071 22.3136C4.77898 23.9716 6.32982 25.3366 8.12521 26.3049C9.9206 27.2731 11.9132 27.8191 13.9514 27.9011L14.1892 27.9054C14.2906 27.9113 14.3921 27.9118 14.4935 27.9118C14.5949 27.9118 14.6964 27.9118 14.7672 27.9065L15.0356 27.9011H15.0576C16.1494 27.8551 17.2312 27.6732 18.278 27.3595C19.5026 28.4573 21.1012 29.044 22.7452 28.9992C24.3892 28.9544 25.9535 28.2814 27.1164 27.1186C28.2794 25.9557 28.9526 24.3915 28.9976 22.7476C29.0426 21.1036 28.456 19.5049 27.3584 18.2802C27.7239 17.0511 27.9102 15.7758 27.9118 14.4935ZM8.28673 25.152C8.11015 25.0489 7.9341 24.9437 7.76235 24.8299C7.62548 24.7408 7.49398 24.6469 7.35765 24.5524C7.19073 24.4338 7.02595 24.312 6.86439 24.1848C6.7345 24.0828 6.6073 23.9776 6.48117 23.8702C6.40656 23.8069 6.33518 23.7387 6.26218 23.6733C6.55685 23.4441 6.86869 23.2305 7.18804 23.0254C7.73772 23.9895 8.42216 24.8702 9.22065 25.6409C9.04889 25.5599 8.8766 25.4799 8.7086 25.3892C8.56583 25.3151 8.42843 25.2335 8.28673 25.152ZM5.12646 12.747C5.08888 13.1406 5.0642 13.5439 5.05239 13.9568H2.16906C2.20228 13.1396 2.31717 12.3278 2.51203 11.5335C3.2799 12.1315 4.17404 12.5465 5.12646 12.747ZM20.7056 3.83726C20.8795 3.9387 21.0524 4.04229 21.2214 4.15286C21.361 4.24303 21.4973 4.33856 21.6331 4.43464C21.7979 4.55218 21.9611 4.67241 22.121 4.79801C22.2516 4.90106 22.3801 5.00662 22.5064 5.11468C22.5804 5.17801 22.6518 5.24564 22.7248 5.31112C22.4291 5.54084 22.1156 5.75446 21.7952 5.96003C21.2468 4.99534 20.5632 4.11405 19.7653 3.34293C19.9365 3.42397 20.1077 3.50395 20.2752 3.59358C20.4206 3.67194 20.5629 3.75514 20.7056 3.83833V3.83726ZM23.9357 13.9568C23.8922 11.5178 23.3315 9.11572 22.2906 6.90951C22.7085 6.64568 23.1115 6.35899 23.4977 6.05074C25.5241 8.19852 26.706 11.0064 26.8255 13.9568H23.9357ZM18.7686 13.9568C18.7127 12.1806 18.4775 10.4145 18.0665 8.68556C19.2114 8.41279 20.3178 7.99808 21.3599 7.45107C22.3074 9.49168 22.8193 11.7074 22.8628 13.9568H18.7686ZM17.2775 18.8491C17.019 19.2142 16.7994 19.6052 16.6222 20.016C15.0779 19.7967 13.509 19.8168 11.9709 20.0755C11.576 18.4208 11.3485 16.7305 11.2919 15.0303H17.6999C17.6631 16.3126 17.5218 17.5897 17.2775 18.8491ZM8.11713 22.4908C9.0844 21.9835 10.111 21.5984 11.1733 21.3444C11.6587 23.1572 12.2822 24.9302 13.0384 26.6478C11.1319 26.1524 9.39025 24.6882 8.11713 22.4908ZM6.12478 15.0303H10.2184C10.2743 16.8063 10.5095 18.5722 10.9205 20.301C9.77505 20.5749 8.66794 20.9895 7.62441 21.5355C6.68106 19.4937 6.17047 17.2789 6.12478 15.0303ZM11.2871 13.9568C11.3239 12.6745 11.4652 11.3973 11.7095 10.138C11.9701 9.77027 12.1912 9.37609 12.3691 8.96197C13.0723 9.06856 13.7823 9.12346 14.4935 9.12621C15.3389 9.12586 16.1828 9.05404 17.0161 8.91152C17.411 10.5663 17.6384 12.2565 17.6951 13.9568H11.2871ZM12.8833 6.44255C12.8833 6.22602 12.8723 6.00962 12.8506 5.79418C13.2694 4.5555 13.7531 3.33973 14.2997 2.15192C14.3636 2.1487 14.428 2.1487 14.4935 2.1487C14.559 2.1487 14.6234 2.1487 14.6883 2.15192C15.5398 3.99468 16.2337 5.90618 16.7628 7.86597C15.4195 8.08499 14.0515 8.10885 12.7014 7.93682C12.8205 7.4476 12.8816 6.94606 12.8833 6.44255ZM20.8661 6.49623C19.9003 7.00417 18.8747 7.38914 17.8132 7.64215C17.3282 5.82926 16.7048 4.05625 15.9486 2.3387C17.8556 2.8341 19.5957 4.29885 20.8661 6.49623ZM13.0357 2.34836C12.8033 2.87812 12.586 3.41109 12.3793 3.94621C12.2135 3.55396 12.0093 3.17909 11.7696 2.82713C12.1729 2.62188 12.5975 2.46133 13.0357 2.34836ZM10.2136 13.9568H6.12585C6.13659 13.5865 6.15877 13.2243 6.19241 12.8705C6.27614 12.8737 6.35826 12.8833 6.44252 12.8833C7.88063 12.8831 9.27682 12.399 10.4063 11.5088C10.2997 12.3209 10.2354 13.138 10.2136 13.9568ZM5.05131 15.0303C5.09769 17.4686 5.65712 19.8698 6.69318 22.0776C6.27646 22.3416 5.87456 22.6282 5.48929 22.9363C3.46287 20.7885 2.28102 17.9807 2.16155 15.0303H5.05131ZM14.2987 26.8351C13.4472 24.9924 12.7533 23.0809 12.2242 21.1211C13.5675 20.9018 14.9355 20.8779 16.2856 21.0502C16.1134 21.7493 16.0629 22.4729 16.1364 23.1891C15.7208 24.4302 15.237 25.6474 14.6873 26.8351C14.6218 26.8351 14.5552 26.8351 14.4914 26.8384C14.4275 26.8416 14.3636 26.8384 14.2987 26.8351ZM15.9561 26.636C16.1601 26.1723 16.3817 25.6382 16.6093 25.0462C16.7743 25.4353 16.9772 25.807 17.2153 26.1562C16.8141 26.3612 16.3919 26.5221 15.9561 26.636ZM18.7734 15.0303H22.8612C22.8504 15.4006 22.8282 15.7627 22.7946 16.1166C22.7109 16.1134 22.6287 16.1037 22.5445 16.1037C21.1064 16.1039 19.7102 16.5881 18.5807 17.4783C18.6873 16.6662 18.7516 15.8491 18.7734 15.0303ZM23.9346 15.0303H26.8179C26.7847 15.8475 26.6698 16.6593 26.475 17.4536C25.7071 16.8556 24.813 16.4405 23.8605 16.2401C23.8981 15.8457 23.9228 15.4425 23.9346 15.0303ZM6.44252 1.07523C7.50408 1.07523 8.54179 1.39002 9.42445 1.97979C10.3071 2.56956 10.995 3.40782 11.4013 4.38857C11.8075 5.36932 11.9138 6.44851 11.7067 7.48967C11.4996 8.53082 10.9884 9.48719 10.2378 10.2378C9.48716 10.9885 8.53079 11.4996 7.48963 11.7067C6.44848 11.9138 5.36929 11.8076 4.38854 11.4013C3.40779 10.9951 2.56953 10.3071 1.97976 9.42448C1.38999 8.54183 1.0752 7.50411 1.0752 6.44255C1.07677 5.01953 1.64275 3.65524 2.64898 2.64901C3.65521 1.64278 5.0195 1.0768 6.44252 1.07523ZM22.5445 27.9118C21.4829 27.9118 20.4452 27.597 19.5626 27.0073C18.6799 26.4175 17.992 25.5792 17.5857 24.5985C17.1795 23.6177 17.0732 22.5386 17.2803 21.4974C17.4874 20.4562 17.9986 19.4999 18.7492 18.7492C19.4998 17.9986 20.4562 17.4874 21.4974 17.2803C22.5385 17.0732 23.6177 17.1795 24.5985 17.5858C25.5792 17.992 26.4175 18.6799 27.0072 19.5626C27.597 20.4452 27.9118 21.483 27.9118 22.5445C27.9102 23.9675 27.3443 25.3318 26.338 26.3381C25.3318 27.3443 23.9675 27.9103 22.5445 27.9118Z" fill="#FF52A8"/>
<path d="M22.5456 19.8607C22.8303 19.8607 23.1034 19.9738 23.3047 20.1751C23.506 20.3764 23.6191 20.6494 23.6191 20.9341C23.6191 21.0765 23.6756 21.213 23.7763 21.3137C23.8769 21.4143 24.0135 21.4709 24.1558 21.4709C24.2982 21.4709 24.4347 21.4143 24.5353 21.3137C24.636 21.213 24.6925 21.0765 24.6925 20.9341C24.6908 20.4596 24.5318 19.9989 24.2404 19.6243C23.9491 19.2496 23.5419 18.9821 23.0823 18.8634V18.2505C23.0823 18.1081 23.0258 17.9716 22.9251 17.8709C22.8245 17.7703 22.688 17.7137 22.5456 17.7137C22.4033 17.7137 22.2667 17.7703 22.1661 17.8709C22.0654 17.9716 22.0089 18.1081 22.0089 18.2505V18.8634C21.5035 18.9935 21.0629 19.3036 20.7699 19.7354C20.4769 20.1673 20.3516 20.6912 20.4174 21.2089C20.4833 21.7266 20.7359 22.2025 21.1277 22.5472C21.5196 22.8919 22.0237 23.0817 22.5456 23.0811C22.7579 23.0811 22.9655 23.144 23.142 23.262C23.3185 23.3799 23.4561 23.5476 23.5374 23.7437C23.6186 23.9399 23.6399 24.1557 23.5984 24.364C23.557 24.5722 23.4548 24.7635 23.3047 24.9136C23.1545 25.0637 22.9633 25.1659 22.755 25.2074C22.5468 25.2488 22.331 25.2275 22.1348 25.1463C21.9387 25.065 21.771 24.9274 21.6531 24.7509C21.5351 24.5744 21.4721 24.3668 21.4721 24.1545C21.4721 24.0122 21.4156 23.8757 21.3149 23.775C21.2143 23.6743 21.0778 23.6178 20.9354 23.6178C20.7931 23.6178 20.6565 23.6743 20.5559 23.775C20.4552 23.8757 20.3987 24.0122 20.3987 24.1545C20.4005 24.6291 20.5594 25.0897 20.8508 25.4644C21.1421 25.839 21.5494 26.1066 22.0089 26.2252V26.8382C22.0089 26.9805 22.0654 27.1171 22.1661 27.2177C22.2667 27.3184 22.4033 27.3749 22.5456 27.3749C22.688 27.3749 22.8245 27.3184 22.9251 27.2177C23.0258 27.1171 23.0823 26.9805 23.0823 26.8382V26.2252C23.5877 26.0952 24.0283 25.7851 24.3213 25.3532C24.6143 24.9214 24.7397 24.3974 24.6738 23.8797C24.6079 23.362 24.3553 22.8862 23.9635 22.5415C23.5717 22.1968 23.0675 22.007 22.5456 22.0076C22.2609 22.0076 21.9879 21.8945 21.7866 21.6932C21.5852 21.4919 21.4721 21.2188 21.4721 20.9341C21.4721 20.6494 21.5852 20.3764 21.7866 20.1751C21.9879 19.9738 22.2609 19.8607 22.5456 19.8607Z" fill="#FF52A8"/>
</svg>
