<svg width="10" height="12" viewBox="0 0 10 12" fill="none" xmlns="http://www.w3.org/2000/svg">
<path d="M8.33651 4.89036C8.59336 4.89036 8.79999 4.88639 9.00598 4.89169C9.27441 4.89832 9.39865 5.01963 9.4244 5.29473C9.43019 5.35638 9.42826 5.41936 9.42826 5.48167C9.42826 7.45116 9.42826 9.42064 9.42826 11.3901C9.42826 11.8906 9.32012 12 8.83089 12C6.07834 12 3.32514 12 0.57259 12C0.115548 12 0.000965582 11.886 0.000965582 11.4186C-0.000321861 9.42263 -0.000321861 7.42597 0.000965582 5.42997C0.000965582 5.00041 0.109754 4.89103 0.52238 4.8897C0.694253 4.88904 0.865483 4.8897 1.09529 4.8897C1.09529 4.71933 1.09529 4.5735 1.09529 4.42766C1.094 3.75083 1.07984 3.07799 1.31802 2.4237C1.88449 0.86853 3.4571 -0.14969 5.07156 0.018025C6.67378 0.184414 8.01401 1.46382 8.25798 3.09456C8.32621 3.54931 8.31398 4.01666 8.33587 4.4787C8.34166 4.60134 8.33651 4.72464 8.33651 4.89036ZM7.61233 4.87843C7.61233 4.52974 7.62069 4.21089 7.60975 3.89203C7.60138 3.65272 7.58336 3.41143 7.54473 3.17543C7.31814 1.79925 6.0365 0.685568 4.68468 0.758488C2.49152 0.876485 1.50792 2.72333 1.86518 4.87843H7.61233ZM5.46358 8.29039C5.43462 7.93574 5.22541 7.62683 4.93058 7.53999C4.60743 7.44453 4.26369 7.57645 4.09503 7.86216C3.9296 8.14124 3.98689 8.52241 4.20189 8.77696C4.28171 8.87176 4.3184 9.01296 4.35123 9.13957C4.37505 9.23105 4.3448 9.33778 4.36604 9.43059C4.40724 9.61222 4.53019 9.76336 4.70914 9.71829C4.84239 9.68448 4.95633 9.54063 5.05868 9.42661C5.09409 9.38684 5.07542 9.28873 5.06963 9.21846C5.05418 9.02423 5.09087 8.8711 5.24794 8.72592C5.35801 8.6245 5.39471 8.43888 5.46358 8.29039Z" fill="#1D1630"/>
</svg>
