<svg width="10" height="12" viewBox="0 0 10 12" fill="none" xmlns="http://www.w3.org/2000/svg">
<path d="M7.9861 4.96782C8.23215 4.96782 8.4301 4.96412 8.62743 4.96906C8.88458 4.97522 9.0036 5.08807 9.02826 5.34399C9.03381 5.40134 9.03196 5.45992 9.03196 5.51789C9.03196 7.35 9.03196 9.1821 9.03196 11.0142C9.03196 11.4798 8.92836 11.5815 8.4597 11.5815C5.82285 11.5815 3.18538 11.5815 0.548522 11.5815C0.110691 11.5815 0.000924995 11.4755 0.000924995 11.0407C-0.000308332 9.18395 -0.000308332 7.32656 0.000924995 5.46979C0.000924995 5.07019 0.105141 4.96844 0.500422 4.96721C0.665072 4.96659 0.829104 4.96721 1.04925 4.96721C1.04925 4.80872 1.04925 4.67306 1.04925 4.53739C1.04802 3.90778 1.03445 3.28187 1.26262 2.67322C1.80528 1.22653 3.31179 0.279331 4.85838 0.435347C6.39326 0.590129 7.67715 1.78029 7.91087 3.29728C7.97623 3.72031 7.96452 4.15506 7.98548 4.58488C7.99103 4.69896 7.9861 4.81366 7.9861 4.96782ZM7.29236 4.95672C7.29236 4.63236 7.30037 4.33574 7.28989 4.03913C7.28187 3.81651 7.2646 3.59205 7.2276 3.37252C7.01054 2.09232 5.78276 1.05633 4.48777 1.12416C2.3868 1.23393 1.44453 2.95195 1.78678 4.95672H7.29236ZM5.23393 8.13069C5.20618 7.80078 5.00577 7.51341 4.72333 7.43263C4.41377 7.34383 4.08447 7.46654 3.9229 7.73233C3.76442 7.99194 3.81931 8.34652 4.02527 8.58332C4.10174 8.6715 4.13689 8.80285 4.16834 8.92064C4.19115 9.00574 4.16217 9.10502 4.18252 9.19135C4.22199 9.36032 4.33977 9.50092 4.5112 9.45898C4.63885 9.42753 4.748 9.29372 4.84605 9.18765C4.87997 9.15065 4.86208 9.05939 4.85653 8.99402C4.84173 8.81334 4.87688 8.67089 5.02735 8.53584C5.1328 8.44149 5.16795 8.26882 5.23393 8.13069Z" fill="#D90084"/>
</svg>
