<svg width="27" height="14" viewBox="0 0 27 14" fill="none" xmlns="http://www.w3.org/2000/svg">
<path d="M19.9737 4.52862C19.3204 3.87529 18.4337 3.50195 17.5004 3.50195C16.567 3.50195 15.6804 3.87529 15.027 4.52862C14.3737 5.18195 14.0004 6.06862 14.0004 7.00195C14.0004 7.93529 14.3737 8.82195 15.027 9.47529C15.6804 10.1286 16.567 10.502 17.5004 10.502C18.4337 10.502 19.3204 10.1286 19.9737 9.47529C20.627 8.82195 21.0004 7.93529 21.0004 7.00195C21.0004 6.06862 20.627 5.18195 19.9737 4.52862ZM8.16703 0.00195312V14.002H26.8337V0.00195312H8.16703ZM24.5004 9.33529C23.882 9.33529 23.287 9.58029 22.8554 10.0236C22.412 10.4553 22.167 11.0503 22.167 11.6686H12.8337C12.8337 11.0503 12.5887 10.4553 12.1454 10.0236C11.7137 9.58029 11.1187 9.33529 10.5004 9.33529V4.66862C11.1187 4.66862 11.7137 4.42362 12.1454 3.98029C12.5887 3.54862 12.8337 2.95362 12.8337 2.33529H22.167C22.167 2.95362 22.412 3.54862 22.8554 3.98029C23.287 4.42362 23.882 4.66862 24.5004 4.66862V9.33529ZM5.8337 2.33529H3.50037C2.8587 2.33529 2.3337 1.81029 2.3337 1.16862C2.3337 0.526953 2.8587 0.00195312 3.50037 0.00195312H5.8337V2.33529ZM5.8337 8.16862H2.3337C1.69203 8.16862 1.16703 7.64362 1.16703 7.00195C1.16703 6.36029 1.69203 5.83529 2.3337 5.83529H5.8337V8.16862ZM5.8337 14.002H1.16703C0.523033 14.002 0.000366211 13.477 0.000366211 12.8353C0.000366211 12.1936 0.523033 11.6686 1.16703 11.6686H5.8337V14.002Z" fill="#1D1630"/>
</svg>
