<svg width="39" height="25" viewBox="0 0 39 25" fill="none" xmlns="http://www.w3.org/2000/svg">
<g clip-path="url(#clip0_224_941)">
<path d="M35.6216 0H7.55743C6.12835 0 4.96668 1.14413 4.93161 2.56444C3.73926 2.81431 2.84061 3.87077 2.84061 5.13765V5.34806H2.63019C1.1792 5.34806 0 6.52727 0 7.97826V22.3698C0 23.8208 1.1792 25 2.63019 25H30.6988C32.1497 25 33.3289 23.8208 33.3289 22.3698V22.1594H33.5394C34.9684 22.1594 36.1301 21.0153 36.1652 19.595C37.3575 19.3451 38.2562 18.2886 38.2562 17.0217V2.63019C38.2562 1.1792 37.0726 0 35.6216 0ZM2.62581 6.66316H5.29984C4.80449 7.68455 3.5683 9.74049 1.31071 10.7531V7.97826C1.31071 7.25057 1.90251 6.66316 2.62581 6.66316ZM32.0051 10.6654C29.8746 9.62651 28.6823 7.65825 28.1957 6.66316H30.69C31.4133 6.66316 32.0051 7.25495 32.0051 7.97826V10.6654ZM26.7535 6.66316C27.0647 7.44783 28.5595 10.7531 32.0051 12.0989V18.5297C30.8829 19.0295 28.0642 20.5637 26.8543 23.6849H6.76837C5.42258 20.2087 2.08224 18.7095 1.3151 18.4026V12.1647C4.8834 10.8627 6.42644 7.46099 6.74207 6.65878H26.7578L26.7535 6.66316ZM1.31071 22.3698V19.8448C2.3058 20.3314 4.29598 21.5281 5.33491 23.6849H2.62581C1.90251 23.6849 1.31071 23.0931 1.31071 22.3698ZM30.69 23.6849H28.2834C29.2258 21.7298 30.9486 20.5637 32.0051 19.9982V22.3698C32.0051 23.0931 31.4177 23.6849 30.69 23.6849ZM34.8457 19.5292C34.8457 20.2525 34.2539 20.8443 33.5306 20.8443H33.3202V19.139C33.3509 19.0295 33.3509 18.9067 33.3202 18.7884V11.8227C33.3509 11.7044 33.3509 11.5816 33.3202 11.4676V7.97387C33.3202 6.52288 32.141 5.34368 30.69 5.34368H4.15132V5.13326C4.15132 4.40996 4.74312 3.81817 5.46642 3.81817H5.57601C5.57601 3.81817 5.5804 3.81817 5.58478 3.81817C5.58916 3.81817 5.58916 3.81817 5.59355 3.81817H33.5306C34.2539 3.81817 34.8457 4.40996 34.8457 5.13326V19.5248V19.5292ZM36.9367 17.0217C36.9367 17.5522 36.6167 18.0081 36.1608 18.2185V5.13765C36.1608 3.68666 34.9816 2.50745 33.5306 2.50745H6.2511C6.31247 1.84114 6.86919 1.3151 7.55304 1.3151H35.6172C36.3405 1.3151 36.9323 1.90689 36.9323 2.63019V17.0217H36.9367Z" fill="#FF52A8"/>
<path d="M16.4294 15.6712C17.35 16.0306 17.3632 16.1271 17.2755 16.4734C17.1878 16.8022 17.0432 16.8635 16.9906 16.8898C16.8985 16.9293 16.7889 16.9468 16.6706 16.9424C16.6706 16.9424 16.6662 16.9424 16.6618 16.9424C16.3023 16.9337 15.8683 16.7759 15.6623 16.6707C15.3423 16.5041 14.9434 16.6312 14.7768 16.9512C14.6102 17.2712 14.733 17.6701 15.0574 17.8367C15.1319 17.8762 15.5133 18.0647 16.0086 18.1742V18.503C16.0086 18.8669 16.3023 19.1606 16.6662 19.1606C17.03 19.1606 17.3237 18.8669 17.3237 18.503V18.1655C17.3939 18.1436 17.4596 18.1173 17.5297 18.091C17.8848 17.9331 18.3539 17.5825 18.5555 16.8065C18.9632 15.246 17.6306 14.7243 16.9204 14.4438C16.2629 14.1851 16.0305 14.0536 16.0218 13.8344C16.0174 13.7117 16.0305 13.5583 16.1051 13.5057C16.3462 13.3347 17.1308 13.4574 17.6788 13.6766C18.0163 13.8125 18.3977 13.6459 18.5336 13.3084C18.6695 12.9708 18.5029 12.5895 18.1654 12.4536C18.047 12.4054 17.727 12.287 17.3281 12.2037V11.8662C17.3281 11.5023 17.0344 11.2086 16.6706 11.2086C16.3067 11.2086 16.013 11.5023 16.013 11.8662V12.1599C15.7763 12.2081 15.5483 12.2914 15.3467 12.4317C15.0398 12.6465 14.6804 13.0761 14.7067 13.8826C14.7461 15.0092 15.7631 15.4082 16.4382 15.6756L16.4294 15.6712Z" fill="#FF52A8"/>
<path d="M16.6635 21.3087C20.0477 21.3087 22.8006 18.5558 22.8006 15.1716C22.8006 11.7874 20.0477 9.03448 16.6635 9.03448C13.2793 9.03448 10.5264 11.7874 10.5264 15.1716C10.5264 18.5558 13.2793 21.3087 16.6635 21.3087ZM16.6635 10.3496C19.32 10.3496 21.4855 12.5107 21.4855 15.1716C21.4855 17.8325 19.3244 19.9936 16.6635 19.9936C14.0026 19.9936 11.8415 17.8325 11.8415 15.1716C11.8415 12.5107 14.0026 10.3496 16.6635 10.3496Z" fill="#FF52A8"/>
<path d="M2.99397 14.4788C2.63013 14.4788 2.33643 14.7725 2.33643 15.1364V15.224C2.33643 15.5879 2.63013 15.8816 2.99397 15.8816C3.35782 15.8816 3.65152 15.5879 3.65152 15.224V15.1364C3.65152 14.7725 3.35782 14.4788 2.99397 14.4788Z" fill="#FF52A8"/>
<path d="M30.1732 15.8867C30.537 15.8867 30.8307 15.593 30.8307 15.2292V15.1415C30.8307 14.7777 30.537 14.484 30.1732 14.484C29.8093 14.484 29.5156 14.7777 29.5156 15.1415V15.2292C29.5156 15.593 29.8093 15.8867 30.1732 15.8867Z" fill="#FF52A8"/>
</g>
<defs>
<clipPath id="clip0_224_941">
<rect width="38.2562" height="25" fill="white"/>
</clipPath>
</defs>
</svg>
