<svg width="84" height="84" viewBox="0 0 84 84" fill="none" xmlns="http://www.w3.org/2000/svg">
<path d="M33.25 48.1248C33.25 51.5198 35.875 54.2498 39.095 54.2498H45.675C48.475 54.2498 50.75 51.8698 50.75 48.8948C50.75 45.7098 49.35 44.5548 47.285 43.8198L36.75 40.1448C34.685 39.4098 33.285 38.2898 33.285 35.0698C33.285 32.1298 35.56 29.7148 38.36 29.7148H44.94C48.16 29.7148 50.785 32.4448 50.785 35.8398" stroke="#FF52A8" stroke-width="3" stroke-linecap="round" stroke-linejoin="round"/>
<path d="M42 26.25V57.75" stroke="#FF52A8" stroke-width="3" stroke-linecap="round" stroke-linejoin="round"/>
<path d="M77 42C77 61.32 61.32 77 42 77C22.68 77 7 61.32 7 42C7 22.68 22.68 7 42 7" stroke="#FF52A8" stroke-width="3" stroke-linecap="round" stroke-linejoin="round"/>
<path d="M77 21V7H63" stroke="#FF52A8" stroke-width="3" stroke-linecap="round" stroke-linejoin="round"/>
<path d="M59.5 24.5L77 7" stroke="#FF52A8" stroke-width="3" stroke-linecap="round" stroke-linejoin="round"/>
</svg>
