<svg width="19" height="25" viewBox="0 0 19 25" fill="none" xmlns="http://www.w3.org/2000/svg">
<path d="M18.6536 5.14539L13.8096 0.372192C13.587 0.153015 13.2852 0.03125 12.9685 0.03125H12.6667V6.26562H19V5.96852C19 5.66167 18.8763 5.36456 18.6536 5.14539ZM11.0833 6.65527V0.03125H1.1875C0.529427 0.03125 0 0.552405 0 1.2002V23.7998C0 24.4476 0.529427 24.9688 1.1875 24.9688H17.8125C18.4706 24.9688 19 24.4476 19 23.7998V7.82422H12.2708C11.6177 7.82422 11.0833 7.29819 11.0833 6.65527ZM3.16667 3.53809C3.16667 3.32281 3.3438 3.14844 3.5625 3.14844H7.52083C7.73953 3.14844 7.91667 3.32281 7.91667 3.53809V4.31738C7.91667 4.53266 7.73953 4.70703 7.52083 4.70703H3.5625C3.3438 4.70703 3.16667 4.53266 3.16667 4.31738V3.53809ZM3.16667 7.43457V6.65527C3.16667 6.43999 3.3438 6.26562 3.5625 6.26562H7.52083C7.73953 6.26562 7.91667 6.43999 7.91667 6.65527V7.43457C7.91667 7.64985 7.73953 7.82422 7.52083 7.82422H3.5625C3.3438 7.82422 3.16667 7.64985 3.16667 7.43457ZM10.2917 20.2871V21.4619C10.2917 21.6772 10.1145 21.8516 9.89583 21.8516H9.10417C8.88547 21.8516 8.70833 21.6772 8.70833 21.4619V20.2788C8.14971 20.2506 7.60643 20.0587 7.15617 19.726C6.9632 19.5833 6.95331 19.2989 7.12797 19.1347L7.70935 18.5887C7.84641 18.4602 8.05026 18.4543 8.21057 18.5532C8.40206 18.6711 8.61927 18.7344 8.8449 18.7344H10.2358C10.5574 18.7344 10.8196 18.446 10.8196 18.0919C10.8196 17.8021 10.641 17.5469 10.3857 17.4719L8.15911 16.8144C7.2393 16.5426 6.59656 15.6737 6.59656 14.701C6.59656 13.5068 7.53914 12.5365 8.70784 12.5058V11.3311C8.70784 11.1158 8.88497 10.9414 9.10367 10.9414H9.89534C10.114 10.9414 10.2912 11.1158 10.2912 11.3311V12.5141C10.8498 12.5424 11.3931 12.7338 11.8433 13.0669C12.0363 13.2096 12.0462 13.4941 11.8715 13.6582L11.2902 14.2042C11.1531 14.3328 10.9492 14.3387 10.7889 14.2398C10.5974 14.1214 10.3802 14.0586 10.1546 14.0586H8.76375C8.44214 14.0586 8.1799 14.3469 8.1799 14.701C8.1799 14.9908 8.35852 15.246 8.61383 15.3211L10.8404 15.9786C11.7602 16.2504 12.4029 17.1193 12.4029 18.0919C12.4029 19.2867 11.4604 20.2564 10.2917 20.2871Z" fill="#1D1630"/>
</svg>
