<svg width="23" height="17" viewBox="0 0 23 17" fill="none" xmlns="http://www.w3.org/2000/svg">
<path d="M9.65946 0.311929L5.6628 4.24986H1.07811C0.482456 4.24986 0 4.72533 0 5.31237V11.6874C0 12.274 0.482456 12.7499 1.07811 12.7499H5.6628L9.65946 16.6879C10.3346 17.3533 11.4999 16.8858 11.4999 15.9366V1.06321C11.4999 0.11315 10.3337 -0.352583 9.65946 0.311929ZM20.7375 8.4999L22.7877 6.47936C23.0708 6.20045 23.0708 5.748 22.7877 5.46909L21.7626 4.45882C21.4796 4.17991 21.0205 4.17991 20.7375 4.45882L18.6873 6.47936L16.6371 4.45882C16.3541 4.17991 15.895 4.17991 15.612 4.45882L14.5869 5.46909C14.3039 5.748 14.3039 6.20045 14.5869 6.47936L16.6371 8.4999L14.5873 10.52C14.3043 10.7989 14.3043 11.2514 14.5873 11.5303L15.6124 12.5405C15.8954 12.8194 16.3545 12.8194 16.6376 12.5405L18.6873 10.5204L20.7375 12.541C21.0205 12.8199 21.4796 12.8199 21.7626 12.541L22.7877 11.5307C23.0708 11.2518 23.0708 10.7993 22.7877 10.5204L20.7375 8.4999Z" fill="white"/>
</svg>
