<svg width="22" height="22" viewBox="0 0 22 22" fill="none" xmlns="http://www.w3.org/2000/svg">
<g clip-path="url(#clip0_291_306)">
<path d="M10.3687 11.6359C12.9074 11.6359 15.3648 11.6582 17.8209 11.6241C18.6667 11.6123 18.9487 11.9309 18.9119 12.7636C18.6995 17.6627 14.4876 21.6727 9.61078 21.5809C4.49404 21.4852 0.485352 17.4044 0.485352 12.2915C0.485352 7.32821 4.46388 3.20675 9.3695 3.0612C10.1078 3.0389 10.3766 3.34313 10.374 4.04731C10.3609 6.54405 10.3687 9.03948 10.3687 11.6359Z" fill="#1D1630"/>
<path d="M11.6767 5.37898C11.6767 4.03882 11.6924 2.69866 11.6701 1.35981C11.6583 0.659564 11.9612 0.407791 12.651 0.418282C17.4058 0.493027 21.6296 4.79151 21.5129 9.52405C21.5063 9.81122 21.0224 10.3239 20.751 10.3305C17.9907 10.3908 15.229 10.3921 12.47 10.3279C12.1986 10.3213 11.7318 9.77582 11.7121 9.45717C11.6269 8.10258 11.6754 6.74013 11.6754 5.38029L11.6767 5.37898Z" fill="#1D1630"/>
</g>
<defs>
<clipPath id="clip0_291_306">
<rect width="21.0295" height="21.1659" fill="white" transform="translate(0.485352 0.416992)"/>
</clipPath>
</defs>
</svg>
