<svg width="24" height="24" viewBox="0 0 24 24" fill="none" xmlns="http://www.w3.org/2000/svg">
<path d="M9.8017 19.595C11.9935 19.597 14.1219 18.8597 15.843 17.5023L22.3388 24L24 22.3383L17.5042 15.8406C18.8708 14.0962 19.6057 11.9397 19.589 9.72353C19.5723 7.50732 18.8049 5.36226 17.4121 3.63863C16.0193 1.91501 14.0834 0.714655 11.9206 0.233595C9.75785 -0.247464 7.49589 0.0191924 5.50415 0.990021C3.51241 1.96085 1.90857 3.57849 0.954539 5.57877C0.000504851 7.57906 -0.247353 9.84381 0.251439 12.0032C0.750232 14.1626 1.9662 16.089 3.70079 17.4679C5.43537 18.8468 7.58608 19.5966 9.8017 19.595ZM9.8017 2.35141C11.274 2.35141 12.7132 2.78812 13.9373 3.60631C15.1615 4.4245 16.1156 5.58742 16.679 6.94802C17.2424 8.30862 17.3898 9.80578 17.1026 11.2502C16.8154 12.6946 16.1064 14.0214 15.0653 15.0627C14.0243 16.1041 12.6979 16.8133 11.2539 17.1006C9.80995 17.3879 8.31323 17.2404 6.95303 16.6768C5.59283 16.1133 4.43025 15.1589 3.6123 13.9344C2.79435 12.7099 2.35778 11.2702 2.35778 9.79752C2.35778 7.82269 3.14204 5.92874 4.53805 4.53233C5.93406 3.13591 7.82745 2.35141 9.8017 2.35141Z" fill="#1D1630"/>
</svg>
