<svg width="84" height="84" viewBox="0 0 84 84" fill="none" xmlns="http://www.w3.org/2000/svg">
<path d="M36.7151 7.80496L19.2501 14.385C15.2251 15.89 11.9351 20.65 11.9351 24.92V50.925C11.9351 55.055 14.6651 60.48 17.9901 62.965L33.0401 74.2C37.9751 77.91 46.0951 77.91 51.0301 74.2L66.0801 62.965C69.4051 60.48 72.1351 55.055 72.1351 50.925V24.92C72.1351 20.615 68.8451 15.855 64.8201 14.35L47.3551 7.80496C44.3801 6.71996 39.6201 6.71996 36.7151 7.80496Z" stroke="#FF52A8" stroke-width="3" stroke-linecap="round" stroke-linejoin="round"/>
<path d="M31.6748 41.5449L37.3098 47.1799L52.3598 32.1299" stroke="#FF52A8" stroke-width="3" stroke-linecap="round" stroke-linejoin="round"/>
<path d="M42 7V30" stroke="#FF52A8" stroke-width="3" stroke-linecap="round"/>
<path d="M42 57V76" stroke="#FF52A8" stroke-width="3" stroke-linecap="round"/>
</svg>
