<svg width="23" height="23" viewBox="0 0 23 23" fill="none" xmlns="http://www.w3.org/2000/svg">
<path d="M1.03223 22.7168C1.55957 22.7168 1.98145 22.2832 1.98145 21.7676V17.8184H6.08301C6.75098 17.8184 7.24317 17.3262 7.24317 16.6582V12.5567H11.3447C12.0127 12.5567 12.5166 12.0645 12.5166 11.3965V7.29493H16.6064C17.2861 7.29493 17.7783 6.80274 17.7783 6.13477V2.02149H21.7158C22.2431 2.02149 22.665 1.59961 22.665 1.08398C22.665 0.56836 22.2431 0.134766 21.7158 0.134766H17.0517C16.3838 0.134766 15.8916 0.638672 15.8916 1.30665V5.40821H11.79C11.122 5.40821 10.6299 5.90039 10.6299 6.56836V10.67H6.51661C5.84864 10.67 5.35645 11.1621 5.35645 11.8418V15.9317H1.25489C0.586914 15.9317 0.0947266 16.4356 0.0947266 17.1036V21.7676C0.0947266 22.2832 0.516602 22.7168 1.03223 22.7168Z" fill="black" fill-opacity="0.85"/>
</svg>
