<svg width="31" height="31" viewBox="0 0 31 31" fill="none" xmlns="http://www.w3.org/2000/svg">
<path d="M25.3517 10.805L27.3187 8.83806L25.5392 7.05859L23.3898 9.20679C22.0684 8.41396 20.528 7.94833 18.8769 7.94833C14.0205 7.94833 10.0677 11.8999 10.0677 16.7576C10.0677 21.6152 14.0205 25.5668 18.8769 25.5668C23.7333 25.5668 27.6861 21.6152 27.6861 16.7576C27.6851 14.5502 26.8515 12.4246 25.3517 10.805ZM18.8769 23.0499C15.4073 23.0499 12.5846 20.2271 12.5846 16.7576C12.5846 13.288 15.4073 10.4652 18.8769 10.4652C22.3465 10.4652 25.1692 13.288 25.1692 16.7576C25.1692 20.2271 22.3465 23.0499 18.8769 23.0499Z" fill="#605C6A"/>
<path d="M17.6185 12.9831H20.1354V18.0169H17.6185V12.9831ZM16.36 4.17383H21.3939V6.69075H16.36V4.17383ZM3.7754 10.4661H8.80924V12.9831H3.7754V10.4661ZM3.7754 20.5338H8.80924V23.0507H3.7754V20.5338ZM2.51694 15.5H7.5382V18.0169H2.51694V15.5Z" fill="#605C6A"/>
</svg>
