<svg width="26" height="22" viewBox="0 0 26 22" fill="none" xmlns="http://www.w3.org/2000/svg">
<path d="M9.70621 2.52322L5.69021 6.5999H1.08333C0.484792 6.5999 0 7.09213 0 7.69985V14.2995C0 14.9068 0.484792 15.3995 1.08333 15.3995H5.69021L9.70621 19.4762C10.3847 20.165 11.5556 19.681 11.5556 18.6984V3.30097C11.5556 2.31744 10.3837 1.83529 9.70621 2.52322ZM20.238 0.182162C19.7338 -0.15378 19.0563 -0.012162 18.7254 0.500689C18.3941 1.01262 18.5349 1.70055 19.0391 2.03649C22.0305 4.02969 23.8157 7.38041 23.8157 11.0002C23.8157 14.6199 22.0305 17.9706 19.0391 19.9638C18.5349 20.2993 18.3941 20.9877 18.7254 21.4992C19.0432 21.99 19.7153 22.1665 20.238 21.8177C23.8455 19.4134 26 15.3688 26 10.9997C26 6.63061 23.8455 2.58647 20.238 0.182162ZM21.6667 10.9997C21.6667 8.08804 20.2195 5.41104 17.7951 3.83903C17.29 3.5118 16.6201 3.66396 16.3001 4.18093C15.9801 4.69791 16.1295 5.38217 16.6346 5.70986C18.4289 6.87351 19.5 8.85067 19.5 10.9997C19.5 13.1487 18.4289 15.1259 16.6346 16.2895C16.1295 16.6168 15.9801 17.301 16.3001 17.8185C16.594 18.2933 17.2534 18.5123 17.7951 18.1604C20.2195 16.5884 21.6667 13.9118 21.6667 10.9997ZM15.2673 7.47665C14.7446 7.18654 14.0851 7.37766 13.7953 7.90976C13.5069 8.44186 13.6978 9.11053 14.2219 9.40431C14.8047 9.72926 15.1667 10.3411 15.1667 10.9997C15.1667 11.6587 14.8047 12.2701 14.2224 12.5951C13.6983 12.8889 13.5074 13.5575 13.7958 14.0896C14.086 14.624 14.746 14.8138 15.2678 14.5227C16.542 13.8101 17.3338 12.4603 17.3338 10.9992C17.3338 9.53814 16.542 8.18887 15.2673 7.47665Z" fill="white"/>
</svg>
