<svg width="28" height="18" viewBox="0 0 28 18" fill="none" xmlns="http://www.w3.org/2000/svg">
<path d="M13.9995 0.417969C15.0825 0.417969 16.1211 0.848176 16.8869 1.61395C17.6526 2.37972 18.0828 3.41833 18.0828 4.5013C18.0828 5.58427 17.6526 6.62288 16.8869 7.38865C16.1211 8.15443 15.0825 8.58463 13.9995 8.58463C12.9165 8.58463 11.8779 8.15443 11.1122 7.38865C10.3464 6.62288 9.91618 5.58427 9.91618 4.5013C9.91618 3.41833 10.3464 2.37972 11.1122 1.61395C11.8779 0.848176 12.9165 0.417969 13.9995 0.417969ZM5.83284 3.33464C6.48618 3.33464 7.09284 3.50964 7.61785 3.82464C7.44284 5.49297 7.93284 7.14964 8.93618 8.44464C8.35284 9.56464 7.18618 10.3346 5.83284 10.3346C4.90459 10.3346 4.01435 9.96589 3.35797 9.30951C2.70159 8.65313 2.33284 7.76289 2.33284 6.83464C2.33284 5.90638 2.70159 5.01614 3.35797 4.35976C4.01435 3.70338 4.90459 3.33464 5.83284 3.33464ZM22.1662 3.33464C23.0944 3.33464 23.9847 3.70338 24.6411 4.35976C25.2974 5.01614 25.6662 5.90638 25.6662 6.83464C25.6662 7.76289 25.2974 8.65313 24.6411 9.30951C23.9847 9.96589 23.0944 10.3346 22.1662 10.3346C20.8128 10.3346 19.6462 9.56464 19.0628 8.44464C20.0662 7.14964 20.5562 5.49297 20.3812 3.82464C20.9062 3.50964 21.5128 3.33464 22.1662 3.33464ZM6.41618 15.293C6.41618 12.878 9.81118 10.918 13.9995 10.918C18.1878 10.918 21.5828 12.878 21.5828 15.293V17.3346H6.41618V15.293ZM-0.000488281 17.3346V15.5846C-0.000488281 13.963 2.20451 12.598 5.19118 12.2013C4.50284 12.9946 4.08284 14.0913 4.08284 15.293V17.3346H-0.000488281ZM27.9995 17.3346H23.9162V15.293C23.9162 14.0913 23.4962 12.9946 22.8078 12.2013C25.7945 12.598 27.9995 13.963 27.9995 15.5846V17.3346Z" fill="#1D1630"/>
</svg>
